<svg xmlns="http://www.w3.org/2000/svg" 
xml:space="preserve" 
width="67.7332mm" 
height="5.08mm" 
version="1.1" 
style="shape-rendering:geometricPrecision; text-rendering:geometricPrecision; image-rendering:optimizeQuality; fill-rule:evenodd; clip-rule:evenodd"
viewBox="0 0 6773.32 508">
  <path 
    fill="#fff"
    fill-rule="nonzero"
    d="M116.4 375.81c0,-2.5 0.1,-5.27 0.31,-8.28 0.18,-2.82 0.49,-5.79 0.87,-8.87 0.37,-2.97 0.85,-5.93 1.4,-8.8 0.48,-2.65 1.09,-5.19 1.78,-7.57l1.35 -4.62 4.24 -0.25c7.98,-0.49 14.64,-1.37 19.91,-2.62 4.8,-1.13 8.28,-2.53 10.42,-4.16 1.7,-1.28 3.04,-3.39 3.98,-6.25 0.78,-2.39 1.3,-5.31 1.54,-8.76 -12.88,-0.57 -24.98,-1.99 -36.26,-4.27 -13.27,-2.67 -25.61,-6.55 -36.98,-11.6 -11.43,-5.06 -21.56,-11.18 -30.35,-18.29 -8.89,-7.19 -16.48,-15.45 -22.74,-24.75 -6.31,-9.29 -11.05,-19.49 -14.21,-30.51 -3.16,-10.98 -4.73,-22.77 -4.73,-35.31 0,-12 1.62,-23.36 4.83,-34.02 3.21,-10.67 8.02,-20.56 14.39,-29.63 6.33,-9.01 13.96,-17.07 22.82,-24.14 8.75,-6.98 18.82,-13.06 30.15,-18.25 11.18,-5.1 23.44,-9.12 36.74,-12.02 11.29,-2.47 23.37,-4.15 36.22,-5 -0.68,-7.1 -2.48,-11.85 -5.41,-14.3 -2.07,-1.75 -5.5,-3.26 -10.28,-4.53 -5.3,-1.41 -12.02,-2.45 -20.14,-3.1l-3.91 -0.3 -1.46 -4.18c-0.75,-2.14 -1.37,-4.63 -1.84,-7.39 -0.45,-2.59 -0.81,-5.53 -1.04,-8.77l-0.51 -9.07 -0.2 -8.69 0 -7.48 6.52 0.34c9.72,0.51 21.02,0.9 33.85,1.14 11.85,0.23 26.52,0.35 43.98,0.35 22.16,-0.04 44.29,-0.49 66.44,-1.06l16.08 -0.79 0 7.5 -0.19 8.32 -0.52 8.94c-0.28,3.34 -0.62,6.3 -1.05,8.87 -0.47,2.81 -1.05,5.34 -1.73,7.54l-1.37 4.41 -4.1 0.32c-8.11,0.65 -14.83,1.69 -20.1,3.1 -4.81,1.26 -8.26,2.78 -10.36,4.53 -1.7,1.43 -3.02,3.68 -3.95,6.73 -0.65,2.12 -1.11,4.59 -1.39,7.42 12.8,0.55 24.82,1.92 36.04,4.08 13.3,2.56 25.55,6.23 36.73,10.99 11.28,4.78 21.34,10.54 30.11,17.25 8.87,6.81 16.44,14.58 22.72,23.33 6.33,8.8 11.11,18.46 14.28,28.91 3.19,10.45 4.78,21.63 4.78,33.51 0,12.66 -1.57,24.58 -4.71,35.75 -3.15,11.2 -7.89,21.58 -14.2,31.09 -6.24,9.41 -13.79,17.88 -22.66,25.34 -8.75,7.37 -18.8,13.8 -30.1,19.21 -11.3,5.39 -23.6,9.63 -36.84,12.66 -11.3,2.58 -23.43,4.32 -36.35,5.19 0.21,3.77 0.72,6.95 1.52,9.53 0.89,2.87 2.14,4.94 3.71,6.2 1.96,1.59 5.32,2.95 10.05,4.07 5.3,1.25 12.03,2.13 20.16,2.62l4.13 0.24 1.41 4.46c0.7,2.18 1.31,4.69 1.81,7.46 0.48,2.65 0.89,5.58 1.19,8.74l0.71 9.02c0.17,3.15 0.27,5.98 0.27,8.47l0 7.35 -22.29 -0.66 -18.15 -0.33c-34.87,-0.32 -69.63,-0.25 -104.49,0.31l-22.83 0.71 0 -7.38zm13.54 -15.13c-0.34,2.73 -0.61,5.34 -0.77,7.77 38.21,-0.99 76.44,-0.92 114.66,-0.57l27.63 0.59 -0.68 -8.52c-0.27,-2.79 -0.61,-5.29 -1,-7.45l-0.21 -1.11c-6.87,-0.56 -12.74,-1.42 -17.6,-2.58 -6.38,-1.51 -11.28,-3.63 -14.66,-6.34 -3.76,-2.98 -6.56,-7.38 -8.35,-13.12 -1.58,-5.11 -2.37,-11.31 -2.37,-18.6l0 -9.42 6 -0.27c14.41,-0.65 27.93,-2.44 40.52,-5.32 12.52,-2.86 24.03,-6.82 34.5,-11.81 10.38,-4.97 19.57,-10.84 27.51,-17.53 7.88,-6.63 14.6,-14.15 20.13,-22.49 5.44,-8.21 9.52,-17.15 12.23,-26.77 2.72,-9.67 4.08,-20.14 4.08,-31.38 0,-10.35 -1.35,-19.97 -4.04,-28.8 -2.67,-8.8 -6.72,-16.99 -12.13,-24.49 -5.47,-7.67 -12.14,-14.51 -19.99,-20.53 -7.93,-6.06 -17.13,-11.32 -27.55,-15.72 -10.56,-4.5 -22.06,-7.95 -34.46,-10.33 -12.6,-2.43 -26.16,-3.8 -40.65,-4.12l-6.15 -0.14 0 -7.01c0,-7.45 0.81,-13.82 2.43,-19.09 1.81,-5.87 4.61,-10.39 8.38,-13.56 3.45,-2.88 8.41,-5.19 14.86,-6.91 4.9,-1.31 10.81,-2.33 17.7,-3.04l0.19 -1.07c0.38,-2.27 0.67,-4.76 0.88,-7.42l0.5 -8.55c-23.24,0.82 -46.6,1.09 -69.87,1.2 -15.3,0.04 -30.03,-0.11 -44.19,-0.38 -10.27,-0.19 -19.47,-0.47 -27.56,-0.83l0.51 9.1c0.22,2.72 0.51,5.14 0.87,7.22l0.13 0.72c6.92,0.72 12.86,1.73 17.78,3.05 6.43,1.72 11.37,4.03 14.8,6.89 7.24,6.05 10.87,16.92 10.87,32.67l0 6.88 -6.01 0.27c-14.54,0.66 -28.12,2.38 -40.71,5.13 -12.4,2.71 -23.89,6.49 -34.44,11.27 -10.36,4.72 -19.58,10.3 -27.61,16.71 -7.93,6.32 -14.69,13.45 -20.24,21.34 -5.49,7.82 -9.62,16.27 -12.34,25.3 -2.72,9.03 -4.09,18.84 -4.09,29.38 0,11.03 1.36,21.31 4.09,30.82 2.69,9.44 6.77,18.19 12.2,26.21 5.48,8.17 12.18,15.45 20.07,21.83 7.99,6.46 17.23,12.04 27.66,16.66 10.52,4.67 22.07,8.29 34.63,10.82 12.64,2.55 26.2,4 40.63,4.31l6.16 0.14 0 9.06c0,7.3 -0.87,13.54 -2.55,18.69 -1.89,5.76 -4.83,10.15 -8.76,13.14 -3.47,2.64 -8.41,4.72 -14.76,6.22 -4.82,1.17 -10.61,2.02 -17.34,2.58l-0.3 1.5c-0.44,2.19 -0.85,4.8 -1.22,7.8zm-31.38 -176.45c0,25.38 6.53,45.63 19.58,60.75 6.56,7.61 14.34,13.58 23.31,17.87 7.33,3.5 15.49,5.91 24.46,7.23l0 -157.84c-9.13,0.63 -17.45,2.36 -24.93,5.17 -8.93,3.37 -16.66,8.32 -23.16,14.85 -6.41,6.43 -11.23,13.96 -14.42,22.51 -3.22,8.64 -4.84,18.47 -4.84,29.46zm10.74 70.84c-15.48,-17.96 -23.24,-41.55 -23.24,-70.84 0,-12.88 1.96,-24.59 5.87,-35.07 3.94,-10.55 9.84,-19.79 17.69,-27.66 7.79,-7.83 16.97,-13.75 27.51,-17.72 10.3,-3.87 21.97,-5.9 34.98,-6.07l6.31 -0.09 0 188.06 -6.7 -0.55c-13,-1.08 -24.69,-4.11 -35.05,-9.06 -10.51,-5.03 -19.64,-12.03 -27.37,-21zm192.69 -60.58c0,-23.98 -6.44,-43.08 -19.28,-57.38 -6.47,-7.17 -14.16,-12.83 -23.02,-16.91 -7.24,-3.33 -15.29,-5.65 -24.15,-6.94l0 157.72c8.93,-0.78 17.07,-2.67 24.39,-5.65 8.84,-3.6 16.5,-8.84 22.9,-15.64 6.36,-6.76 11.14,-14.71 14.33,-23.81 3.21,-9.18 4.83,-19.67 4.83,-31.39zm-10.61 -67.65c15.41,17.15 23.11,39.65 23.11,67.65 0,13.5 -1.92,25.76 -5.76,36.72 -3.88,11.04 -9.69,20.7 -17.46,28.95 -7.7,8.2 -16.79,14.44 -27.19,18.68 -10.22,4.16 -21.78,6.43 -34.64,6.78l-6.4 0.17 0 -188.17 6.69 0.58c12.82,1.08 24.36,4 34.59,8.71 10.37,4.78 19.4,11.43 27.06,19.93zm228.31 259.73c-18.39,0 -34.75,-2.83 -49.05,-8.47 -14.51,-5.71 -26.91,-14.34 -37.16,-25.86 -10.24,-11.49 -17.94,-25 -23.06,-40.48 -5.08,-15.34 -7.63,-32.57 -7.63,-51.69 0,-13.72 1.3,-26.49 3.88,-38.27 2.61,-11.88 6.55,-22.75 11.79,-32.57 5.21,-9.79 11.38,-18.46 18.49,-26.01 7.08,-7.49 15.12,-13.89 24.11,-19.16 8.96,-5.22 18.5,-9.15 28.62,-11.75 10.09,-2.6 20.7,-3.92 31.77,-3.92 12.63,0 24.27,1.33 34.93,4 10.79,2.7 20.59,6.79 29.37,12.22 8.76,5.44 16.5,11.95 23.15,19.47 6.68,7.52 12.29,16.11 16.84,25.71 4.51,9.5 7.9,19.79 10.15,30.81 2.23,10.94 3.36,22.57 3.36,34.86 0,13.09 -1.23,25.44 -3.66,36.98 -2.46,11.64 -6.14,22.36 -11.01,32.13 -4.9,9.79 -10.88,18.54 -17.9,26.18 -6.98,7.61 -15.06,14.16 -24.15,19.61 -8.96,5.39 -18.77,9.44 -29.36,12.16 -10.51,2.69 -21.68,4.05 -33.48,4.05zm-45.01 -22.03c12.97,5.11 27.98,7.67 45.01,7.67 11.06,0 21.34,-1.22 30.79,-3.63 9.39,-2.41 18.18,-6.06 26.29,-10.91 8.01,-4.78 15.14,-10.55 21.32,-17.29 6.12,-6.66 11.35,-14.32 15.65,-22.93 4.33,-8.67 7.59,-18.14 9.75,-28.36 2.17,-10.29 3.26,-21.52 3.26,-33.63 0,-11.27 -1.01,-21.82 -3,-31.6 -1.99,-9.71 -4.99,-18.82 -8.97,-27.24 -3.93,-8.34 -8.81,-15.79 -14.61,-22.34 -5.81,-6.56 -12.6,-12.26 -20.32,-17.06 -7.72,-4.78 -16.43,-8.39 -26.11,-10.81 -9.75,-2.44 -20.53,-3.67 -32.29,-3.67 -10.3,0 -19.99,1.19 -29.04,3.52 -9.08,2.33 -17.66,5.87 -25.71,10.56 -7.92,4.64 -15.02,10.29 -21.31,16.95 -6.25,6.63 -11.69,14.28 -16.29,22.92 -4.58,8.57 -8.03,18.12 -10.33,28.58 -2.31,10.57 -3.48,22.18 -3.48,34.8 0,17.41 2.27,32.95 6.78,46.59 4.47,13.52 11.18,25.31 20.11,35.32 8.9,10.02 19.74,17.54 32.5,22.56zm50.78 -24.61c5.82,0 10.85,-1.52 15.06,-4.57 4.28,-3.1 7.92,-7.89 10.88,-14.35 3.21,-6.98 5.64,-14.92 7.26,-23.77 1.64,-8.98 2.47,-19 2.47,-30 0,-15.9 -1.22,-29.8 -3.65,-41.68 -2.39,-11.6 -5.92,-21.3 -10.6,-29.07 -4.62,-7.7 -9.57,-13.44 -14.83,-17.19 -4.95,-3.53 -10.28,-5.31 -15.95,-5.31 -5.8,0 -10.81,1.5 -15,4.47 -4.24,3.04 -7.82,7.7 -10.71,13.96 -3.14,6.84 -5.53,14.57 -7.11,23.17 -1.6,8.75 -2.41,18.45 -2.41,29.08 0,14.75 1.07,28.02 3.2,39.8 2.09,11.66 5.25,21.95 9.41,30.84 3.97,8.43 8.65,14.69 13.99,18.73 5.19,3.93 11.19,5.89 17.99,5.89zm21.7 7.54c-6.28,4.54 -13.53,6.82 -21.7,6.82 -9.25,0 -17.55,-2.78 -24.85,-8.32 -7.1,-5.4 -13.16,-13.38 -18.11,-23.88 -4.72,-10.07 -8.28,-21.66 -10.63,-34.71 -2.33,-12.86 -3.5,-27.11 -3.5,-42.71 0,-11.54 0.9,-22.23 2.71,-32.02 1.83,-9.91 4.6,-18.89 8.29,-26.89 3.95,-8.58 9.01,-15.08 15.16,-19.46 6.25,-4.44 13.44,-6.66 21.57,-6.66 8.02,0 15.53,2.49 22.54,7.49 6.68,4.76 12.86,11.86 18.48,21.24 5.6,9.29 9.77,20.62 12.51,33.94 2.66,13.03 4,28.01 4,44.93 0,11.86 -0.92,22.86 -2.76,32.91 -1.86,10.16 -4.69,19.35 -8.45,27.52 -3.99,8.72 -9.09,15.32 -15.26,19.8zm108.14 28.83c0,-6.53 0.23,-12.5 0.69,-17.87 0.26,-2.87 0.67,-5.6 1.2,-8.18 0.58,-2.67 1.27,-5.27 2.1,-7.73l1.55 -4.6 4.26 0c6.46,0 11,-2.16 13.59,-6.43 1.45,-2.35 2.58,-5.94 3.37,-10.77 0.89,-5.37 1.35,-12.11 1.35,-20.22l0 -86.05c0,-8.13 -0.46,-14.88 -1.33,-20.19 -0.82,-4.85 -1.95,-8.46 -3.37,-10.77 -1.26,-2.08 -2.93,-3.64 -4.97,-4.67 -2.3,-1.16 -5.19,-1.74 -8.64,-1.74l-4.29 0 -1.54 -4.63c-0.83,-2.49 -1.53,-5.09 -2.07,-7.76 -0.54,-2.58 -0.95,-5.31 -1.21,-8.18 -0.21,-2.56 -0.4,-5.38 -0.5,-8.42l-0.19 -9.48 0 -7.49 19.11 0.93 30.2 0.85 16.71 0.1 15.81 -0.1 28.53 -0.85 18.56 -0.94 0 7.5 -0.19 9.48 -0.54 8.45c-0.25,2.84 -0.66,5.56 -1.18,8.12 -0.54,2.67 -1.24,5.24 -2.03,7.71l-1.51 4.71 -4.35 0c-3.29,0 -6.01,0.56 -8.12,1.68 -1.87,0.98 -3.38,2.5 -4.49,4.48 -1.34,2.38 -2.39,5.99 -3.13,10.86 -0.82,5.39 -1.24,12.19 -1.24,20.35l0 18.43 68.68 0 0 -18.43c0,-8.19 -0.42,-15 -1.23,-20.38 -0.73,-4.84 -1.77,-8.44 -3.09,-10.77 -1.14,-2.07 -2.63,-3.59 -4.45,-4.57 -2.03,-1.1 -4.61,-1.65 -7.72,-1.65l-4.29 0 -1.54 -4.63c-0.83,-2.52 -1.54,-5.12 -2.08,-7.76 -0.54,-2.67 -0.95,-5.42 -1.19,-8.2 -0.22,-2.62 -0.42,-5.52 -0.54,-8.66l-0.2 -9.22 0 -7.53 18.19 0.97 28.59 0.85 16.17 0.1 16.7 -0.1 30.13 -0.85 18.73 -0.95 0 7.51 -0.2 9.48 -0.5 8.4c-0.27,2.89 -0.68,5.62 -1.21,8.2 -0.54,2.62 -1.24,5.22 -2.06,7.74l-1.53 4.65 -4.3 0c-3.5,0 -6.36,0.57 -8.58,1.69 -1.98,1.02 -3.59,2.56 -4.79,4.61 -1.39,2.31 -2.46,5.91 -3.23,10.75 -0.83,5.3 -1.25,12.09 -1.25,20.32l0 86.05c0,8.21 0.42,15 1.25,20.31 0.77,4.84 1.84,8.46 3.21,10.77 1.22,2.05 2.83,3.6 4.81,4.61 2.24,1.15 5.1,1.73 8.58,1.73l4.3 0 1.53 4.62c0.82,2.47 1.51,5.06 2.06,7.71 0.53,2.58 0.94,5.3 1.21,8.13l0.5 8.48 0.2 9.44 0 7.43 -32.55 -1.32 -16.44 -0.36 -16.57 -0.09 -16.04 0.09 -15.68 0.36 -31.23 1.33 0 -7.44 0.2 -9.18c0.12,-3.13 0.32,-6.04 0.54,-8.69 0.24,-2.82 0.64,-5.53 1.17,-8.07 0.56,-2.7 1.27,-5.31 2.1,-7.82l1.54 -4.62 4.29 0c5.77,0 9.84,-2.07 12.15,-6.2 1.34,-2.39 2.38,-6.01 3.11,-10.85 0.81,-5.39 1.23,-12.19 1.23,-20.37l0 -24.55 -13.43 0.14 -21.86 0.56c-7.36,0.24 -14.4,0.62 -21.1,1.11l-12.29 1.07 0 21.67c0,15.63 1.45,26.07 4.35,31.16 1.14,2.05 2.64,3.57 4.51,4.56 2.12,1.13 4.84,1.7 8.12,1.7l4.31 0 1.52 4.68c0.85,2.63 1.56,5.26 2.09,7.8 0.51,2.58 0.91,5.25 1.14,8.01 0.24,2.56 0.43,5.39 0.55,8.41l0.19 9.48 0 7.44 -31.65 -1.33 -15.57 -0.36 -15.68 -0.09 -16.71 0.09 -16.34 0.36 -32.97 1.31 0 -7.42zm13.08 -16.41c-0.22,2.69 -0.38,5.69 -0.48,8.99l19.99 -0.75 16.57 -0.37 16.86 -0.16 15.83 0.16 15.76 0.37 18.72 0.74 -0.54 -9.01c-0.17,-2.09 -0.49,-4.14 -0.88,-6.16l-0.4 -1.73c-3.21,-0.44 -6.12,-1.36 -8.73,-2.75 -4.06,-2.15 -7.31,-5.42 -9.73,-9.72 -4.27,-7.49 -6.41,-20.54 -6.41,-39l0 -34.59 5.59 -0.69c5.59,-0.68 11.74,-1.28 18.42,-1.75 6.43,-0.46 13.62,-0.84 21.54,-1.11l22 -0.56 26.13 -0.22 0 38.92c0,8.86 -0.48,16.47 -1.43,22.78 -1.04,6.83 -2.69,12.27 -4.94,16.23 -4.05,7.18 -10.07,11.34 -18.03,12.46l-0.38 1.67c-0.42,2.11 -0.73,4.18 -0.91,6.2l-0.53 9.02 18.23 -0.73 15.92 -0.37 16.19 -0.16 16.71 0.16 16.64 0.37 19.62 0.74 -0.51 -8.98c-0.2,-2.11 -0.52,-4.23 -0.96,-6.33l-0.33 -1.58c-3.33,-0.42 -6.34,-1.34 -9.07,-2.73 -4.18,-2.16 -7.56,-5.39 -10.06,-9.66 -2.33,-3.98 -4.05,-9.43 -5.13,-16.25 -1,-6.38 -1.5,-14.01 -1.5,-22.84l0 -86.05c0,-8.85 0.5,-16.47 1.5,-22.85 1.08,-6.83 2.8,-12.25 5.15,-16.22 2.49,-4.29 5.87,-7.51 10.04,-9.65 2.74,-1.38 5.75,-2.29 9.05,-2.72l0.35 -1.6c0.43,-2.12 0.76,-4.25 0.96,-6.38l0.51 -8.94c-12.04,0.52 -24.08,0.8 -36.12,1.1l-16.85 0.16 -16.32 -0.16c-11.34,-0.29 -22.68,-0.58 -34.02,-1.08l0.53 8.97c0.18,2.17 0.49,4.28 0.91,6.28l0.4 1.69c3.07,0.44 5.88,1.35 8.42,2.73 3.96,2.15 7.16,5.38 9.58,9.68 2.26,3.95 3.91,9.36 4.95,16.2 0.95,6.29 1.43,13.9 1.43,22.79l0 32.79 -93.68 0 0 -32.79c0,-8.91 0.48,-16.52 1.44,-22.81 1.05,-6.82 2.71,-12.24 4.96,-16.19 2.43,-4.3 5.68,-7.55 9.74,-9.69 2.61,-1.38 5.52,-2.3 8.72,-2.73l0.36 -1.65c0.43,-2.08 0.75,-4.2 0.93,-6.3l0.54 -8.98c-11.45,0.49 -22.9,0.79 -34.36,1.09l-15.95 0.16 -16.86 -0.16c-12.2,-0.3 -24.38,-0.6 -36.57,-1.11l0.5 8.97c0.19,2.1 0.51,4.22 0.95,6.33l0.35 1.62c3.33,0.43 6.36,1.33 9.08,2.7 4.17,2.11 7.58,5.31 10.16,9.58 2.44,3.99 4.25,9.43 5.39,16.28 1.05,6.37 1.59,14 1.59,22.89l0 86.05c0,8.9 -0.54,16.54 -1.6,22.88 -1.14,6.87 -2.95,12.32 -5.38,16.3 -4.33,7.16 -10.76,11.27 -19.27,12.32l-0.34 1.54c-0.42,2.11 -0.73,4.24 -0.94,6.35zm322.18 108.4c-3.54,1.1 -7.26,1.94 -11.09,2.48 -3.84,0.54 -7.82,0.82 -11.93,0.82 -4,0 -7.88,-0.29 -11.58,-0.85 -3.71,-0.56 -7.18,-1.41 -10.32,-2.53l-4.49 -1.6 0.1 -5.38c0.15,-8.34 0.15,-16.44 0.01,-24.22 -0.14,-7.78 -0.44,-15.49 -0.87,-23.1 -0.44,-7.31 -1.03,-14.17 -1.75,-20.51 -0.72,-6.43 -1.61,-12.52 -2.62,-18.21l-0.14 -1.44c0,-6.42 0.73,-12.4 2.17,-17.91 1.46,-5.62 3.71,-10.67 6.71,-15.12l1.9 -2.8 8.41 0c5.09,0 9.65,-1.2 13.63,-3.56 4.04,-2.39 7.64,-6.05 10.78,-10.95 3.42,-5.35 6.47,-11.74 9.15,-19.16 2.72,-7.52 5.06,-16.14 6.98,-25.8 1.96,-9.86 3.62,-20.52 4.96,-31.91 1.35,-11.43 2.4,-23.66 3.14,-36.66l0.02 -0.17c0.39,-5 0.6,-9.59 0.6,-13.7 0,-3.76 -0.19,-6.75 -0.52,-8.94 -0.28,-1.68 -0.74,-3.04 -1.37,-4.03 -0.56,-0.85 -1.3,-1.53 -2.21,-2 -1.61,-0.86 -3.7,-1.61 -6.27,-2.27 -2.89,-0.69 -6.27,-1.3 -10.09,-1.75l-3.78 -0.46 -1.39 -4.08c-0.86,-2.52 -1.56,-5.17 -2.1,-7.91 -0.54,-2.63 -0.94,-5.41 -1.19,-8.29 -0.24,-2.6 -0.43,-5.45 -0.54,-8.51l-0.2 -9.16 0 -7.68 6.7 0.54c4.73,0.38 10.06,0.68 15.95,0.87 6.24,0.22 13.23,0.38 20.91,0.44 52.21,0.36 104.54,0.64 156.74,-0.84l15.19 -0.96 0 7.63 -0.2 9.51c-0.12,3.08 -0.3,5.91 -0.54,8.42 -0.25,2.86 -0.64,5.59 -1.17,8.15 -0.54,2.62 -1.26,5.24 -2.12,7.79l-1.56 4.6 -4.25 0c-3.1,0 -5.68,0.55 -7.7,1.65 -1.82,0.98 -3.32,2.51 -4.46,4.54 -1.3,2.31 -2.34,5.94 -3.08,10.84 -0.82,5.38 -1.24,12.17 -1.24,20.34l0 86.05c0,8.15 0.42,14.95 1.24,20.33 0.74,4.91 1.78,8.55 3.08,10.86 1.14,2.03 2.64,3.56 4.46,4.56 2.06,1.11 4.63,1.67 7.7,1.67l17.24 0 1.87 2.63c3.15,4.42 5.54,9.48 7.12,15.15 1.54,5.52 2.33,11.55 2.33,18.05l-0.15 1.44c-1.01,5.65 -1.88,11.72 -2.6,18.1 -0.71,6.36 -1.29,13.27 -1.73,20.62 -0.45,7.53 -0.76,15.15 -0.9,22.8 -0.14,7.89 -0.14,16.08 0,24.52l0.1 5.38 -4.46 1.6c-3.12,1.11 -6.58,1.97 -10.32,2.53 -3.71,0.56 -7.59,0.85 -11.62,0.85 -4.07,0 -8.03,-0.28 -11.86,-0.82 -3.81,-0.54 -7.53,-1.37 -11.13,-2.48l-4.75 -1.45 0.12 -5.64c0.14,-6.75 0.13,-13.69 -0.01,-20.74 -0.14,-6.77 -0.44,-13.93 -0.89,-21.39 -0.44,-7.22 -1.03,-14.5 -1.76,-21.77 -0.52,-5.18 -1.14,-10.31 -1.81,-15.34l-145.5 0c-0.66,5.02 -1.26,10.15 -1.78,15.34 -0.74,7.27 -1.33,14.55 -1.76,21.77 -0.44,7.47 -0.75,14.64 -0.89,21.42 -0.14,7.04 -0.14,13.97 0,20.71l0.12 5.63 -4.74 1.46zm-12.61 -11.76l4.69 -0.85c-0.04,-5.1 0,-10.28 0.1,-15.53 0.15,-7.4 0.45,-14.77 0.89,-22.03 0.45,-7.62 1.06,-15.12 1.8,-22.45 0.74,-7.31 1.65,-14.68 2.72,-22.07l0.87 -6 166.67 0 0.88 6c1.08,7.37 2,14.75 2.75,22.07 0.74,7.33 1.34,14.83 1.8,22.45 0.44,7.26 0.75,14.62 0.89,22.01 0.11,5.25 0.14,10.44 0.1,15.55l4.75 0.85c3.28,0.47 6.73,0.71 10.34,0.71 3.7,0 7.04,-0.23 10.01,-0.68l3.78 -0.72c-0.07,-6.64 -0.05,-13.12 0.07,-19.42 0.15,-8.29 0.45,-16.13 0.89,-23.46 0.45,-7.43 1.07,-14.61 1.83,-21.47 0.73,-6.5 1.59,-12.63 2.6,-18.32 -0.05,-4.87 -0.62,-9.24 -1.7,-13.09 -0.78,-2.81 -1.87,-5.42 -3.23,-7.81l-11.13 0c-4.94,0 -9.3,-1.02 -13.05,-3.08 -3.95,-2.18 -7.15,-5.42 -9.56,-9.71 -2.24,-3.97 -3.9,-9.4 -4.93,-16.19 -0.95,-6.32 -1.44,-13.93 -1.44,-22.79l0 -86.05c0,-8.87 0.49,-16.48 1.44,-22.77 1.03,-6.82 2.69,-12.23 4.93,-16.2 2.42,-4.3 5.63,-7.54 9.59,-9.7 2.54,-1.38 5.36,-2.29 8.44,-2.74l0.36 -1.63c0.44,-2.13 0.75,-4.24 0.92,-6.33 0.23,-2.45 0.4,-4.98 0.5,-7.6l0.04 -1.35c-52.71,2.22 -106.69,1.3 -159.43,0.94 -7.9,-0.07 -14.97,-0.23 -21.15,-0.44l-9.71 -0.42 0.53 8.56c0.2,2.3 0.52,4.5 0.94,6.61l0.42 1.95c2.78,0.42 5.26,0.91 7.43,1.45 3.57,0.94 6.51,2.01 8.81,3.23 2.93,1.54 5.3,3.76 7.11,6.62 1.74,2.77 2.92,6.06 3.54,9.81 0.51,3.31 0.78,7.16 0.78,11.57 0,4.02 -0.24,8.97 -0.69,14.77 -0.75,13.32 -1.83,25.88 -3.21,37.66 -1.4,11.81 -3.12,22.89 -5.17,33.2 -2.07,10.41 -4.63,19.78 -7.62,28.08 -3.05,8.48 -6.6,15.87 -10.61,22.14 -4.3,6.72 -9.34,11.82 -15.11,15.23 -5.82,3.44 -12.28,5.18 -19.35,5.18l-2.13 0c-1.24,2.33 -2.22,4.89 -2.95,7.65 -1.04,3.91 -1.57,8.33 -1.61,13.25 1,5.73 1.88,11.88 2.62,18.43 0.77,6.81 1.39,13.95 1.83,21.36 0.43,7.45 0.73,15.38 0.88,23.76 0.11,6.19 0.13,12.58 0.06,19.12l3.8 0.72c2.96,0.45 6.3,0.68 9.97,0.68 3.65,0 7.13,-0.24 10.41,-0.71zm66.74 -245.13c-1.2,18.15 -2.56,34.29 -4.08,48.36 -1.53,14.17 -3.26,26.55 -5.18,37.1 -1.93,10.6 -4.36,20.13 -7.29,28.56 -1.35,3.88 -2.8,7.53 -4.36,10.94l44.16 0c4.61,0 8.35,-0.51 11.22,-1.52 2.3,-0.81 3.96,-1.92 4.93,-3.26 1.13,-1.61 2.05,-4.24 2.71,-7.88 0.78,-4.28 1.18,-9.8 1.18,-16.53l0 -97.33c0,-5.97 -0.12,-10.96 -0.35,-14.9 -0.23,-3.87 -0.58,-6.91 -1.01,-9.08 -0.3,-1.45 -0.79,-2.65 -1.46,-3.58 -0.66,-0.91 -1.58,-1.67 -2.71,-2.21l-0.31 -0.17c-0.84,-0.47 -1.83,-0.91 -2.94,-1.28 -1.06,-0.35 -2.32,-0.66 -3.71,-0.88l-4.25 -0.51 -3.76 -0.15 -4.21 0.15 -4.64 0.54c-1.39,0.19 -2.84,0.5 -4.26,0.86l-3.61 1.08c-0.85,0.42 -1.52,0.94 -1.98,1.56 -0.48,0.63 -0.84,1.54 -1.05,2.67l-0.03 0.15c-0.43,2.12 -0.89,5.4 -1.38,9.8 -0.51,4.6 -1.05,10.47 -1.63,17.51zm-16.48 46.62c1.53,-14.09 2.88,-30 4.04,-47.69l0.03 -0.13c0.59,-7.25 1.15,-13.3 1.69,-18.1 0.54,-4.95 1.07,-8.67 1.55,-11.12 0.65,-3.49 1.93,-6.53 3.8,-9.02 1.85,-2.49 4.25,-4.38 7.16,-5.68l0.34 -0.14c1.6,-0.59 3.26,-1.12 4.9,-1.53 1.56,-0.39 3.35,-0.75 5.32,-1.06l5.4 -0.61 5.04 -0.22 4.69 0.22 5.01 0.61c1.96,0.31 3.79,0.76 5.53,1.34 1.63,0.55 3.19,1.24 4.68,2.06 2.97,1.47 5.43,3.54 7.34,6.15 1.93,2.66 3.29,5.85 4.03,9.5 0.59,2.95 1.05,6.77 1.31,11.39 0.27,4.61 0.41,9.9 0.41,15.85l0 97.33c0,7.6 -0.49,14.08 -1.47,19.44 -1.09,5.98 -2.87,10.69 -5.32,14.08 -2.57,3.55 -6.22,6.17 -10.87,7.83 -4.14,1.45 -9.12,2.19 -14.88,2.19l-67.7 0 7.32 -11.4c3.42,-5.34 6.43,-11.74 9,-19.16 2.65,-7.6 4.87,-16.35 6.67,-26.21 1.8,-9.95 3.47,-21.94 4.98,-35.92zm281.05 118.28l0.19 -9.44c0.12,-3.06 0.31,-5.89 0.54,-8.45 0.24,-2.82 0.64,-5.53 1.16,-8.11 0.55,-2.67 1.25,-5.27 2.08,-7.76l1.54 -4.62 4.29 0c5.77,0 9.85,-2.09 12.2,-6.23 1.29,-2.31 2.34,-5.95 3.08,-10.86 0.81,-5.38 1.23,-12.18 1.23,-20.33l0 -86.05c0,-8.17 -0.42,-14.96 -1.23,-20.34 -0.74,-4.9 -1.79,-8.53 -3.08,-10.84 -1.15,-2.01 -2.65,-3.55 -4.48,-4.54 -2.03,-1.1 -4.62,-1.65 -7.72,-1.65l-4.3 0 -1.53 -4.63c-0.83,-2.5 -1.54,-5.11 -2.08,-7.79 -0.53,-2.58 -0.91,-5.3 -1.16,-8.12l-0.54 -8.42 -0.19 -9.51 0 -7.51 18.59 0.95 29.36 0.85 16.28 0.1 15.41 -0.1 28.08 -0.85 18.09 -0.97 0 7.53 -0.2 9.51c-0.12,3.08 -0.31,5.91 -0.54,8.42 -0.25,2.82 -0.64,5.54 -1.17,8.12 -0.54,2.67 -1.23,5.28 -2.06,7.79l-1.55 4.63 -4.29 0c-2.93,0 -5.35,0.53 -7.24,1.59 -1.72,0.96 -3.12,2.45 -4.2,4.46 -1.29,2.33 -2.3,5.98 -3.01,10.92 -0.78,5.36 -1.17,12.17 -1.17,20.4l0 46.94 67.46 -66.29c-0.4,-3.15 -0.94,-5.89 -1.62,-8.2 -0.78,-2.64 -1.71,-4.63 -2.78,-5.91 -1.02,-1.22 -2.31,-2.17 -3.85,-2.82 -1.7,-0.72 -3.75,-1.09 -6.12,-1.09l-4.25 0 -1.55 -4.6c-0.88,-2.6 -1.6,-5.21 -2.13,-7.79 -0.53,-2.59 -0.94,-5.31 -1.21,-8.15 -0.21,-2.59 -0.4,-5.41 -0.5,-8.45l-0.19 -9.48 0 -7.53 18.07 0.97 28.06 0.85 15.45 0.1 16.24 -0.1 29.37 -0.85 18.62 -0.95 0 7.51 -0.2 9.48c-0.11,3.09 -0.3,5.93 -0.53,8.45 -0.26,2.86 -0.65,5.58 -1.18,8.15 -0.54,2.62 -1.26,5.24 -2.12,7.79l-1.57 4.6 -4.24 0c-3.1,0 -5.68,0.55 -7.71,1.65 -1.81,0.99 -3.31,2.52 -4.45,4.54 -1.32,2.35 -2.37,5.96 -3.12,10.83 -0.82,5.39 -1.24,12.19 -1.24,20.35l0 86.05c0,15.63 1.46,26.07 4.36,31.16 1.13,2.04 2.64,3.58 4.48,4.59 2.03,1.11 4.59,1.67 7.68,1.67l4.23 0 1.58 4.56c0.82,2.41 1.52,5.02 2.09,7.77 0.56,2.57 0.95,5.31 1.21,8.13 0.23,2.54 0.42,5.39 0.53,8.48l0.2 9.44 0 7.43 -32.09 -1.32 -16.03 -0.36 -16.11 -0.09 -15.45 0.09 -15.17 0.36 -30.96 1.33 0 -7.44c0,-6.53 0.23,-12.5 0.69,-17.87 0.25,-2.77 0.68,-5.51 1.25,-8.23 0.57,-2.73 1.27,-5.31 2.09,-7.72l1.55 -4.56 4.25 0c5.4,0 9.21,-2.05 11.41,-6.11 1.29,-2.31 2.29,-5.98 3.01,-10.91 0.78,-5.38 1.17,-12.2 1.17,-20.4l0 -47.43 -67.48 66.3c0.38,3.36 0.91,6.27 1.59,8.7 0.75,2.72 1.65,4.73 2.66,5.97 0.99,1.23 2.22,2.15 3.72,2.78 1.72,0.72 3.89,1.1 6.45,1.1l4.29 0 1.55 4.62c0.82,2.49 1.52,5.1 2.07,7.77 0.52,2.63 0.91,5.33 1.15,8.07 0.24,2.53 0.43,5.37 0.55,8.44l0.2 9.48 0 7.44 -30.98 -1.33 -15.19 -0.36 -15.41 -0.09 -16.15 0.09 -16.01 0.36 -32.07 1.32 0 -7.43zm12.63 -8.8l-0.04 1.37 19.1 -0.74 16.25 -0.37 16.29 -0.16 15.56 0.16 15.4 0.37 18.02 0.73 -0.05 -1.36c-0.09,-2.64 -0.26,-5.19 -0.49,-7.61 -0.19,-2.17 -0.5,-4.27 -0.9,-6.32l-0.36 -1.62c-2.2,-0.32 -4.24,-0.88 -6.14,-1.67 -3.42,-1.42 -6.3,-3.62 -8.62,-6.54 -2.24,-2.81 -4.03,-6.6 -5.35,-11.35 -1.18,-4.25 -2,-9.37 -2.48,-15.35l-0.29 -3.68 93.03 -91.41 0 78.55c0,8.84 -0.45,16.43 -1.38,22.75 -0.97,6.73 -2.55,12.11 -4.72,16.1 -3.91,7.24 -9.72,11.45 -17.43,12.6l-0.35 1.56c-0.41,2 -0.74,4.13 -0.95,6.38 -0.23,2.68 -0.39,5.67 -0.49,8.97l17.98 -0.73 15.4 -0.37 15.6 -0.16 16.26 0.16 16.22 0.37 19.16 0.74 -0.05 -1.4c-0.09,-2.61 -0.26,-5.16 -0.49,-7.58 -0.19,-2.13 -0.5,-4.25 -0.93,-6.34l-0.34 -1.59c-3.09,-0.45 -5.91,-1.38 -8.46,-2.77 -3.96,-2.15 -7.15,-5.39 -9.59,-9.69 -4.27,-7.49 -6.41,-20.54 -6.41,-39l0 -86.05c0,-8.91 0.49,-16.52 1.45,-22.81 1.04,-6.82 2.7,-12.24 4.96,-16.19 2.43,-4.28 5.64,-7.51 9.59,-9.67 2.55,-1.38 5.36,-2.29 8.44,-2.73l0.36 -1.64c0.43,-2.13 0.75,-4.25 0.93,-6.33 0.23,-2.45 0.4,-4.98 0.49,-7.6l0.05 -1.39c-11.75,0.51 -23.5,0.8 -35.25,1.1l-16.39 0.16 -15.6 -0.16c-11.13,-0.3 -22.26,-0.58 -33.39,-1.08l0.49 8.92c0.21,2.12 0.53,4.24 0.97,6.35l0.37 1.68c2.09,0.32 4.05,0.88 5.87,1.66 3.27,1.38 6.11,3.53 8.48,6.36 2.36,2.82 4.25,6.6 5.62,11.28 1.22,4.17 2.09,9.2 2.58,15.03l0.3 3.69 -93.03 91.42 0 -78.05c0,-8.85 0.46,-16.45 1.37,-22.76 0.98,-6.72 2.56,-12.09 4.72,-16.06 2.31,-4.32 5.41,-7.58 9.28,-9.77 2.45,-1.4 5.18,-2.33 8.13,-2.79l0.37 -1.66c0.42,-2.08 0.74,-4.2 0.92,-6.33 0.23,-2.45 0.4,-4.98 0.49,-7.6l0.05 -1.37c-11.14,0.5 -22.28,0.78 -33.42,1.08l-15.56 0.16 -16.43 -0.16c-11.74,-0.3 -23.47,-0.59 -35.21,-1.09l0.53 8.93c0.18,2.18 0.5,4.3 0.92,6.38l0.36 1.64c3.08,0.44 5.89,1.35 8.43,2.73 3.97,2.16 7.19,5.4 9.62,9.7 2.24,3.97 3.89,9.38 4.93,16.18 0.95,6.31 1.44,13.92 1.44,22.79l0 86.05c0,8.86 -0.49,16.47 -1.44,22.76 -1.04,6.82 -2.69,12.25 -4.93,16.22 -4.07,7.2 -10.09,11.36 -18.06,12.48l-0.35 1.6c-0.42,2.08 -0.74,4.19 -0.92,6.28l-0.49 7.66zm397.01 4.12l-54.36 -136.25 -6.12 52.99c-1.14,7.89 -1.89,14.81 -2.24,20.73 -0.35,5.69 -0.32,10.4 0.07,14.09 0.36,3.33 0.97,6.02 1.82,8.02 0.62,1.49 1.38,2.56 2.24,3.19 1.34,0.99 2.96,1.78 4.87,2.35 2.15,0.64 4.65,1.05 7.47,1.21l4.04 0.23 1.47 4.3c0.84,2.48 1.55,5.13 2.11,7.93 0.55,2.71 0.96,5.58 1.22,8.56l0.51 8.49 0.19 8.84 0 8.04 -6.96 -0.92 -8.05 -0.81 -9.01 -0.44c-13.8,-0.26 -27.43,-0.22 -41.23,0l-11.04 0.45c-3.55,0.2 -6.78,0.48 -9.67,0.8l-6.83 0.77 0 -7.89 0.19 -9.09 0.51 -8.46c0.27,-2.95 0.67,-5.75 1.2,-8.39 0.56,-2.73 1.27,-5.37 2.13,-7.88l1.48 -4.36 4.11 -0.17c3.29,-0.14 6.13,-0.98 8.46,-2.5 2.29,-1.48 4.23,-3.71 5.82,-6.67 1.84,-3.42 3.53,-8.45 5.04,-15.04 1.6,-6.99 2.97,-15.6 4.11,-25.8l8.05 -81.06c0.83,-7.44 1.07,-13.55 0.74,-18.28 -0.27,-3.67 -0.81,-6.11 -1.62,-7.24 -0.83,-1.2 -2.29,-2.17 -4.35,-2.89 -2.62,-0.92 -6.11,-1.39 -10.43,-1.39l-4.25 0 -1.56 -4.6c-0.87,-2.57 -1.59,-5.21 -2.12,-7.88 -0.54,-2.66 -0.93,-5.45 -1.17,-8.34 -0.24,-2.63 -0.43,-5.46 -0.55,-8.45l-0.19 -9.2 0 -7.47c14.16,0.72 28.26,1.29 42.42,1.75 19.24,0.21 38.28,-0.69 57.49,-0.94l51.19 128.54 49.13 -128.53c16.85,0.18 33.66,0.91 50.49,1.07l9.44 -0.14c13.67,-0.48 27.29,-1.06 40.95,-1.75l0 7.47c0,6.84 -0.32,13.11 -0.95,18.75 -0.65,5.74 -1.65,10.74 -2.99,14.98l-1.49 4.74 -4.37 0c-7.9,0 -12.79,1.58 -14.69,4.74 -2.25,3.84 -2.74,12.4 -1.45,25.62l9.83 91.84c0.57,6.2 1.2,11.65 1.89,16.32 0.65,4.45 1.37,8.13 2.12,10.99 0.63,2.38 1.37,4.31 2.22,5.72 0.67,1.09 1.39,1.88 2.16,2.36 1.24,0.79 2.73,1.44 4.46,1.95 2.02,0.58 4.36,1.05 7.02,1.35l3.84 0.45 1.38 4.12c0.81,2.45 1.52,5.13 2.07,7.98 0.53,2.68 0.93,5.52 1.16,8.45 0.5,5.66 0.74,11.45 0.74,17.33l0 8.19 -7.08 -1.09 -3.92 -0.38c-24.28,-1.13 -48.34,-1.14 -72.63,-0.97 -14.82,0.36 -29.63,0.94 -44.44,0.94l0 -7.18 0.21 -9.35 0.52 -8.08c0.27,-2.67 0.67,-5.3 1.21,-7.89 0.54,-2.58 1.22,-5.19 2.02,-7.78l1.34 -4.36 4 -0.4c3.23,-0.32 5.93,-0.77 8.04,-1.31 1.91,-0.5 3.43,-1.09 4.52,-1.75l0.07 -0.03c0.47,-0.28 0.88,-0.77 1.19,-1.4 0.5,-1.01 0.87,-2.48 1.07,-4.35 0.26,-2.52 0.33,-5.72 0.19,-9.56 -0.14,-3.94 -0.52,-8.82 -1.12,-14.59l-7.5 -70.25 -53.6 137.32 -2.76 0.93c-1.73,0.57 -3.72,1.06 -5.93,1.46 -1.96,0.38 -4.23,0.66 -6.81,0.83l-6.79 0.39 -10.28 0.18 -1.68 -4.2zm-52.04 -164.75l61.66 154.54 8.34 -0.44c2,-0.14 3.91,-0.39 5.72,-0.7l1.65 -0.3 69.47 -178.04 12.94 121.28c0.62,5.85 1.02,11.13 1.18,15.78 0.17,4.79 0.09,8.76 -0.25,11.87 -0.39,3.72 -1.27,6.95 -2.62,9.67 -1.51,3.05 -3.6,5.42 -6.25,7.01 -2,1.23 -4.56,2.26 -7.64,3.04 -1.7,0.45 -3.54,0.82 -5.52,1.12l-0.46 2.07c-0.43,2.11 -0.76,4.18 -0.96,6.18l-0.53 8.64 31.69 -0.83c23.81,-0.28 47.35,-0.04 71.14,0.83l-0.49 -8.22c-0.18,-2.34 -0.49,-4.59 -0.92,-6.72l-0.45 -2.05c-1.71,-0.31 -3.32,-0.69 -4.81,-1.13 -2.82,-0.84 -5.27,-1.92 -7.3,-3.2 -2.51,-1.55 -4.69,-3.85 -6.49,-6.87 -1.58,-2.67 -2.89,-5.89 -3.88,-9.63 -0.89,-3.3 -1.72,-7.57 -2.48,-12.76 -0.71,-4.81 -1.38,-10.55 -1.98,-17.13l-9.85 -91.69c-1.63,-16.85 -0.46,-28.63 3.51,-35.39 3.84,-6.41 10.61,-10.03 20.35,-10.88 0.48,-2.24 0.87,-4.71 1.17,-7.41 0.32,-2.84 0.55,-5.98 0.68,-9.42 -9.35,0.46 -18.71,0.77 -28.07,1.09l-9.69 0.17c-14.12,-0.21 -28.25,-0.88 -42.37,-1.02l-57.01 149.14 -59.39 -149.13c-13.22,0.14 -26.46,0.85 -39.71,0.98l-10.07 -0.14c-9.85,-0.32 -19.72,-0.61 -29.57,-1.09l0.53 8.71c0.19,2.27 0.5,4.45 0.92,6.55l0.34 1.55c3.56,0.28 6.74,0.92 9.52,1.89 4.48,1.58 7.94,4.09 10.36,7.5 2.46,3.42 3.93,8.48 4.41,15.14 0.4,5.58 0.13,12.65 -0.81,21.14l-8.05 81.06c-1.21,10.9 -2.7,20.16 -4.42,27.73 -1.83,8.01 -4,14.34 -6.5,18.95 -2.71,5 -6.15,8.88 -10.32,11.58 -2.92,1.89 -6.16,3.18 -9.71,3.85l-0.42 1.87c-0.43,2.13 -0.75,4.32 -0.95,6.54l-0.49 8.39 14.74 -0.66c13.94,-0.23 27.71,-0.25 41.64,0l11.18 0.57 -0.47 -8.08c-0.21,-2.34 -0.54,-4.62 -0.97,-6.78l-0.4 -1.78c-2.03,-0.28 -3.92,-0.7 -5.68,-1.23 -3.2,-0.96 -6.02,-2.33 -8.43,-4.1 -2.85,-2.06 -5.12,-5.1 -6.79,-9.06 -1.45,-3.44 -2.45,-7.61 -2.98,-12.5 -0.47,-4.54 -0.52,-10.13 -0.12,-16.78 0.38,-6.27 1.17,-13.61 2.38,-21.98l11.75 -101.85 9 22.56zm377.12 179.7c-13.04,0 -24.96,-1.39 -35.74,-4.18 -10.88,-2.81 -20.54,-7.06 -28.98,-12.73 -8.37,-5.63 -15.69,-12.33 -21.93,-20.06 -6.23,-7.71 -11.36,-16.51 -15.38,-26.35 -3.92,-9.6 -6.86,-19.81 -8.82,-30.57 -1.96,-10.74 -2.94,-21.98 -2.94,-33.68 0,-12.53 1.11,-24.44 3.3,-35.72 2.2,-11.31 5.51,-21.87 9.89,-31.58 4.42,-9.8 9.83,-18.59 16.18,-26.34 6.33,-7.73 13.63,-14.42 21.88,-20.08 8.27,-5.65 17.29,-9.89 27.02,-12.7 9.66,-2.79 20.01,-4.19 31.03,-4.19 22.55,0 41.13,5.05 55.65,15.12 7.27,5.05 13.66,11.13 19.12,18.19 5.43,7.02 9.91,15.02 13.42,23.96 3.46,8.72 6.18,18 8.13,27.77 1.93,9.74 3.14,20.05 3.6,30.9l0.04 1.01 -0.21 1.01c-1.17,5.54 -2.83,10.6 -4.93,15.13 -2.15,4.65 -4.79,8.78 -7.92,12.35l-1.84 2.1 -35.68 0.22 -42.33 0.78c-7.35,0.16 -14.73,0.43 -22.13,0.77l-14.62 0.79c1.13,6.37 2.68,12.31 4.64,17.81 2.7,7.56 6.2,14.39 10.48,20.43 4.02,5.59 9.15,9.83 15.36,12.64 6.51,2.94 14.29,4.43 23.32,4.43 4.77,0 9.49,-0.49 14.12,-1.46 4.69,-0.98 9.47,-2.5 14.3,-4.52 4.74,-1.93 9.07,-4.29 13.02,-7.01 3.89,-2.68 7.38,-5.74 10.45,-9.11l3.13 -3.42 3.9 2.2c2.26,1.27 4.34,3.14 6.17,5.56 1.65,2.14 3.16,4.81 4.5,7.91 1.31,3.06 2.31,6.11 2.97,9.18 0.68,3.16 1.03,6.29 1.03,9.37l0 2.99 -1.9 2.14c-11.63,13.01 -25.13,22.77 -40.44,29.26 -15.19,6.45 -32.17,9.68 -50.86,9.68zm-33.01 -18.13c9.73,2.52 20.74,3.77 33.01,3.77 17.24,0 32.78,-2.93 46.57,-8.78 12.76,-5.4 24.11,-13.35 33.98,-23.82l-0.49 -3.06c-0.43,-2.02 -1.11,-4.11 -2.03,-6.22 -0.67,-1.55 -1.39,-2.91 -2.13,-4.02 -2.62,2.44 -5.42,4.7 -8.41,6.77 -4.57,3.15 -9.65,5.9 -15.2,8.19 -5.41,2.27 -10.88,3.99 -16.36,5.14 -5.55,1.16 -11,1.74 -16.32,1.74 -10.59,0 -19.9,-1.82 -27.89,-5.44 -8.25,-3.75 -15.1,-9.4 -20.44,-16.91 -5.06,-7.15 -9.18,-15.18 -12.35,-24.06 -3.14,-8.82 -5.35,-18.49 -6.6,-28.98l-0.92 -7.64 6.73 -0.46c6.96,-0.47 14.23,-0.9 21.8,-1.25 7.24,-0.33 14.71,-0.6 22.37,-0.76 24.35,-0.52 48.65,-0.84 73.01,-1.06 1.53,-2.07 2.88,-4.35 4.03,-6.83 1.48,-3.21 2.69,-6.81 3.59,-10.78 -0.45,-9.6 -1.55,-18.73 -3.26,-27.36 -1.76,-8.87 -4.21,-17.24 -7.32,-25.05 -3.03,-7.67 -6.83,-14.47 -11.41,-20.4 -4.58,-5.92 -10.01,-11.07 -16.23,-15.39 -12.51,-8.68 -28.95,-13.04 -49.21,-13.04 -10.07,0 -19.41,1.26 -28.01,3.74 -8.55,2.46 -16.47,6.18 -23.67,11.1 -7.22,4.95 -13.62,10.81 -19.17,17.59 -5.53,6.74 -10.26,14.46 -14.18,23.11 -3.93,8.71 -6.88,18.09 -8.82,28.09 -1.96,10.06 -2.95,20.95 -2.95,32.63 0,10.84 0.89,21.1 2.64,30.76 1.75,9.61 4.4,18.77 7.92,27.44 3.43,8.44 7.85,16.01 13.23,22.71 5.36,6.67 11.75,12.5 19.08,17.43 7.29,4.91 15.78,8.62 25.41,11.1zm27.63 -193.91c-4.13,0 -7.89,1.09 -11.27,3.28 -3.52,2.27 -6.79,5.82 -9.76,10.6 -3,4.86 -5.37,11.41 -7.07,19.63 -1.43,6.88 -2.39,14.83 -2.87,23.82l58.53 0c-0.24,-8.11 -0.91,-15.42 -2.01,-21.9 -1.35,-8.12 -3.38,-14.96 -6.02,-20.52 -2.49,-5.16 -5.37,-8.99 -8.64,-11.43 -3.1,-2.31 -6.75,-3.48 -10.89,-3.48zm-17.37 -9.21c5.3,-3.44 11.11,-5.15 17.37,-5.15 6.57,0 12.48,1.95 17.68,5.84 5.04,3.77 9.31,9.29 12.77,16.54 3.29,6.93 5.75,15.16 7.36,24.72 1.57,9.33 2.36,19.94 2.36,31.77l0 7.17 -84.04 0 0.18 -7.37c0.31,-13.2 1.46,-24.58 3.44,-34.11 2.08,-10.02 5.11,-18.23 9.04,-24.62 4.06,-6.53 8.67,-11.45 13.84,-14.79zm136.47 210.98l0.2 -9.44c0.12,-3.07 0.31,-5.9 0.54,-8.45 0.24,-2.86 0.64,-5.59 1.17,-8.16 0.55,-2.67 1.26,-5.27 2.12,-7.77l1.56 -4.56 4.25 0c6.45,0 11,-2.15 13.61,-6.43 1.42,-2.34 2.54,-5.91 3.33,-10.72 0.88,-5.34 1.33,-12.11 1.33,-20.27l0 -86.05c0,-8.14 -0.44,-14.91 -1.33,-20.24 -0.79,-4.83 -1.9,-8.4 -3.33,-10.72 -1.24,-2.06 -2.92,-3.63 -4.99,-4.67 -2.3,-1.16 -5.18,-1.74 -8.62,-1.74l-4.25 0 -1.56 -4.6c-0.87,-2.55 -1.58,-5.17 -2.11,-7.79 -0.54,-2.56 -0.93,-5.29 -1.18,-8.15 -0.23,-2.52 -0.42,-5.35 -0.54,-8.45l-0.2 -9.48 0 -7.5 19.11 0.94 30.22 0.85 16.7 0.1 15.82 -0.1 28.56 -0.85 18.52 -0.95 0 7.51 -0.19 9.48c-0.12,3.09 -0.3,5.93 -0.54,8.45 -0.25,2.86 -0.65,5.58 -1.18,8.15 -0.54,2.62 -1.26,5.24 -2.12,7.79l-1.56 4.6 -4.25 0c-3.26,0 -5.97,0.56 -8.07,1.68 -1.87,0.99 -3.38,2.51 -4.52,4.51 -1.32,2.36 -2.36,5.96 -3.09,10.8 -0.81,5.38 -1.23,12.19 -1.23,20.38l0 18.43 68.68 0 0 -18.43c0,-8.17 -0.42,-14.96 -1.24,-20.34 -0.74,-4.9 -1.78,-8.53 -3.08,-10.84 -1.14,-2.03 -2.64,-3.56 -4.46,-4.54 -2.02,-1.1 -4.6,-1.65 -7.7,-1.65l-4.25 0 -1.56 -4.6c-0.86,-2.55 -1.58,-5.17 -2.11,-7.79 -0.54,-2.58 -0.94,-5.32 -1.19,-8.2l-0.53 -8.61 -0.2 -9.27 0 -7.53 18.15 0.97 28.6 0.85 16.16 0.1 16.7 -0.1 30.17 -0.85 18.69 -0.95 0 7.51 -0.2 9.48c-0.11,3.07 -0.28,5.9 -0.5,8.42 -0.24,2.77 -0.65,5.52 -1.21,8.17 -0.52,2.65 -1.23,5.25 -2.06,7.77l-1.55 4.63 -4.28 0c-3.47,0 -6.34,0.58 -8.59,1.72 -2,1.03 -3.6,2.57 -4.78,4.58 -1.38,2.35 -2.46,5.95 -3.22,10.76 -0.83,5.3 -1.26,12.09 -1.26,20.31l0 86.05c0,8.2 0.43,14.99 1.27,20.31 0.75,4.81 1.84,8.43 3.21,10.77 1.2,2.05 2.81,3.59 4.8,4.61 2.24,1.14 5.11,1.73 8.57,1.73l4.28 0 1.55 4.62c0.83,2.51 1.54,5.12 2.09,7.82 0.53,2.54 0.93,5.25 1.18,8.07 0.22,2.56 0.4,5.39 0.5,8.43l0.2 9.44 0 7.43 -32.51 -1.32 -16.35 -0.36 -16.7 -0.09 -16.04 0.09 -15.65 0.36 -31.22 1.33 0 -7.44 0.2 -9.22 0.53 -8.65c0.25,-2.85 0.65,-5.6 1.18,-8.18 0.59,-2.75 1.29,-5.36 2.12,-7.77l1.56 -4.56 4.25 0c5.77,0 9.82,-2.08 12.16,-6.23 1.3,-2.31 2.34,-5.95 3.08,-10.86 0.82,-5.38 1.24,-12.18 1.24,-20.33l0 -24.55 -13.44 0.14 -21.84 0.56c-7.36,0.24 -14.41,0.62 -21.11,1.11l-12.29 1.06 0 21.68c0,8.18 0.42,14.98 1.23,20.37 0.73,4.84 1.77,8.46 3.09,10.79 1.14,2.04 2.66,3.57 4.52,4.56 2.11,1.13 4.81,1.7 8.07,1.7l4.24 0 1.57 4.56c0.83,2.41 1.53,5.02 2.1,7.77 0.55,2.57 0.95,5.31 1.2,8.13 0.24,2.54 0.42,5.39 0.54,8.48l0.19 9.44 0 7.44 -31.65 -1.33 -15.43 -0.36 -15.82 -0.09 -16.57 0.09 -16.44 0.36 -33.02 1.31 0 -7.42zm12.64 -8.83l-0.04 1.41 20.03 -0.75 16.68 -0.37 16.72 -0.16 15.97 0.16 15.62 0.37 18.72 0.73 -0.04 -1.39c-0.1,-2.61 -0.27,-5.16 -0.5,-7.58 -0.18,-2.13 -0.5,-4.25 -0.93,-6.34l-0.33 -1.58c-3.21,-0.44 -6.13,-1.35 -8.75,-2.75 -4.04,-2.16 -7.29,-5.42 -9.73,-9.72 -2.26,-3.95 -3.91,-9.39 -4.95,-16.22 -0.95,-6.31 -1.43,-13.92 -1.43,-22.78l0 -34.59 5.6 -0.69c5.58,-0.68 11.72,-1.28 18.41,-1.75 6.43,-0.46 13.63,-0.84 21.55,-1.11l21.99 -0.56 26.13 -0.22 0 38.92c0,8.86 -0.49,16.47 -1.44,22.76 -1.03,6.82 -2.69,12.25 -4.93,16.22 -4.07,7.21 -10.07,11.38 -18.06,12.49l-0.35 1.57c-0.41,2.1 -0.73,4.22 -0.91,6.32l-0.53 9 18.23 -0.73 15.89 -0.37 16.19 -0.16 16.85 0.16 16.54 0.37 19.58 0.74 -0.05 -1.4c-0.09,-2.67 -0.26,-5.23 -0.46,-7.63 -0.18,-2.02 -0.49,-4.09 -0.92,-6.17l-0.37 -1.69c-3.31,-0.43 -6.34,-1.34 -9.06,-2.74 -4.18,-2.15 -7.56,-5.37 -10.07,-9.65 -2.31,-3.95 -4.03,-9.39 -5.11,-16.26 -1.01,-6.37 -1.52,-14 -1.52,-22.83l0 -86.05c0,-8.84 0.51,-16.47 1.51,-22.84 1.09,-6.86 2.81,-12.29 5.12,-16.24 2.53,-4.31 5.9,-7.54 10.08,-9.65 2.73,-1.37 5.75,-2.28 9.04,-2.71l0.36 -1.63c0.44,-2.02 0.75,-4.13 0.94,-6.3l0.51 -8.99c-12.04,0.52 -24.08,0.8 -36.12,1.1l-16.85 0.16 -16.31 -0.16c-11.34,-0.3 -22.67,-0.58 -34,-1.08l0.53 8.97c0.18,2.08 0.49,4.19 0.93,6.3l0.36 1.66c3.08,0.45 5.9,1.36 8.44,2.74 3.96,2.16 7.17,5.4 9.59,9.7 2.24,3.97 3.9,9.38 4.93,16.18 0.95,6.31 1.44,13.92 1.44,22.79l0 32.79 -93.68 0 0 -32.79c0,-8.89 0.48,-16.5 1.43,-22.79 1.04,-6.84 2.69,-12.25 4.94,-16.21 2.45,-4.29 5.7,-7.54 9.74,-9.69 2.62,-1.39 5.53,-2.3 8.73,-2.74l0.35 -1.61c0.44,-2.13 0.75,-4.25 0.93,-6.33 0.23,-2.45 0.4,-4.98 0.5,-7.6l0.04 -1.38c-11.45,0.49 -22.89,0.79 -34.34,1.09l-15.97 0.16 -16.85 -0.16c-12.2,-0.3 -24.39,-0.6 -36.58,-1.11l0.04 1.4c0.1,2.61 0.27,5.15 0.49,7.55 0.18,2.14 0.49,4.25 0.93,6.35l0.35 1.62c3.32,0.43 6.35,1.33 9.08,2.7 4.15,2.09 7.54,5.29 10.15,9.57 2.45,3.96 4.25,9.39 5.38,16.25 1.07,6.35 1.59,14 1.59,22.93l0 86.05c0,8.91 -0.53,16.55 -1.58,22.9 -1.13,6.86 -2.94,12.32 -5.38,16.3 -4.37,7.14 -10.8,11.24 -19.25,12.3l-0.34 1.53c-0.44,2.13 -0.75,4.23 -0.93,6.31 -0.22,2.44 -0.39,5 -0.49,7.63zm277.77 8.83l0.19 -9.44c0.12,-3.06 0.31,-5.89 0.54,-8.45 0.24,-2.83 0.64,-5.52 1.17,-8.05 0.59,-2.78 1.31,-5.41 2.11,-7.82l1.53 -4.62 4.3 0c5.74,0 9.81,-2.09 12.16,-6.23 1.32,-2.36 2.36,-5.98 3.09,-10.82 0.82,-5.41 1.23,-12.22 1.23,-20.37l0 -86.05c0,-8.17 -0.41,-14.97 -1.23,-20.35 -0.73,-4.87 -1.77,-8.47 -3.09,-10.8 -1.14,-2.05 -2.65,-3.58 -4.47,-4.57 -2.03,-1.1 -4.61,-1.65 -7.69,-1.65l-4.3 0 -1.53 -4.63c-0.84,-2.51 -1.55,-5.12 -2.09,-7.76 -0.53,-2.56 -0.94,-5.29 -1.18,-8.15l-0.55 -8.42 -0.19 -9.51 0 -7.51 18.62 0.95 29.35 0.85 16.26 0.1 15.43 -0.1 28.06 -0.85 18.09 -0.97 0 7.53 -0.19 9.48c-0.13,3.09 -0.31,5.92 -0.55,8.45 -0.25,2.82 -0.63,5.54 -1.16,8.12 -0.54,2.67 -1.24,5.28 -2.07,7.79l-1.54 4.63 -4.29 0c-2.93,0 -5.36,0.53 -7.24,1.59 -1.73,0.96 -3.13,2.45 -4.21,4.46 -1.27,2.38 -2.28,6.03 -2.99,10.93 -0.79,5.37 -1.19,12.17 -1.19,20.39l0 46.94 67.46 -66.28c-0.4,-3.15 -0.94,-5.9 -1.61,-8.2 -0.77,-2.65 -1.71,-4.65 -2.78,-5.94 -1.05,-1.22 -2.33,-2.16 -3.83,-2.8 -1.72,-0.72 -3.77,-1.09 -6.14,-1.09l-4.25 0 -1.56 -4.6c-0.86,-2.55 -1.58,-5.17 -2.11,-7.79 -0.54,-2.56 -0.93,-5.29 -1.18,-8.15l-0.55 -8.42 -0.19 -9.51 0 -7.53 18.07 0.97 28.06 0.85 15.45 0.1 16.25 -0.1 29.35 -0.85 18.63 -0.95 0 7.51 -0.19 9.48c-0.12,3.09 -0.3,5.93 -0.54,8.45 -0.25,2.83 -0.65,5.55 -1.17,8.12 -0.54,2.67 -1.24,5.28 -2.07,7.79l-1.54 4.63 -4.29 0c-3.11,0 -5.71,0.55 -7.73,1.65 -1.82,0.98 -3.33,2.52 -4.47,4.54 -1.3,2.31 -2.34,5.94 -3.08,10.84 -0.82,5.38 -1.24,12.17 -1.24,20.34l0 86.05c0,8.15 0.42,14.95 1.24,20.33 0.74,4.91 1.78,8.55 3.08,10.86 1.15,2.03 2.65,3.56 4.47,4.56 2.03,1.11 4.62,1.67 7.73,1.67l4.28 0 1.55 4.62c0.83,2.49 1.53,5.09 2.07,7.76 0.53,2.62 0.93,5.32 1.16,8.08 0.25,2.54 0.43,5.39 0.55,8.48l0.19 9.44 0 7.43 -32.12 -1.32 -15.86 -0.36 -16.25 -0.09 -15.45 0.09 -15.16 0.36 -30.97 1.33 0 -7.44 0.19 -9.44c0.12,-3.06 0.31,-5.89 0.54,-8.45 0.25,-2.83 0.65,-5.58 1.18,-8.16 0.59,-2.75 1.29,-5.36 2.12,-7.77l1.56 -4.56 4.25 0c5.4,0 9.23,-2.04 11.41,-6.09 1.28,-2.33 2.29,-6 3,-10.93 0.78,-5.38 1.17,-12.2 1.17,-20.4l0 -47.43 -67.48 66.3c0.38,3.34 0.92,6.23 1.59,8.65 0.76,2.73 1.67,4.78 2.69,6.05 0.96,1.2 2.19,2.12 3.69,2.75 1.73,0.72 3.89,1.1 6.46,1.1l4.28 0 1.55 4.62c0.83,2.49 1.53,5.1 2.07,7.77 0.53,2.63 0.92,5.33 1.15,8.07 0.25,2.55 0.43,5.39 0.56,8.44l0.19 9.48 0 7.44 -30.98 -1.33 -15.29 -0.36 -15.31 -0.09 -16.14 0.09 -16.01 0.36 -32.08 1.32 0 -7.43zm12.63 -8.8l-0.04 1.37 19.11 -0.74 16.24 -0.37 16.29 -0.16 15.45 0.16 15.52 0.37 18.02 0.73 -0.55 -8.97c-0.18,-2.17 -0.49,-4.27 -0.9,-6.32l-0.36 -1.62c-2.19,-0.32 -4.24,-0.88 -6.13,-1.67 -3.43,-1.42 -6.3,-3.62 -8.62,-6.54 -2.24,-2.8 -4.03,-6.61 -5.35,-11.4 -1.18,-4.23 -2.02,-9.35 -2.48,-15.3l-0.3 -3.68c31.07,-30.39 62.03,-60.93 93.04,-91.41l0 78.55c0,8.84 -0.46,16.43 -1.38,22.75 -0.98,6.72 -2.56,12.1 -4.72,16.08 -3.87,7.25 -9.72,11.46 -17.43,12.61l-0.36 1.6c-0.41,2.1 -0.73,4.22 -0.91,6.32l-0.54 9 17.99 -0.73 15.41 -0.37 15.59 -0.16 16.4 0.16 16.05 0.37 19.19 0.74 -0.04 -1.4c-0.1,-2.61 -0.27,-5.16 -0.5,-7.58 -0.18,-2.17 -0.5,-4.28 -0.91,-6.33l-0.36 -1.61c-3.08,-0.45 -5.9,-1.37 -8.45,-2.76 -3.97,-2.16 -7.17,-5.42 -9.6,-9.71 -2.24,-3.97 -3.9,-9.4 -4.93,-16.19 -0.95,-6.32 -1.44,-13.93 -1.44,-22.79l0 -86.05c0,-8.87 0.49,-16.48 1.44,-22.77 1.03,-6.82 2.69,-12.23 4.93,-16.2 2.43,-4.3 5.64,-7.54 9.6,-9.7 2.54,-1.38 5.35,-2.29 8.44,-2.73l0.36 -1.64c0.42,-2.08 0.74,-4.21 0.92,-6.33 0.23,-2.45 0.4,-4.98 0.5,-7.6l0.04 -1.39c-11.75,0.51 -23.49,0.8 -35.24,1.1l-16.4 0.16 -15.59 -0.16c-11.14,-0.3 -22.27,-0.58 -33.4,-1.08l0.54 8.92c0.18,2.13 0.49,4.24 0.93,6.35l0.36 1.68c2.1,0.32 4.05,0.88 5.88,1.66 3.28,1.4 6.13,3.53 8.49,6.33 2.38,2.87 4.24,6.64 5.61,11.32 1.22,4.18 2.09,9.2 2.57,15.02l0.31 3.69 -93.04 91.42 0 -78.05c0,-8.85 0.47,-16.44 1.39,-22.74 0.99,-6.79 2.57,-12.18 4.69,-16.11 2.34,-4.3 5.43,-7.56 9.3,-9.74 2.45,-1.4 5.17,-2.33 8.13,-2.79l0.37 -1.66c0.42,-2.08 0.74,-4.2 0.91,-6.33l0.55 -8.97c-11.14,0.5 -22.27,0.78 -33.41,1.08l-15.58 0.16 -16.41 -0.16c-11.75,-0.3 -23.49,-0.59 -35.23,-1.1l0.54 8.94c0.18,2.13 0.5,4.24 0.94,6.35l0.36 1.67c3.07,0.44 5.87,1.35 8.41,2.73 3.95,2.16 7.17,5.38 9.6,9.68 2.26,3.94 3.91,9.35 4.94,16.18 0.97,6.29 1.44,13.9 1.44,22.81l0 86.05c0,8.89 -0.47,16.5 -1.43,22.81 -1.04,6.82 -2.69,12.25 -4.94,16.2 -4.08,7.18 -10.11,11.34 -18.04,12.46l-0.39 1.68c-0.4,2.09 -0.71,4.16 -0.89,6.19l-0.5 7.66zm527.01 -344.95l102.16 263.76c2.98,7.7 5.67,14.38 8.05,19.95 2.32,5.47 4.47,10.16 6.4,13.96 1.77,3.57 3.48,6.52 5.09,8.86 1.45,2.12 2.85,3.74 4.13,4.85 1.29,1.09 2.67,1.99 4.11,2.65 1.53,0.67 3.16,1.16 4.87,1.42l4.04 0.63 1.13 4.51c1.11,4.44 1.96,9.48 2.51,15.08 0.55,5.53 0.83,11.58 0.83,18.08l0 7.6 -14.71 -0.88c-37.03,-1.12 -72.32,-1.05 -109.38,0l-14.63 0.9 0 -7.62c0,-6.83 0.32,-13.08 0.96,-18.72 0.65,-5.72 1.65,-10.72 2.98,-14.93l1.24 -3.94 3.64 -0.68c4.84,-0.89 8.61,-2.13 11.29,-3.68 1.82,-1.06 2.94,-2.14 3.3,-3.17l0.03 -0.11c0.5,-1.4 0.48,-3.77 -0.07,-7.06 -0.68,-4.19 -2.21,-9.38 -4.55,-15.54l-9.12 -24.88 -22.9 0.16 -27.7 0.59c-9.18,0.26 -18.41,0.64 -27.65,1.1 -7.56,0.38 -15.22,0.87 -22.94,1.44l-4.44 13.73c-2.17,6.2 -3.53,11.76 -4.05,16.64 -0.48,4.41 -0.27,8.17 0.62,11.21 0.69,2.44 2.1,4.42 4.17,5.9 2.54,1.83 6.1,3.04 10.65,3.61l4.17 0.54 1.14 4.65c1.15,4.67 2.01,9.82 2.57,15.4 0.55,5.51 0.84,11.44 0.84,17.74l0 8.03 -6.96 -0.91c-2.56,-0.33 -5.59,-0.61 -9.04,-0.8 -3.68,-0.21 -7.77,-0.38 -12.22,-0.45l-25.32 -0.25 -11.05 0.13 -11.03 0.36 -24.34 1.45 0 -7.56c0,-2.69 0.09,-5.58 0.26,-8.65 0.15,-2.76 0.39,-5.58 0.72,-8.41 0.34,-2.98 0.79,-5.83 1.34,-8.49 0.58,-2.75 1.27,-5.45 2.07,-8.04l1.2 -3.9 3.56 -0.75c2.03,-0.42 3.94,-1.08 5.69,-1.94 1.69,-0.84 3.22,-1.86 4.49,-3.03 1.4,-1.27 2.81,-2.97 4.23,-5.12 1.51,-2.33 3.06,-5.2 4.61,-8.55 1.65,-3.5 3.52,-7.89 5.58,-13.14 1.93,-4.88 4.08,-10.61 6.41,-17.19l94.5 -267.4 10.15 -2.07c2.2,-0.35 4.35,-0.63 6.41,-0.8l6.63 -0.37 11.68 -0.16 1.65 4.26zm90.79 269.59l-100.5 -259.47 -3.24 0.06 -6.08 0.38 -5.63 0.7 -2.85 0.51 -91.94 260.14c-2.29,6.49 -4.52,12.41 -6.61,17.7 -2.1,5.34 -4.1,10.02 -5.94,13.98 -1.83,4 -3.74,7.5 -5.68,10.44 -2.09,3.11 -4.21,5.67 -6.4,7.67 -2.26,2.07 -4.73,3.75 -7.33,5.04 -1.46,0.72 -3.01,1.34 -4.64,1.85l-0.66 2.89c-0.49,2.4 -0.88,4.76 -1.14,7.05l-0.63 7.65 11.11 -0.6 11.31 -0.37 11.3 -0.16 25.49 0.28c4.91,0.09 9.14,0.25 12.66,0.45l2.73 0.17c-0.12,-2.92 -0.31,-5.7 -0.58,-8.31 -0.32,-3.12 -0.72,-6.04 -1.22,-8.74 -4.51,-1.02 -8.34,-2.66 -11.5,-4.92 -4.58,-3.28 -7.73,-7.82 -9.38,-13.53 -1.52,-5.14 -1.93,-11.01 -1.22,-17.5 0.65,-6.04 2.29,-12.8 4.88,-20.21l7.16 -22.08 4.02 -0.31c8.72,-0.69 17.83,-1.27 27.24,-1.75 9.02,-0.45 18.35,-0.83 27.88,-1.1l27.85 -0.59 31.27 -0.22 12.31 33.51c2.71,7.14 4.53,13.34 5.38,18.56 1.02,6.1 0.8,11.19 -0.66,15.25 -1.55,4.37 -4.64,7.9 -9.23,10.57 -2.97,1.71 -6.66,3.12 -11.07,4.19 -0.56,2.43 -1,5.13 -1.34,8.11 -0.32,2.82 -0.54,5.94 -0.68,9.37 37.45,-1.57 76,-1.57 113.45,0 -0.12,-3.2 -0.32,-6.18 -0.59,-8.95 -0.3,-3.12 -0.71,-5.99 -1.21,-8.64l-3.48 -1.31c-2.51,-1.16 -4.83,-2.65 -6.93,-4.43 -2.17,-1.86 -4.34,-4.37 -6.53,-7.55 -2,-2.91 -4.06,-6.44 -6.12,-10.54 -1.94,-3.81 -4.21,-8.79 -6.79,-14.85 -2.53,-5.94 -5.28,-12.76 -8.24,-20.39zm-142.89 -107.82l-18.99 56.76 69.33 0 -21.24 -56.57c-2.34,-5.92 -4.57,-11.74 -6.65,-17.42 -2.01,-5.47 -3.92,-10.96 -5.71,-16.44l-3.08 -9.89 -3.04 10.44 -5.02 16.29 -5.6 16.83zm-33.86 61.39l27.74 -83.15 4.93 -15.93 4.6 -15.97 11.01 -40.16 5.47 24.36c1.14,5.1 2.44,10.26 3.87,15.42 1.39,5.03 2.95,10.16 4.64,15.32 1.61,4.93 3.46,10.24 5.54,15.95 1.96,5.42 4.17,11.16 6.56,17.16 9.33,18.21 20.62,54.89 28.82,76.72l-106.44 0 3.26 -9.72zm237.28 130.59l0.2 -9.22 0.53 -8.65c0.27,-2.83 0.66,-5.55 1.19,-8.14 0.55,-2.67 1.26,-5.3 2.11,-7.81l1.56 -4.56 4.25 0c6.48,0 11.03,-2.16 13.65,-6.45 1.42,-2.32 2.54,-5.9 3.33,-10.71 0.88,-5.34 1.33,-12.11 1.33,-20.26l0 -86.05c0,-8.16 -0.45,-14.92 -1.33,-20.26 -0.79,-4.81 -1.91,-8.38 -3.33,-10.7 -1.24,-2.06 -2.93,-3.63 -5,-4.67 -2.29,-1.16 -5.19,-1.74 -8.65,-1.74l-4.25 0 -1.56 -4.6c-0.87,-2.57 -1.58,-5.2 -2.11,-7.82 -0.53,-2.6 -0.92,-5.32 -1.19,-8.12l-0.53 -8.66 -0.2 -9.27 0 -7.5 19.11 0.94 30.24 0.85 16.71 0.1 15.81 -0.1 28.53 -0.85 18.57 -0.94 0 7.5 -0.2 9.48c-0.11,3.09 -0.3,5.93 -0.54,8.45 -0.25,2.82 -0.66,5.54 -1.18,8.12 -0.54,2.62 -1.24,5.25 -2.11,7.82l-1.57 4.6 -4.24 0c-3.26,0 -5.98,0.56 -8.09,1.68 -1.88,0.99 -3.4,2.51 -4.54,4.51 -1.3,2.31 -2.34,5.94 -3.09,10.84 -0.81,5.38 -1.23,12.17 -1.23,20.34l0 18.43 68.72 0 0 -18.43c0,-15.67 -1.45,-26.07 -4.35,-31.15 -1.15,-2.08 -2.64,-3.59 -4.45,-4.57 -2.03,-1.1 -4.62,-1.65 -7.72,-1.65l-4.26 0 -1.55 -4.6c-0.87,-2.58 -1.58,-5.2 -2.11,-7.82 -0.52,-2.63 -0.9,-5.34 -1.14,-8.12 -0.24,-2.52 -0.43,-5.35 -0.55,-8.45l-0.2 -9.48 0 -7.53 18.08 0.97 28.66 0.85 16.14 0.1 16.73 -0.1 30.19 -0.85 18.67 -0.95 0 7.51 -0.19 9.48c-0.12,3.09 -0.3,5.93 -0.54,8.45 -0.25,2.83 -0.65,5.55 -1.17,8.12 -0.54,2.67 -1.24,5.28 -2.07,7.79l-1.54 4.63 -4.29 0c-3.48,0 -6.35,0.57 -8.58,1.69 -1.97,1.02 -3.58,2.57 -4.78,4.61 -1.38,2.33 -2.46,5.94 -3.22,10.78 -0.84,5.33 -1.26,12.1 -1.26,20.29l0 86.05c0,8.2 0.42,14.98 1.26,20.3 0.76,4.84 1.84,8.45 3.21,10.78 1.22,2.05 2.82,3.6 4.79,4.61 2.24,1.15 5.1,1.73 8.58,1.73l4.28 0 1.55 4.62c0.83,2.49 1.53,5.09 2.07,7.76 0.53,2.62 0.93,5.32 1.16,8.08 0.25,2.54 0.43,5.39 0.55,8.48l0.19 9.44 0 7.43 -32.55 -1.32 -16.45 -0.36 -16.59 -0.09 -16.14 0.09 -15.55 0.36 -31.19 1.33 0 -7.44 0.2 -9.44c0.12,-3.07 0.31,-5.9 0.54,-8.45 0.24,-2.77 0.63,-5.49 1.15,-8.09 0.55,-2.69 1.25,-5.32 2.11,-7.84l1.55 -4.56 4.26 0c5.77,0 9.83,-2.07 12.14,-6.2 1.35,-2.39 2.39,-6 3.14,-10.86 0.82,-5.4 1.24,-12.21 1.24,-20.36l0 -24.55 -13.47 0.14 -21.82 0.56c-7.37,0.24 -14.42,0.62 -21.12,1.11l-12.31 1.07 0 21.67c0,8.15 0.42,14.95 1.23,20.33 0.75,4.91 1.79,8.55 3.09,10.86 1.14,2 2.66,3.53 4.54,4.53 2.12,1.13 4.83,1.7 8.09,1.7l4.24 0 1.57 4.56c0.85,2.51 1.56,5.14 2.11,7.81 0.53,2.59 0.93,5.32 1.18,8.09 0.24,2.54 0.43,5.39 0.54,8.48l0.2 9.44 0 7.44 -31.65 -1.33 -15.57 -0.36 -15.69 -0.09 -16.71 0.09 -16.33 0.36 -33.02 1.31 0 -7.42zm12.65 -8.61l-0.05 1.19 20.03 -0.75 16.58 -0.37 16.85 -0.16 15.83 0.16 15.77 0.37 18.71 0.74 -0.04 -1.4c-0.1,-2.61 -0.27,-5.16 -0.49,-7.58 -0.2,-2.14 -0.52,-4.28 -0.94,-6.35l-0.35 -1.57c-3.2,-0.44 -6.12,-1.35 -8.74,-2.75 -4.05,-2.16 -7.32,-5.42 -9.76,-9.74 -2.24,-3.97 -3.9,-9.4 -4.93,-16.19 -0.95,-6.32 -1.44,-13.93 -1.44,-22.79l0 -34.59 5.59 -0.69c5.58,-0.68 11.74,-1.28 18.43,-1.75 6.44,-0.46 13.63,-0.84 21.58,-1.11l21.96 -0.56 26.16 -0.22 0 38.92c0,8.89 -0.49,16.52 -1.45,22.81 -1.04,6.82 -2.7,12.23 -4.95,16.2 -4.05,7.18 -10.07,11.34 -18.04,12.46l-0.35 1.57c-0.41,2.04 -0.71,4.15 -0.9,6.3 -0.22,2.44 -0.4,5 -0.49,7.63l-0.05 1.39 18.21 -0.73 15.79 -0.37 16.28 -0.16 16.73 0.16 16.65 0.37 19.62 0.74 -0.04 -1.4c-0.1,-2.61 -0.27,-5.16 -0.5,-7.58 -0.18,-2.17 -0.5,-4.28 -0.91,-6.33l-0.35 -1.58c-3.31,-0.43 -6.34,-1.34 -9.06,-2.73 -4.19,-2.16 -7.55,-5.39 -10.06,-9.66 -2.32,-3.98 -4.04,-9.42 -5.12,-16.27 -1.01,-6.37 -1.52,-14 -1.52,-22.82l0 -86.05c0,-8.86 0.51,-16.49 1.52,-22.85 1.09,-6.83 2.8,-12.25 5.12,-16.21 2.51,-4.3 5.88,-7.52 10.06,-9.66 2.74,-1.39 5.75,-2.29 9.05,-2.72l0.35 -1.6c0.42,-2.08 0.74,-4.21 0.92,-6.33 0.23,-2.45 0.4,-4.98 0.5,-7.6l0.04 -1.39c-12.04,0.52 -24.07,0.8 -36.12,1.1l-16.88 0.16 -16.28 -0.16c-11.34,-0.29 -22.67,-0.57 -34,-1.08l0.05 1.37c0.09,2.61 0.27,5.15 0.49,7.55 0.19,2.22 0.49,4.34 0.89,6.38l0.37 1.64c3.08,0.44 5.9,1.35 8.45,2.73 3.95,2.15 7.15,5.38 9.57,9.68 4.27,7.48 6.41,20.5 6.41,38.99l0 32.79 -93.72 0 0 -32.79c0,-8.87 0.49,-16.48 1.44,-22.77 1.03,-6.82 2.69,-12.23 4.93,-16.2 2.44,-4.32 5.71,-7.58 9.76,-9.72 2.62,-1.39 5.54,-2.3 8.73,-2.74l0.36 -1.61c0.42,-2.08 0.74,-4.22 0.94,-6.36 0.22,-2.42 0.39,-4.95 0.49,-7.57l0.04 -1.38c-11.45,0.49 -22.9,0.79 -34.35,1.09l-15.96 0.16 -16.85 -0.16c-12.21,-0.3 -24.41,-0.6 -36.61,-1.11l0.53 8.95c0.2,2.17 0.52,4.31 0.94,6.38l0.35 1.59c3.33,0.42 6.37,1.33 9.1,2.7 4.14,2.09 7.55,5.29 10.17,9.57 2.45,3.97 4.26,9.43 5.38,16.29 1.05,6.35 1.58,13.98 1.58,22.89l0 86.05c0,8.9 -0.53,16.54 -1.58,22.89 -1.13,6.87 -2.93,12.33 -5.38,16.31 -4.36,7.14 -10.78,11.25 -19.28,12.3l-0.34 1.54c-0.42,2.07 -0.74,4.21 -0.94,6.35l-0.48 7.8zm322.66 100.6c-3.57,1.1 -7.29,1.94 -11.12,2.48 -3.84,0.54 -7.81,0.82 -11.9,0.82 -4,0 -7.88,-0.29 -11.59,-0.85 -3.71,-0.56 -7.17,-1.41 -10.32,-2.53l-4.47 -1.6 0.08 -5.35c0.14,-8.44 0.14,-16.65 0,-24.55 -0.14,-7.65 -0.45,-15.27 -0.9,-22.8 -0.44,-7.37 -1.02,-14.29 -1.74,-20.67 -0.71,-6.37 -1.58,-12.41 -2.58,-18.05l-0.15 -1.44c0,-6.44 0.73,-12.43 2.19,-17.95 1.49,-5.61 3.74,-10.67 6.76,-15.11l1.89 -2.77 8.36 0c5.1,0 9.67,-1.2 13.66,-3.56 4.03,-2.39 7.62,-6.05 10.74,-10.95 3.42,-5.35 6.48,-11.74 9.15,-19.16 2.73,-7.52 5.06,-16.14 6.99,-25.8 1.95,-9.86 3.61,-20.52 4.96,-31.91 1.35,-11.43 2.39,-23.66 3.13,-36.66l0.02 -0.22c0.42,-5.02 0.63,-9.59 0.63,-13.65 0,-3.73 -0.19,-6.72 -0.55,-8.94 -0.27,-1.68 -0.74,-3.04 -1.37,-4.03 -0.55,-0.85 -1.3,-1.53 -2.2,-2 -1.62,-0.86 -3.71,-1.61 -6.28,-2.27 -2.89,-0.69 -6.26,-1.3 -10.09,-1.75l-3.83 -0.46 -1.36 -4.13c-0.83,-2.53 -1.54,-5.15 -2.08,-7.83 -0.53,-2.62 -0.95,-5.44 -1.19,-8.4l-0.53 -8.65 -0.2 -8.94 0 -7.68 6.69 0.54c4.73,0.38 10.07,0.68 15.96,0.87 6.23,0.22 13.22,0.38 20.91,0.44 52.2,0.36 104.53,0.64 156.72,-0.84l15.21 -0.96 0 7.63 -0.2 9.27 -0.53 8.61c-0.25,2.88 -0.65,5.61 -1.19,8.2 -0.53,2.62 -1.25,5.24 -2.11,7.79l-1.57 4.6 -4.24 0c-3.11,0 -5.68,0.55 -7.71,1.65 -1.81,0.99 -3.31,2.52 -4.45,4.54 -1.3,2.31 -2.34,5.94 -3.09,10.84 -0.81,5.38 -1.23,12.17 -1.23,20.34l0 86.05c0,8.15 0.42,14.95 1.23,20.33 0.75,4.91 1.79,8.55 3.09,10.86 1.13,2.01 2.64,3.55 4.48,4.56 2.03,1.11 4.6,1.67 7.68,1.67l17.18 0 1.9 2.63c3.18,4.45 5.58,9.52 7.15,15.14 1.55,5.54 2.32,11.56 2.32,18.06l-0.15 1.44c-1.01,5.65 -1.88,11.71 -2.59,18.1 -0.7,6.36 -1.29,13.27 -1.73,20.62 -0.45,7.53 -0.75,15.15 -0.89,22.8 -0.14,7.9 -0.14,16.11 -0.01,24.55l0.08 5.35 -4.47 1.6c-3.15,1.12 -6.59,1.97 -10.29,2.53 -3.7,0.56 -7.59,0.85 -11.62,0.85 -4.1,0 -8.07,-0.28 -11.91,-0.82 -3.83,-0.54 -7.53,-1.38 -11.11,-2.48l-4.73 -1.45 0.12 -5.64c0.14,-6.75 0.13,-13.69 -0.01,-20.74 -0.14,-6.77 -0.44,-13.93 -0.89,-21.39 -0.43,-7.27 -1.02,-14.58 -1.76,-21.89 -0.52,-5.16 -1.12,-10.24 -1.77,-15.22l-145.5 0c-0.68,5.03 -1.29,10.16 -1.81,15.34 -0.74,7.27 -1.33,14.54 -1.77,21.77 -0.44,7.47 -0.74,14.64 -0.88,21.42 -0.14,7.04 -0.15,13.97 -0.01,20.71l0.12 5.64 -4.73 1.45zm-12.64 -11.76l4.72 -0.85c-0.04,-5.1 -0.01,-10.28 0.1,-15.53 0.14,-7.4 0.45,-14.77 0.88,-22.03 0.46,-7.62 1.06,-15.13 1.81,-22.45 0.74,-7.32 1.67,-14.7 2.75,-22.07l0.88 -6 166.67 0 0.87 6c1.06,7.35 1.97,14.68 2.71,21.95 0.74,7.37 1.35,14.91 1.8,22.57 0.45,7.26 0.75,14.62 0.9,22.01 0.1,5.25 0.14,10.44 0.09,15.55l4.71 0.85c3.29,0.47 6.76,0.71 10.39,0.71 3.7,0 7.05,-0.23 10.01,-0.68l3.77 -0.72c-0.06,-6.65 -0.03,-13.13 0.08,-19.42 0.15,-8.29 0.45,-16.13 0.9,-23.46 0.45,-7.43 1.06,-14.61 1.82,-21.47 0.72,-6.49 1.59,-12.62 2.59,-18.32 -0.04,-4.87 -0.61,-9.24 -1.68,-13.1 -0.79,-2.82 -1.86,-5.43 -3.21,-7.8l-11.16 0c-4.95,0 -9.3,-1.02 -13.05,-3.08 -3.94,-2.15 -7.13,-5.4 -9.56,-9.71 -2.25,-3.97 -3.9,-9.4 -4.93,-16.19 -0.96,-6.32 -1.44,-13.93 -1.44,-22.79l0 -86.05c0,-8.87 0.48,-16.48 1.44,-22.77 1.03,-6.82 2.68,-12.23 4.93,-16.2 2.42,-4.3 5.63,-7.54 9.59,-9.7 2.54,-1.38 5.36,-2.29 8.43,-2.73l0.37 -1.64c0.43,-2.13 0.75,-4.25 0.93,-6.33l0.52 -8.95c-52.71,2.22 -106.68,1.3 -159.43,0.94 -7.89,-0.07 -14.96,-0.23 -21.14,-0.44l-9.7 -0.42 0.52 8.65c0.18,2.17 0.5,4.36 0.94,6.49l0.44 1.98c2.77,0.42 5.24,0.91 7.41,1.45 3.56,0.94 6.51,2.01 8.81,3.23 2.92,1.54 5.3,3.75 7.11,6.62 1.73,2.77 2.92,6.06 3.54,9.81 0.53,3.24 0.8,7.11 0.8,11.57 0,4.06 -0.24,9.01 -0.71,14.77 -0.75,13.32 -1.83,25.88 -3.22,37.66 -1.39,11.81 -3.11,22.89 -5.17,33.2 -2.07,10.41 -4.62,19.78 -7.61,28.08 -3.06,8.48 -6.6,15.87 -10.61,22.14 -4.28,6.72 -9.33,11.82 -15.09,15.23 -5.82,3.44 -12.28,5.18 -19.37,5.18l-2.11 0c-1.26,2.35 -2.25,4.92 -2.99,7.69 -1.03,3.87 -1.55,8.29 -1.6,13.21 1,5.69 1.86,11.8 2.59,18.27 0.76,6.87 1.38,14.07 1.83,21.52 0.44,7.33 0.74,15.17 0.89,23.46 0.12,6.29 0.14,12.77 0.08,19.41l3.8 0.73c2.97,0.45 6.3,0.68 9.98,0.68 3.62,0 7.09,-0.24 10.38,-0.71zm66.76 -245.13c-1.18,18.14 -2.56,34.29 -4.07,48.36 -1.53,14.18 -3.26,26.55 -5.18,37.1 -1.92,10.62 -4.35,20.14 -7.28,28.54 -1.35,3.89 -2.8,7.54 -4.37,10.96l44.12 0c4.63,0 8.38,-0.51 11.24,-1.52 2.29,-0.81 3.95,-1.91 4.94,-3.26 1.11,-1.56 2.02,-4.22 2.71,-7.94 0.78,-4.26 1.19,-9.78 1.19,-16.47l0 -97.33c0,-5.97 -0.12,-10.96 -0.36,-14.9 -0.22,-3.85 -0.57,-6.9 -1.01,-9.08 -0.29,-1.45 -0.79,-2.66 -1.45,-3.58 -0.67,-0.91 -1.59,-1.67 -2.7,-2.21l-0.37 -0.19c-0.81,-0.47 -1.78,-0.89 -2.86,-1.26 -1.05,-0.35 -2.3,-0.65 -3.7,-0.88l-4.28 -0.51 -3.78 -0.15 -4.25 0.15 -4.49 0.5 -4.36 0.87 -3.64 1.15c-0.85,0.41 -1.51,0.93 -1.97,1.54 -0.5,0.67 -0.89,1.59 -1.1,2.71 -0.4,2.06 -0.86,5.38 -1.35,9.88 -0.53,5.11 -1.09,10.96 -1.63,17.52zm-16.47 46.62c1.52,-14.09 2.88,-29.99 4.04,-47.69l0.02 -0.13c0.64,-7.72 1.2,-13.76 1.66,-18.07 0.57,-4.97 1.09,-8.73 1.58,-11.24 0.69,-3.49 1.98,-6.5 3.83,-8.95 1.88,-2.5 4.25,-4.38 7.11,-5.66l0.39 -0.17c1.51,-0.54 3.14,-1.06 4.87,-1.49l5.37 -1.07 5.32 -0.61 5.07 -0.22 4.68 0.22 5.06 0.61c1.93,0.31 3.76,0.76 5.51,1.34 1.69,0.56 3.28,1.27 4.76,2.11 2.93,1.46 5.36,3.52 7.24,6.1 1.94,2.66 3.29,5.85 4.04,9.5 0.6,2.91 1.03,6.72 1.31,11.39 0.27,4.61 0.41,9.9 0.41,15.85l0 97.33c0,7.58 -0.5,14.08 -1.48,19.41 -1.1,5.98 -2.88,10.67 -5.31,14.08 -2.61,3.59 -6.24,6.21 -10.89,7.86 -4.14,1.45 -9.1,2.19 -14.9,2.19l-67.66 0 7.31 -11.4c3.43,-5.34 6.46,-11.76 9.03,-19.18 2.65,-7.61 4.88,-16.35 6.64,-26.16 1.81,-9.98 3.48,-21.97 4.99,-35.95zm191.79 242.26c0,-7.02 0.25,-13.33 0.72,-18.9 0.5,-5.71 1.25,-10.53 2.24,-14.37l1.22 -4.77 4.29 -0.36c3.69,-0.31 6.96,-0.87 9.76,-1.62 2.57,-0.69 4.77,-1.59 6.53,-2.67 1.35,-0.83 2.51,-2.02 3.46,-3.57 1.1,-1.78 1.97,-4.04 2.59,-6.76 0.72,-3.17 1.27,-7.18 1.64,-12.01 0.39,-4.75 0.57,-10.59 0.57,-17.45l0 -194.62c0,-4.72 -0.15,-8.81 -0.44,-12.25 -0.28,-3.39 -0.74,-6.38 -1.35,-8.96 -0.42,-1.96 -1.15,-3.65 -2.11,-5.07 -0.94,-1.41 -2.2,-2.61 -3.72,-3.59 -1.75,-1.1 -4.2,-2.04 -7.27,-2.8 -3.32,-0.81 -7.26,-1.39 -11.75,-1.69l-5.91 -0.39 0 -6.75c0,-2.73 0.11,-5.49 0.31,-8.25 0.2,-2.62 0.51,-5.31 0.9,-8.04 0.43,-2.88 1.06,-5.67 1.86,-8.38 0.8,-2.68 1.82,-5.34 3.03,-7.93l1.73 -3.71 3.66 -0.07c7.61,-0.15 15.19,-0.7 22.71,-1.62 7.48,-0.9 14.8,-2.19 21.92,-3.85 7.12,-1.65 13.29,-3.39 18.48,-5.2 5,-1.74 9.1,-3.57 12.23,-5.43l2.5 -1.49 2.63 1.18c2.55,1.16 4.9,2.73 6.99,4.74 2.02,1.94 3.83,4.31 5.37,7.09 1.58,2.89 2.76,6.28 3.49,10.14 0.31,1.63 0.54,3.33 0.71,5.13 2.12,-2.3 4.57,-4.6 7.35,-6.89 4.06,-3.35 8.86,-6.72 14.38,-10.12 5.78,-3.54 11.93,-6.21 18.41,-7.96 6.47,-1.74 13.29,-2.63 20.42,-2.63 13.6,0 26.06,2.27 37.3,6.83 11.36,4.59 21.44,11.49 30.22,20.66 8.95,9.33 15.67,21.3 20.11,35.86 4.32,14.2 6.5,30.85 6.5,49.89 0,28.18 -5.33,53.16 -15.98,74.93 -5.33,10.89 -11.78,20.67 -19.3,29.25 -7.49,8.57 -16.06,15.97 -25.69,22.16 -9.62,6.19 -20.09,10.85 -31.34,13.95 -11.2,3.1 -23.12,4.65 -35.71,4.65 -2.94,0 -5.96,-0.12 -9.04,-0.35 -3.01,-0.21 -5.88,-0.56 -8.59,-1.01 -2.73,-0.45 -5.49,-1.02 -8.26,-1.69l-0.45 -0.11 0 26.7c0,10.56 0.76,19.31 2.26,26.22 1.35,6.29 3.3,10.93 5.8,13.91 2.59,3.11 6.28,5.63 11.07,7.55 5.18,2.09 11.6,3.46 19.24,4.09l3.83 0.31 1.48 4.11c0.89,2.49 1.6,5.16 2.11,7.98 0.51,2.73 0.86,5.73 1.04,8.91l0.33 8.64 0.13 16.17 -6.72 -0.58c-4.09,-0.35 -8.62,-0.64 -13.56,-0.84l-17.03 -0.44c-26.39,-0.25 -52.69,-0.24 -79.08,0 -6.87,0.08 -13.14,0.24 -18.76,0.45 -5.49,0.19 -10.44,0.48 -14.79,0.83l-6.67 0.53 0 -7.67zm13.12 -17.49c-0.24,2.9 -0.42,6.21 -0.52,9.89l8.48 -0.38 19.04 -0.45c26.45,-0.23 52.83,-0.25 79.28,0l17.34 0.44 7.3 0.36 -0.33 -8.56c-0.13,-2.42 -0.41,-4.72 -0.8,-6.85l-0.29 -1.5c-6.96,-0.85 -13.05,-2.34 -18.28,-4.44 -6.66,-2.68 -11.97,-6.4 -15.94,-11.15 -4.04,-4.81 -7.02,-11.62 -8.92,-20.35 -1.77,-8.12 -2.67,-18.04 -2.67,-29.69l0 -45.3 7.92 2.55c2.44,0.77 4.98,1.5 7.62,2.14 2.49,0.6 4.98,1.12 7.44,1.52 2.49,0.41 5.04,0.73 7.61,0.91 2.48,0.19 5.25,0.28 8.26,0.28 11.78,0 22.74,-1.4 32.83,-4.19 10.06,-2.77 19.45,-6.96 28.13,-12.54 8.64,-5.56 16.32,-12.18 22.99,-19.82 6.7,-7.63 12.44,-16.35 17.21,-26.1 9.57,-19.55 14.36,-42.19 14.36,-67.93 0,-17.52 -1.93,-32.59 -5.76,-45.18 -3.74,-12.24 -9.33,-22.25 -16.75,-29.98 -7.56,-7.9 -16.21,-13.82 -25.94,-17.75 -9.88,-3.98 -20.95,-5.98 -33.18,-5.98 -6.24,0 -12.11,0.76 -17.58,2.23 -5.48,1.47 -10.63,3.7 -15.39,6.62 -5.03,3.09 -9.36,6.13 -12.96,9.1 -3.44,2.84 -6.21,5.62 -8.29,8.3l-0.46 0.54c-1.38,1.44 -2.79,3.14 -4.2,5.08 -1.39,1.88 -2.78,4.03 -4.19,6.44l-20.82 35.73 9.62 -41.54c0.52,-2.25 0.92,-4.42 1.17,-6.47 0.25,-1.93 0.36,-3.78 0.36,-5.54 0,-3.59 -0.25,-6.71 -0.73,-9.29 -0.45,-2.34 -1.06,-4.21 -1.81,-5.56 -0.83,-1.5 -1.79,-2.75 -2.85,-3.77l-1.31 -1.08c-3.21,1.64 -7.02,3.24 -11.43,4.78 -5.56,1.93 -12.12,3.8 -19.65,5.54 -7.59,1.76 -15.29,3.13 -23.05,4.07 -6.48,0.79 -13.13,1.32 -19.93,1.56l-0.7 2.12c-0.59,1.99 -1.05,4.06 -1.37,6.17 -0.32,2.19 -0.58,4.48 -0.75,6.86l-0.04 0.49c2.76,0.36 5.28,0.82 7.55,1.37 4.18,1.03 7.73,2.46 10.61,4.26 3.08,1.96 5.61,4.41 7.61,7.35 1.99,2.91 3.44,6.33 4.33,10.17 0.76,3.2 1.32,6.97 1.69,11.26 0.36,4.23 0.54,8.79 0.54,13.65l0 194.62c0,6.81 -0.21,13.04 -0.65,18.69 -0.4,5.58 -1.08,10.39 -2,14.39 -1.02,4.41 -2.51,8.2 -4.46,11.38 -2.08,3.39 -4.68,6.05 -7.77,7.97 -2.7,1.66 -5.91,2.99 -9.58,3.98 -2.17,0.58 -4.53,1.07 -7.08,1.43 -0.34,2.11 -0.63,4.5 -0.86,7.15zm96.2 -218.64l0 64.31c1.5,1.78 3.05,3.4 4.62,4.85 2.1,1.93 4.28,3.56 6.51,4.88 2.08,1.24 4.45,2.19 7.06,2.83 2.67,0.64 5.68,0.97 9.01,0.97 2.35,0 4.78,-0.27 7.26,-0.81 2.65,-0.57 5.43,-1.44 8.33,-2.6 2.66,-1.05 5.32,-2.61 7.91,-4.61 2.69,-2.07 5.35,-4.67 7.96,-7.74 2.52,-2.95 4.82,-6.58 6.89,-10.81 2.15,-4.33 4.06,-9.39 5.73,-15.13 1.64,-5.69 2.9,-12.3 3.74,-19.8 0.83,-7.47 1.26,-16.01 1.26,-25.56 0,-10.27 -0.84,-19.74 -2.49,-28.39 -1.63,-8.57 -4.06,-16.37 -7.28,-23.38 -2.94,-6.42 -6.62,-11.22 -10.96,-14.33 -4.29,-3.06 -9.43,-4.59 -15.4,-4.59 -3.09,0 -6.13,0.58 -9.09,1.71 -3.08,1.2 -6.19,3.02 -9.25,5.43 -2.98,2.37 -5.75,5.55 -8.26,9.5 -2.62,4.14 -5.01,9.16 -7.12,15.04 -2.12,5.89 -3.72,12.82 -4.8,20.75 -1.08,7.98 -1.63,17.15 -1.63,27.48zm-12.51 67.07l0 -67.07c0,-10.78 0.62,-20.68 1.84,-29.67 1.24,-9.09 3.1,-17.11 5.58,-24.03 2.5,-6.93 5.37,-12.94 8.59,-18.01 3.36,-5.25 7.12,-9.56 11.24,-12.82 4.04,-3.19 8.19,-5.62 12.36,-7.23 4.34,-1.67 8.7,-2.51 13.05,-2.51 8.31,0 15.65,2.28 21.98,6.78 6.25,4.48 11.4,11.11 15.4,19.84 3.77,8.22 6.61,17.23 8.47,27 1.85,9.68 2.78,20.17 2.78,31.43 0,9.87 -0.48,19.01 -1.41,27.36 -0.94,8.38 -2.38,15.91 -4.28,22.52 -1.9,6.53 -4.13,12.42 -6.68,17.61 -2.58,5.32 -5.53,9.93 -8.82,13.79 -3.2,3.76 -6.53,6.99 -9.95,9.64 -3.48,2.68 -7.07,4.78 -10.75,6.24 -3.49,1.39 -6.86,2.45 -10.08,3.15 -3.37,0.74 -6.58,1.11 -9.61,1.11 -4.09,0 -7.95,-0.44 -11.57,-1.32 -3.71,-0.89 -7.12,-2.28 -10.22,-4.11 -2.96,-1.75 -5.82,-3.9 -8.55,-6.4 -2.69,-2.49 -5.29,-5.34 -7.78,-8.56l-1.59 -2.06 0 -2.68zm298.88 55.35c-13,0 -24.91,-1.41 -35.69,-4.18 -10.87,-2.81 -20.56,-7.06 -28.97,-12.72 -8.37,-5.57 -15.7,-12.29 -21.97,-20.07 -6.29,-7.8 -11.42,-16.59 -15.38,-26.35 -3.89,-9.64 -6.84,-19.83 -8.8,-30.57 -1.95,-10.74 -2.94,-21.98 -2.94,-33.68 0,-12.51 1.11,-24.4 3.3,-35.65 2.21,-11.35 5.52,-21.91 9.89,-31.65 4.43,-9.81 9.84,-18.59 16.2,-26.34 6.32,-7.72 13.62,-14.42 21.86,-20.08 8.26,-5.64 17.27,-9.89 26.99,-12.69 9.67,-2.79 20.03,-4.2 31.07,-4.2 22.54,0 41.12,5.05 55.64,15.12 7.27,5.05 13.66,11.11 19.11,18.17 5.43,7.04 9.94,15.03 13.47,23.98 3.43,8.68 6.13,17.97 8.09,27.79 1.93,9.77 3.14,20.07 3.6,30.88l0.04 0.98 -0.21 1.01c-1.16,5.58 -2.82,10.64 -4.91,15.16 -2.15,4.64 -4.79,8.76 -7.87,12.32l-1.85 2.13 -35.74 0.22 -42.32 0.78c-7.23,0.16 -14.51,0.42 -21.8,0.75l-14.95 0.81c1.12,6.38 2.67,12.32 4.62,17.82 2.71,7.55 6.21,14.38 10.49,20.42 4.01,5.58 9.14,9.82 15.37,12.64 6.49,2.94 14.27,4.43 23.31,4.43 4.76,0 9.47,-0.49 14.12,-1.47 4.7,-0.98 9.49,-2.49 14.31,-4.51 4.73,-1.94 9.07,-4.29 13,-6.99 3.92,-2.69 7.42,-5.74 10.46,-9.09l3.16 -3.48 3.9 2.22c2.24,1.26 4.29,3.13 6.11,5.5 1.65,2.2 3.16,4.87 4.51,7.97 1.34,3.08 2.35,6.12 3.01,9.13 0.69,3.18 1.05,6.32 1.05,9.42l0 3 -1.9 2.13c-11.65,13.01 -25.16,22.78 -40.48,29.27 -15.2,6.44 -32.18,9.67 -50.9,9.67zm-32.96 -18.13c9.73,2.5 20.73,3.77 32.96,3.77 17.27,0 32.82,-2.93 46.61,-8.77 12.78,-5.41 24.12,-13.37 34.01,-23.83l-0.48 -3.01c-0.48,-2.1 -1.17,-4.2 -2.07,-6.29 -0.67,-1.56 -1.39,-2.9 -2.13,-4.02 -2.64,2.47 -5.47,4.74 -8.47,6.81 -4.58,3.15 -9.65,5.9 -15.14,8.17 -5.42,2.27 -10.88,3.99 -16.32,5.13 -5.55,1.17 -11.01,1.75 -16.36,1.75 -10.6,0 -19.91,-1.82 -27.9,-5.44 -8.24,-3.74 -15.06,-9.4 -20.43,-16.91 -5.05,-7.15 -9.18,-15.18 -12.35,-24.06 -3.13,-8.87 -5.34,-18.53 -6.59,-28.98l-0.92 -7.64 6.72 -0.46c7.07,-0.48 14.45,-0.92 22.14,-1.27 7.11,-0.32 14.46,-0.58 22.04,-0.74 24.35,-0.52 48.66,-0.84 73.02,-1.06 1.53,-2.08 2.87,-4.35 4.02,-6.83 1.49,-3.22 2.69,-6.8 3.58,-10.75 -0.45,-9.62 -1.55,-18.75 -3.25,-27.37 -1.77,-8.86 -4.21,-17.25 -7.31,-25.1 -3.02,-7.64 -6.85,-14.44 -11.44,-20.38 -4.57,-5.92 -9.99,-11.06 -16.22,-15.38 -12.51,-8.68 -28.95,-13.04 -49.2,-13.04 -10.08,0 -19.43,1.26 -28.05,3.75 -8.54,2.46 -16.45,6.18 -23.64,11.09 -7.21,4.95 -13.6,10.81 -19.15,17.59 -5.54,6.75 -10.28,14.46 -14.2,23.11 -3.92,8.73 -6.87,18.13 -8.82,28.15 -1.95,10.04 -2.95,20.91 -2.95,32.57 0,10.84 0.9,21.1 2.65,30.76 1.76,9.64 4.4,18.8 7.91,27.45 3.46,8.52 7.86,16.09 13.18,22.7 5.33,6.61 11.72,12.43 19.13,17.39 7.3,4.94 15.79,8.66 25.42,11.14zm27.62 -193.91c-4.13,0 -7.9,1.09 -11.28,3.28 -3.53,2.28 -6.79,5.8 -9.73,10.54 -3,4.88 -5.38,11.45 -7.08,19.69 -1.43,6.88 -2.39,14.83 -2.87,23.82l58.49 0c-0.24,-8.11 -0.9,-15.41 -1.98,-21.88 -1.36,-8.13 -3.37,-14.98 -6.01,-20.54 -2.49,-5.16 -5.38,-8.99 -8.65,-11.43 -3.1,-2.31 -6.74,-3.48 -10.89,-3.48zm-17.38 -9.21c5.3,-3.44 11.12,-5.15 17.38,-5.15 6.57,0 12.48,1.95 17.68,5.84 5.04,3.76 9.31,9.29 12.78,16.54 3.29,6.94 5.74,15.18 7.34,24.73 1.56,9.33 2.34,19.94 2.34,31.76l0 7.17 -84.02 0 0.19 -7.37c0.31,-13.2 1.47,-24.58 3.45,-34.11 2.07,-10.02 5.1,-18.23 9.03,-24.62 4.06,-6.53 8.68,-11.46 13.83,-14.79zm206.74 219.67c-5.47,-0.69 -11.1,-1.25 -16.86,-1.66 -6.08,-0.43 -12.17,-0.74 -18.29,-0.92l-17.66 -0.36 -18.8 -0.09 -1.66 -4.27c-0.89,-2.29 -1.66,-5.03 -2.27,-8.12 -0.58,-3.01 -1.05,-6.34 -1.37,-9.95 -0.59,-2.93 -0.75,-10.46 -0.91,-14.04l0 -6.69 5.84 -0.45c4.05,-0.31 7.61,-0.91 10.65,-1.79 2.77,-0.79 5.05,-1.82 6.81,-3.06 1.91,-1.34 3.59,-2.8 5,-4.36 1.36,-1.5 2.5,-3.1 3.39,-4.79l7.04 -13.63c1.8,-3.91 4.02,-7.83 6.62,-11.72 2.62,-3.9 5.67,-7.85 9.12,-11.82 3.14,-3.62 6.97,-6.7 11.46,-9.19l-4.61 -2.16c-8.31,-4.17 -15.7,-9.47 -22.14,-15.83 -6.64,-6.6 -11.64,-14.22 -14.98,-22.83 -3.34,-8.6 -5.02,-18.1 -5.02,-28.45 0,-6.82 0.89,-13.49 2.64,-19.97 1.73,-6.41 4.34,-12.6 7.78,-18.57 3.54,-6.1 8.27,-11.59 14.17,-16.44 5.65,-4.69 12.48,-8.83 20.44,-12.38 7.91,-3.53 17.19,-6.19 27.8,-7.93 10.54,-1.71 22.4,-2.58 35.54,-2.58l14.7 0.28c5.17,0.18 10.23,0.45 15.15,0.78 5.11,0.36 10.13,0.61 15.03,0.77l15.8 0.23 24.02 -0.22 13.2 -0.44c3.99,-0.19 8.08,-0.49 12.28,-0.87l6.73 -0.63 0 7.77 -0.5 13.93c-0.15,3.45 -0.38,6.57 -0.68,9.33 -0.34,2.98 -0.77,5.57 -1.27,7.77l-1.06 4.66 -4.16 0.64c-3.21,0.48 -6,1.06 -8.33,1.75 -2.22,0.67 -4.01,1.4 -5.32,2.15 -0.93,0.53 -1.73,1.29 -2.38,2.24 -0.75,1.1 -1.35,2.5 -1.78,4.16 -0.55,2.14 -0.99,5 -1.28,8.52 -0.3,3.59 -0.45,8.11 -0.45,13.53l0 104.99c0,6.4 0.36,11.57 1.08,15.51 0.59,3.24 1.36,5.47 2.27,6.67 0.86,1.13 2.41,2.13 4.61,2.96 2.79,1.05 6.37,1.75 10.68,2.05l4.26 0.3 1.3 4.69c1.04,3.73 1.8,8.25 2.29,13.57 0.48,5.22 0.72,11.17 0.72,17.78l0 7.38c-33.32,-1.22 -66,-1.34 -99.36,-1.02l-9.64 0.31 -15.05 0.93 0 -7.6 0.21 -8.64 0.5 -8.87c0.27,-3.19 0.57,-5.89 0.94,-8.11 0.42,-2.59 0.94,-4.72 1.55,-6.38l1.54 -4.16 3.95 -0.18c2.89,-0.12 5.31,-0.6 7.24,-1.39 1.46,-0.6 2.55,-1.38 3.23,-2.29 0.66,-0.88 1.25,-3.05 1.76,-6.5 0.63,-4.3 0.95,-10.15 0.95,-17.54l0 -17.21c-4.2,0.23 -7.95,0.7 -11.23,1.41 -4.54,0.99 -8.23,2.44 -11.01,4.33 -2.91,1.95 -5.35,4.14 -7.33,6.59 -1.95,2.41 -3.51,5.11 -4.65,8.02 -1.29,3.4 -2.5,7.05 -3.6,10.94 -1.1,3.87 -2.09,7.95 -2.96,12.16l-0.02 0.09c-1.2,5.52 -2.35,10.45 -3.46,14.76 -1.12,4.31 -2.19,8.04 -3.23,11.14 -1.14,3.49 -2.78,6.88 -4.85,10.15 -2.03,3.17 -4.48,6.22 -7.31,9.1l-2.08 2.11 -2.73 -0.35zm-16.1 -15.95c5.07,0.36 9.94,0.82 14.62,1.37 1.36,-1.56 2.54,-3.14 3.55,-4.72 1.38,-2.21 2.48,-4.48 3.25,-6.8 0.92,-2.7 1.89,-6.07 2.92,-10.09 1.04,-4.01 2.14,-8.72 3.29,-14.06 0.96,-4.66 2.05,-9.12 3.24,-13.33 1.19,-4.21 2.56,-8.3 4.05,-12.23 1.75,-4.48 4.06,-8.48 6.95,-12.05 2.81,-3.48 6.19,-6.55 10.1,-9.17 4.03,-2.74 9.07,-4.77 15.07,-6.08 5.72,-1.23 12.32,-1.85 19.77,-1.85l6.25 0 0 31.72c0,8.01 -0.38,14.65 -1.15,19.89 -0.9,6.09 -2.44,10.58 -4.6,13.45 -2.13,2.86 -4.97,5.02 -8.46,6.47 -1.91,0.8 -4.01,1.37 -6.34,1.74l-0.68 6.17 -0.51 8.82 11.81 -0.41 22.4 -0.28c21.55,0 43.07,0.03 64.61,0.82 -0.1,-3.28 -0.27,-6.25 -0.52,-8.89 -0.21,-2.3 -0.47,-4.39 -0.78,-6.24 -3.53,-0.49 -6.62,-1.25 -9.26,-2.24 -4.31,-1.63 -7.69,-4.02 -10.08,-7.17 -2.34,-3.08 -4.06,-7.48 -5.1,-13.18 -0.91,-5.01 -1.38,-11.16 -1.38,-18.42l0 -104.99c0,-5.49 0.2,-10.46 0.56,-14.87 0.37,-4.54 0.96,-8.32 1.72,-11.26 0.89,-3.43 2.2,-6.39 3.88,-8.88 1.8,-2.62 4.03,-4.7 6.67,-6.22 2.23,-1.28 4.85,-2.38 7.82,-3.24l5.35 -1.29 0.18 -1.48c0.27,-2.36 0.47,-5.11 0.6,-8.19l0.24 -5.56 -5.78 0.33 -13.58 0.44 -24.15 0.25c-4.82,0.03 -10.22,-0.07 -16.16,-0.26 -5.39,-0.17 -10.56,-0.44 -15.43,-0.77 -5.17,-0.35 -10.12,-0.63 -14.75,-0.78l-14.36 -0.22c-12.68,0 -23.96,0.82 -33.78,2.42 -9.74,1.59 -18.11,3.96 -25.07,7.08 -6.87,3.06 -12.76,6.64 -17.66,10.66 -4.65,3.81 -8.35,8.08 -11.05,12.72 -2.78,4.81 -4.87,9.79 -6.26,14.9 -1.36,5.03 -2.04,10.27 -2.04,15.74 0,8.42 1.29,15.97 3.88,22.62 2.58,6.67 6.51,12.64 11.76,17.84 5.47,5.41 11.79,9.93 18.96,13.53 7.25,3.63 15.4,6.35 24.41,8.12l40.94 8.06 -41.2 6.1c-6.42,0.95 -11.99,2.51 -16.63,4.65 -4.34,2.03 -7.86,4.57 -10.5,7.63 -3.09,3.56 -5.81,7.06 -8.1,10.48 -2.25,3.36 -4.11,6.63 -5.55,9.8 -1.89,4.52 -5.03,9.91 -7.35,14.31 -1.46,2.74 -3.27,5.29 -5.4,7.62 -2.06,2.25 -4.44,4.34 -7.09,6.22 -2.87,2.02 -6.32,3.62 -10.3,4.76 -2.06,0.59 -4.28,1.08 -6.67,1.46l0.48 6.26c0.27,3.13 0.64,5.87 1.09,8.16l0.25 1.2 28.28 0.5c6.66,0.18 12.94,0.5 18.77,0.91zm74.76 -119.23c1.71,0 3.31,-0.12 4.88,-0.26l0.92 -0.1 0 -71.78c-3.4,-0.67 -6.5,-1.07 -9.92,-1.46l-4.34 -0.16c-11.82,0 -19.89,2.72 -24.12,8.11 -2.14,2.69 -3.76,6.07 -4.87,10.11 -1.17,4.26 -1.76,9.3 -1.76,15.08 0,13.77 3.1,23.92 9.3,30.42 6.38,6.68 16.35,10.04 29.91,10.04zm5.87 14.03c-2.02,0.18 -4.01,0.32 -5.87,0.32 -16.76,0 -29.54,-4.61 -38.31,-13.79 -8.93,-9.37 -13.41,-23.05 -13.41,-41.02 0,-7.23 0.79,-13.7 2.36,-19.41 1.63,-5.91 4.14,-11.05 7.53,-15.34 6.71,-8.61 17.88,-12.9 33.37,-12.9l5.19 0.23 5.33 0.62c1.78,0.22 3.72,0.58 5.77,1.01l5.78 1.48 4.69 1.4 0 94.8 -8.88 2.07 -3.55 0.53zm212.28 112.46c0,-7.06 0.24,-13.42 0.72,-19.02 0.49,-5.68 1.24,-10.43 2.24,-14.23l1.24 -4.74 4.27 -0.36c3.65,-0.31 6.89,-0.87 9.71,-1.64 2.6,-0.7 4.8,-1.6 6.54,-2.67 1.36,-0.83 2.53,-2.03 3.49,-3.57 1.09,-1.78 1.96,-4.04 2.56,-6.75 0.74,-3.29 1.3,-7.3 1.68,-12.04 0.38,-4.76 0.57,-10.58 0.57,-17.41l0 -184.94c0,-6.51 -0.18,-12.18 -0.53,-16.98 -0.34,-4.76 -0.85,-8.72 -1.49,-11.78 -0.57,-2.67 -1.38,-4.87 -2.38,-6.55 -0.9,-1.5 -2,-2.66 -3.29,-3.46 -1.72,-1.11 -3.87,-2.05 -6.45,-2.82 -2.76,-0.84 -6.03,-1.51 -9.73,-1.98l-3.95 -0.5 -1.27 -4.35c-1.33,-4.54 -2.32,-9.65 -2.96,-15.3 -0.65,-5.64 -0.97,-11.73 -0.97,-18.22l0 -7.47 25.43 1.13 17.71 0.47c34.51,0.4 68.65,-0.5 103.14,-0.78 14.41,-0.04 27.39,1.17 38.92,3.56 11.72,2.44 21.85,6.12 30.37,11 8.6,4.97 15.97,10.8 22.07,17.49 6.22,6.78 11.17,14.53 14.86,23.17 3.55,8.3 6.23,17.15 8.03,26.5 1.79,9.2 2.68,18.85 2.68,28.89 0,11.89 -1.08,23.36 -3.24,34.37 -2.17,10.99 -5.41,21.46 -9.74,31.34 -4.33,9.99 -9.72,18.99 -16.11,26.99 -6.38,7.97 -13.83,14.97 -22.3,20.97 -8.5,6.03 -17.98,10.55 -28.4,13.56 -10.29,2.97 -21.48,4.46 -33.53,4.46 -6.43,0 -12.44,-0.53 -17.99,-1.55 -5.67,-1.04 -10.73,-2.61 -15.15,-4.66l-3.16 -1.49 -1.16 -7.8 0 39c0,10.57 0.75,19.32 2.25,26.22 1.36,6.29 3.29,10.94 5.77,13.91 2.6,3.09 6.3,5.64 11.08,7.56 5.18,2.09 11.61,3.48 19.23,4.12l3.79 0.32 1.5 4.05c0.93,2.52 1.65,5.19 2.17,7.99 0.49,2.77 0.84,5.75 1.01,8.91l0.35 8.53 0.15 16.27 -6.72 -0.57c-4.07,-0.35 -8.7,-0.64 -13.82,-0.83 -5.33,-0.21 -11.31,-0.38 -17.89,-0.45 -35.24,-0.32 -70.08,-0.11 -105.32,0.85l-15.98 0.79 0 -7.51zm13.12 -17.61c-0.26,2.97 -0.44,6.36 -0.53,10.15 36.26,-1.33 72.55,-1.29 108.81,-0.96l18.17 0.45 7.58 0.36 -0.36 -8.57c-0.14,-2.46 -0.41,-4.76 -0.77,-6.84l-0.31 -1.48c-6.95,-0.86 -13.06,-2.35 -18.29,-4.46 -6.65,-2.69 -11.97,-6.42 -15.94,-11.16 -4.03,-4.87 -7.01,-11.67 -8.9,-20.39 -1.76,-8.12 -2.65,-18.02 -2.65,-29.65l0 -228.54 4.37 -1.59c1.93,-0.69 3.98,-1.33 6.08,-1.88 2.01,-0.52 3.91,-0.94 5.63,-1.21l5.23 -0.61 5.02 -0.22c11.53,0 21.65,2.22 30.3,6.67 8.84,4.53 16.08,11.36 21.63,20.44 5.33,8.72 9.33,18.7 11.98,29.93 2.61,11.04 3.91,23.29 3.91,36.69 0,10.19 -0.67,19.44 -1.97,27.67 -1.34,8.45 -3.39,15.76 -6.11,21.91 -2.67,6.08 -5.8,11.35 -9.34,15.8 -3.6,4.52 -7.63,8.16 -12.05,10.84 -8.48,5.19 -17.42,7.78 -26.76,7.78l-4.37 -0.16c-2.85,-0.24 -5.2,-0.48 -8.01,-0.91 -0.46,1.99 -0.77,4.05 -0.92,6.18 -0.25,3.01 -0.2,6.21 0.14,9.57 2.81,1.04 5.86,1.87 9.16,2.48 4.68,0.85 10.05,1.3 16.04,1.3 11.1,0 21.28,-1.35 30.5,-4 9.15,-2.63 17.46,-6.6 24.9,-11.85 7.46,-5.27 14.02,-11.44 19.65,-18.48 5.62,-7.02 10.35,-14.91 14.13,-23.67 3.91,-8.91 6.81,-18.29 8.75,-28.1 1.92,-9.8 2.89,-20.22 2.89,-31.23 0,-9.01 -0.8,-17.63 -2.36,-25.8 -1.53,-8.1 -3.9,-15.88 -7.05,-23.31 -2.98,-7.06 -7.08,-13.43 -12.25,-19.08 -5.25,-5.75 -11.6,-10.78 -19.04,-15.04 -7.54,-4.31 -16.56,-7.57 -27,-9.75 -10.61,-2.2 -22.85,-3.31 -36.71,-3.31 -34.52,0.14 -68.74,1.15 -103.31,0.75l-17.9 -0.47 -12.44 -0.49c0.13,3.2 0.35,6.17 0.67,8.91 0.34,3.01 0.8,5.81 1.36,8.39 2.66,0.48 5.13,1.05 7.38,1.74 3.56,1.07 6.68,2.45 9.28,4.12 3.02,1.89 5.54,4.55 7.55,7.92 1.87,3.16 3.28,6.91 4.21,11.21 0.83,3.98 1.45,8.67 1.84,14.04 0.38,5.34 0.58,11.39 0.58,18.15l0 184.94c0,6.82 -0.23,13.06 -0.67,18.7 -0.44,5.63 -1.12,10.42 -2.02,14.34 -1.02,4.45 -2.5,8.26 -4.43,11.4 -2.1,3.38 -4.71,6.04 -7.82,7.94 -2.7,1.66 -5.88,2.99 -9.5,3.99 -2.2,0.62 -4.56,1.1 -7.12,1.47 -0.33,2.07 -0.62,4.4 -0.84,6.98zm99.31 -128.17c0.58,-4.48 1.65,-8.76 3.21,-12.82l2.08 -5.44 8.66 2.17 3.92 0.61 3.79 0.34 3.76 0.09c7.28,0 14.27,-2.03 20.9,-6.07 3.19,-1.91 6.1,-4.55 8.73,-7.85 2.7,-3.39 5.18,-7.62 7.39,-12.62 2.2,-4.96 3.86,-10.96 4.98,-17.99 1.14,-7.18 1.72,-15.56 1.72,-25.12 0,-12.2 -1.16,-23.21 -3.46,-32.99 -2.26,-9.6 -5.64,-18.08 -10.12,-25.39 -4.25,-6.95 -9.77,-12.18 -16.51,-15.63 -6.95,-3.58 -15.38,-5.36 -25.22,-5.36l-4.13 0.15 -4.41 0.5 -5.29 1.17 0 162.25zm169.04 145.78l0.2 -9.48c0.12,-3.07 0.3,-5.91 0.54,-8.44 0.25,-2.85 0.64,-5.57 1.17,-8.13 0.56,-2.67 1.27,-5.27 2.12,-7.77l1.56 -4.56 4.25 0c5.77,0 9.82,-2.08 12.16,-6.23 1.3,-2.31 2.34,-5.95 3.09,-10.86 0.81,-5.38 1.23,-12.18 1.23,-20.33l0 -86.05c0,-8.17 -0.42,-14.96 -1.23,-20.34 -0.75,-4.9 -1.79,-8.53 -3.09,-10.84 -1.14,-2.03 -2.64,-3.56 -4.46,-4.54 -2.02,-1.1 -4.6,-1.65 -7.7,-1.65l-4.25 0 -1.56 -4.6c-0.86,-2.55 -1.58,-5.17 -2.11,-7.79 -0.54,-2.56 -0.93,-5.29 -1.17,-8.15 -0.25,-2.51 -0.43,-5.34 -0.55,-8.42l-0.2 -9.51 0 -7.51 18.78 0.95 31.16 0.85 18.78 0.1 19.84 -0.1 35.75 -0.86 19.79 -0.93 0 7.5c0,5.44 -0.24,11.14 -0.69,17.05 -0.25,3.05 -0.67,5.94 -1.21,8.73 -0.56,2.9 -1.25,5.6 -2.07,8.06l-1.44 4.32 -4.02 0.28c-6.84,0.45 -12.58,1.44 -17.15,2.92 -4.13,1.32 -7.23,3.03 -9.27,5.06 -1.85,1.84 -3.29,4.67 -4.31,8.46 -1.17,4.39 -1.76,10 -1.76,16.84l0 11.05 5.2 -0.39c4.58,-0.27 9.26,-0.42 13.97,-0.42 17.3,0 32.59,1.6 45.8,4.79 13.5,3.24 24.86,8.18 34.01,14.75 9.53,6.88 16.7,15.65 21.48,26.27 4.74,10.51 7.12,22.75 7.12,36.68 0,12.2 -2.15,23.21 -6.43,33 -4.28,9.78 -10.67,18.23 -19.14,25.3 -8.38,7.01 -19.46,12.23 -33.18,15.63 -13.34,3.31 -29.32,4.97 -47.86,4.97l-62.87 0.21 -28.99 0.44c-9.01,0.21 -17.29,0.5 -24.79,0.84l-6.5 0.29 0 -7.44zm12.64 -8.82l-0.05 1.41 18.45 -0.57 29.19 -0.44 62.92 -0.24c17.7,-0.04 32.79,-1.58 45.22,-4.66 12.08,-2.98 21.58,-7.37 28.5,-13.16 6.83,-5.7 11.95,-12.44 15.33,-20.15 3.37,-7.7 5.06,-16.58 5.06,-26.61 0,-11.65 -1.91,-21.7 -5.7,-30.12 -3.75,-8.31 -9.42,-15.22 -16.97,-20.67 -7.95,-5.68 -17.96,-10.01 -29.98,-12.9 -12.27,-2.95 -26.71,-4.44 -43.26,-4.44 -5.04,0 -9.49,0.12 -13.33,0.35 -3.95,0.24 -7.74,0.64 -11.33,1.15l-7.01 1.01 0 -27.11c0,-8.17 0.79,-15.19 2.35,-21.04 1.72,-6.41 4.42,-11.45 8.08,-15.08 3.44,-3.43 8.13,-6.12 14.04,-8.02 4.41,-1.42 9.59,-2.46 15.51,-3.07l0.4 -1.84c0.41,-2.12 0.73,-4.46 0.95,-6.95l0.46 -8.26c-14.26,0.54 -28.53,0.82 -42.8,1.12l-19.95 0.16 -18.93 -0.16c-12.4,-0.29 -24.79,-0.58 -37.19,-1.1l0.04 1.35c0.1,2.66 0.27,5.19 0.5,7.59 0.18,2.14 0.49,4.25 0.92,6.35l0.36 1.66c3.08,0.45 5.9,1.36 8.44,2.74 3.96,2.16 7.17,5.4 9.59,9.7 2.25,3.97 3.9,9.38 4.93,16.18 0.95,6.31 1.44,13.92 1.44,22.79l0 86.05c0,8.86 -0.49,16.47 -1.44,22.76 -1.03,6.82 -2.68,12.25 -4.93,16.22 -4.06,7.21 -10.07,11.37 -18.04,12.49l-0.35 1.56c-0.43,2.13 -0.74,4.23 -0.92,6.31l-0.5 7.64zm213.51 8.82l0.2 -9.22 0.53 -8.65c0.27,-2.88 0.68,-5.62 1.21,-8.18 0.56,-2.67 1.25,-5.25 2.07,-7.71l1.54 -4.62 4.29 0c6.04,0 10.13,-2.05 12.34,-6.11 1.28,-2.36 2.28,-6.03 3,-10.93 0.78,-5.37 1.18,-12.18 1.18,-20.38l0 -86.05c0,-8.22 -0.4,-15.02 -1.18,-20.39 -0.72,-4.9 -1.72,-8.55 -3,-10.9 -1.07,-1.98 -2.52,-3.47 -4.31,-4.43 -2.06,-1.1 -4.74,-1.65 -8.03,-1.65l-4.3 0 -1.53 -4.65c-0.84,-2.56 -1.54,-5.16 -2.07,-7.74 -0.53,-2.62 -0.94,-5.34 -1.21,-8.15l-0.53 -8.66 -0.2 -9.27 0 -7.51 18.62 0.95 29.38 0.85 16.27 0.1 16.26 -0.1 29.38 -0.85 18.59 -0.95 0 7.51c0,6.57 -0.24,12.55 -0.69,17.88 -0.26,2.89 -0.68,5.62 -1.21,8.2 -0.54,2.67 -1.24,5.27 -2.07,7.76l-1.54 4.63 -4.29 0c-3.11,0 -5.69,0.55 -7.72,1.65 -1.81,0.98 -3.3,2.5 -4.42,4.51 -1.34,2.38 -2.39,5.99 -3.14,10.86 -0.82,5.39 -1.24,12.19 -1.24,20.35l0 86.05c0,15.63 1.46,26.07 4.36,31.16 1.14,2.08 2.63,3.59 4.44,4.58 2.04,1.11 4.62,1.68 7.72,1.68l4.26 0 1.55 4.6c0.82,2.46 1.52,5.06 2.07,7.73 0.55,2.58 0.96,5.31 1.23,8.13 0.21,2.61 0.4,5.44 0.5,8.48l0.19 9.44 0 7.43 -32.07 -1.32 -15.9 -0.36 -16.26 -0.09 -16.14 0.09 -16.01 0.36 -32.12 1.32 0 -7.43zm12.65 -8.61l-0.05 1.18 19.14 -0.74 16.24 -0.37 16.29 -0.16 16.41 0.16 16.09 0.37 19.14 0.74 -0.49 -8.98c-0.21,-2.11 -0.53,-4.24 -0.96,-6.34l-0.34 -1.6c-3.09,-0.45 -5.92,-1.38 -8.45,-2.76 -3.97,-2.16 -7.17,-5.4 -9.58,-9.69 -4.27,-7.49 -6.41,-20.54 -6.41,-39l0 -86.05c0,-8.91 0.49,-16.52 1.45,-22.81 1.04,-6.82 2.71,-12.24 4.96,-16.19 2.42,-4.28 5.63,-7.51 9.58,-9.67 2.53,-1.38 5.35,-2.29 8.42,-2.73l0.37 -1.64c0.43,-2.14 0.76,-4.26 0.95,-6.36 0.23,-2.66 0.39,-5.64 0.48,-8.95 -11.74,0.5 -23.47,0.79 -35.21,1.09l-16.41 0.16 -16.42 -0.16c-11.75,-0.3 -23.49,-0.59 -35.24,-1.1l0.52 8.94c0.2,2.15 0.53,4.28 0.95,6.35l0.37 1.65c3.18,0.44 6.09,1.35 8.69,2.75 4.07,2.18 7.28,5.47 9.64,9.82 2.12,3.93 3.7,9.32 4.69,16.11 0.93,6.3 1.39,13.89 1.39,22.74l0 86.05c0,8.83 -0.46,16.42 -1.39,22.74 -0.99,6.79 -2.57,12.19 -4.69,16.12 -3.96,7.32 -10.06,11.52 -18.35,12.62l-0.34 1.55c-0.43,2.12 -0.76,4.26 -0.96,6.36l-0.48 7.8zm-136.62 -58.99c0,6.72 0.51,12.21 1.51,16.44 0.82,3.5 1.95,6 3.33,7.43 1.64,1.74 3.63,3.05 5.92,3.94 2.39,0.93 5.2,1.41 8.41,1.41 16.64,0 24.99,-10.09 24.99,-30.25 0,-8.11 -0.85,-14.96 -2.54,-20.5 -1.57,-5.14 -3.87,-9.25 -6.9,-12.25 -3.35,-3.29 -6.89,-5.75 -10.59,-7.34 -3.7,-1.59 -7.74,-2.39 -12.09,-2.39l-7.93 0.22 -4.11 0.24 0 43.05zm-10.55 20.2c-1.29,-5.48 -1.95,-12.22 -1.95,-20.2l0 -56.34c8.38,-0.72 16.1,-1.25 24.54,-1.53 5.75,0 11.23,1.13 16.43,3.36 5.18,2.23 10,5.53 14.4,9.88 4.71,4.7 8.22,10.85 10.51,18.39 2.19,7.16 3.28,15.57 3.28,25.21 0,29.73 -12.53,44.6 -37.49,44.6 -4.51,0 -8.66,-0.74 -12.41,-2.2 -3.87,-1.51 -7.3,-3.8 -10.25,-6.88 -3.23,-3.32 -5.6,-8.1 -7.06,-14.29zm307.19 56.64c-7.25,0 -14.06,-1.36 -20.27,-4.07 -3.1,-1.34 -5.86,-2.87 -8.25,-4.56 -2.54,-1.8 -4.69,-3.83 -6.43,-6.03l-1.2 -1.52 -0.31 -1.95c-0.65,-3.94 -1.02,-8.3 -1.1,-13.04 -0.06,-4.67 0.13,-9.65 0.59,-14.9 0.47,-5.21 1.14,-10.12 2.02,-14.7 0.9,-4.66 2.01,-8.88 3.31,-12.6l2.08 -5.93 5.37 1.7 4.81 1.27c3.95,0.75 7.31,1.28 11.28,1.8l4.55 0.23c6.15,0 11.4,-1.93 15.72,-5.79 4.55,-4.03 8.31,-10.34 11.24,-18.86 3.23,-9.39 6.02,-20.73 8.34,-34 2.35,-13.42 4.28,-28.88 5.74,-46.32 0.3,-5.06 0.43,-9.36 0.4,-12.84 -0.03,-3.28 -0.22,-6.04 -0.55,-8.22 -0.17,-1.18 -0.51,-2.1 -0.99,-2.73 -0.56,-0.74 -1.38,-1.32 -2.48,-1.75 -1.83,-0.72 -4.34,-1.4 -7.52,-2.01 -3.46,-0.66 -7.52,-1.23 -12.16,-1.7l-4.06 -0.42 -1.3 -4.43c-0.81,-2.74 -1.49,-5.51 -2.02,-8.27 -0.54,-2.76 -0.94,-5.46 -1.17,-8.07 -0.24,-2.41 -0.42,-5.15 -0.55,-8.14l-0.19 -9.08 0 -7.7 6.7 0.56c4.59,0.38 9.78,0.68 15.56,0.87 6.15,0.22 13.03,0.38 20.61,0.44l59.76 0.25 40.21 -0.13c11.41,-0.07 21.04,-0.22 28.8,-0.4l19.3 -0.46 21.39 -0.9 0 7.47c0,6.57 -0.24,12.55 -0.69,17.88 -0.26,2.85 -0.67,5.58 -1.19,8.17 -0.53,2.62 -1.24,5.25 -2.11,7.82l-1.57 4.6 -4.24 0c-3.27,0 -5.95,0.55 -8.01,1.65 -1.8,0.97 -3.25,2.44 -4.29,4.4 -1.3,2.34 -2.31,5.98 -3.03,10.92 -0.79,5.36 -1.19,12.18 -1.19,20.4l0 86.05c0,8.21 0.4,15.03 1.19,20.41 0.72,4.93 1.73,8.58 3,10.9 1.1,1.98 2.54,3.46 4.34,4.43 2.05,1.11 4.73,1.68 7.99,1.68l4.24 0 1.57 4.56c0.85,2.51 1.56,5.14 2.11,7.81 0.53,2.59 0.94,5.32 1.19,8.09 0.21,2.61 0.39,5.44 0.5,8.48l0.19 9.44 0 7.43 -32.08 -1.32 -16.01 -0.36 -16.14 -0.09 -16.14 0.09 -16.01 0.36 -32.08 1.32 0 -7.43 0.19 -9.44c0.12,-3.06 0.31,-5.89 0.54,-8.45 0.24,-2.82 0.64,-5.53 1.17,-8.11 0.54,-2.67 1.24,-5.27 2.07,-7.76l1.54 -4.62 4.29 0c5.78,0 9.85,-2.09 12.2,-6.23 1.3,-2.31 2.34,-5.95 3.09,-10.86 0.81,-5.38 1.23,-12.18 1.23,-20.33l0 -91.15c0,-7.39 -0.31,-13.49 -0.92,-18.25 -0.56,-4.26 -1.31,-7.33 -2.24,-9.17 -0.52,-1.03 -1.85,-1.95 -3.97,-2.72 -3.02,-1.09 -7.2,-1.64 -12.51,-1.64 -3.53,0 -6.49,0.25 -8.84,0.72 -2,0.39 -3.51,0.94 -4.48,1.6 -0.77,0.52 -1.43,1.29 -1.97,2.26 -0.67,1.22 -1.19,2.84 -1.56,4.84 -0.49,2.68 -0.98,5.98 -1.44,9.84 -0.48,4.06 -0.94,8.64 -1.36,13.68l0 0.17c-1.2,11.58 -2.5,22.91 -3.89,33.91 -1.37,10.99 -2.85,21.6 -4.42,31.78 -1.58,10.26 -3.43,20.01 -5.53,29.25 -2.1,9.23 -4.47,17.87 -7.08,25.86 -2.68,8.21 -5.77,15.55 -9.22,21.95 -3.56,6.6 -7.56,12.32 -11.95,17.09 -4.59,4.97 -9.75,8.73 -15.42,11.25 -5.69,2.5 -11.79,3.77 -18.29,3.77zm-15.87 -17.46c4.73,2.06 10.07,3.11 15.87,3.11 5.06,0 9.68,-0.94 13.8,-2.75 4.13,-1.84 7.94,-4.63 11.36,-8.34 3.63,-3.93 6.94,-8.68 9.9,-14.18 3.06,-5.67 5.79,-12.17 8.16,-19.45 2.46,-7.59 4.7,-15.73 6.68,-24.44 1.98,-8.68 3.75,-18.07 5.3,-28.11 1.55,-10.11 3.01,-20.56 4.36,-31.34 1.35,-10.74 2.63,-21.95 3.84,-33.58 0.46,-5.39 0.94,-10.1 1.41,-14.07 0.51,-4.27 1.04,-7.92 1.58,-10.88 0.67,-3.65 1.76,-6.83 3.24,-9.53 1.61,-2.93 3.67,-5.26 6.15,-6.95 2.27,-1.55 5.19,-2.69 8.69,-3.39 3.12,-0.64 6.8,-0.96 10.98,-0.96 6.58,0 12.01,0.77 16.27,2.32 5.17,1.87 8.84,4.96 11,9.22 1.74,3.45 3.02,8.21 3.8,14.27 0.71,5.53 1.07,12.31 1.07,20.32l0 91.15c0,8.86 -0.49,16.47 -1.44,22.76 -1.03,6.82 -2.69,12.25 -4.93,16.22 -4.07,7.2 -10.09,11.36 -18.05,12.48l-0.36 1.6c-0.42,2.08 -0.73,4.19 -0.91,6.28l-0.54 9.03 19.11 -0.74 16.24 -0.37 16.29 -0.16 16.29 0.16 16.2 0.37 19.15 0.74 -0.5 -8.98c-0.19,-2.14 -0.52,-4.28 -0.94,-6.35l-0.35 -1.57c-3.2,-0.45 -6.11,-1.39 -8.71,-2.78 -4.07,-2.19 -7.3,-5.49 -9.63,-9.85 -2.14,-3.99 -3.72,-9.36 -4.71,-16.08 -0.93,-6.32 -1.39,-13.91 -1.39,-22.76l0 -86.05c0,-8.85 0.46,-16.46 1.39,-22.76 1,-6.73 2.59,-12.09 4.74,-16.06 2.33,-4.38 5.56,-7.68 9.61,-9.85 2.61,-1.4 5.51,-2.31 8.7,-2.75l0.35 -1.62c0.42,-2.08 0.75,-4.22 0.94,-6.36 0.23,-2.67 0.4,-5.67 0.48,-9l-27.83 0.73 -29.01 0.41 -40.25 0.16 -59.86 -0.28c-7.85,-0.07 -14.82,-0.23 -20.87,-0.44l-9.29 -0.41 0.52 8.03c0.19,2.19 0.5,4.36 0.92,6.52l0.53 2.48c3.37,0.41 6.35,0.86 8.92,1.35 3.86,0.74 7.06,1.62 9.54,2.62 3.2,1.29 5.8,3.23 7.78,5.83 2.04,2.66 3.34,5.9 3.91,9.71 0.42,2.75 0.67,6.29 0.7,10.56 0.04,4.08 -0.09,8.74 -0.4,13.9l-0.02 0.2c-1.5,17.98 -3.5,34 -5.95,47.97 -2.5,14.24 -5.49,26.4 -8.93,36.44 -3.76,10.92 -8.84,19.26 -15.21,24.93 -6.58,5.88 -14.39,8.83 -23.37,8.83 -1.62,0 -3.48,-0.1 -5.55,-0.29l-6.26 -0.83 -6.41 -1.19 -1.03 4.58c-0.74,3.88 -1.34,8.26 -1.77,13.06 -0.43,4.8 -0.6,9.2 -0.54,13.16 0.04,3.04 0.24,5.89 0.59,8.56 0.72,0.71 1.58,1.41 2.54,2.1 1.68,1.19 3.73,2.32 6.11,3.34zm250.5 8.22l0.2 -9.48c0.12,-3.07 0.3,-5.91 0.54,-8.44 0.25,-2.85 0.64,-5.57 1.17,-8.13 0.56,-2.67 1.27,-5.27 2.12,-7.77l1.56 -4.56 4.25 0c5.77,0 9.82,-2.08 12.16,-6.23 1.3,-2.31 2.34,-5.95 3.09,-10.86 0.81,-5.38 1.23,-12.18 1.23,-20.33l0 -86.05c0,-8.17 -0.42,-14.96 -1.23,-20.34 -0.75,-4.9 -1.79,-8.53 -3.09,-10.84 -1.14,-2.03 -2.64,-3.56 -4.46,-4.54 -2.02,-1.1 -4.6,-1.65 -7.7,-1.65l-4.25 0 -1.56 -4.6c-0.86,-2.55 -1.58,-5.17 -2.11,-7.79 -0.54,-2.56 -0.93,-5.29 -1.17,-8.15 -0.25,-2.51 -0.43,-5.34 -0.55,-8.42l-0.2 -9.51 0 -7.51 18.78 0.95 31.16 0.85 18.74 0.1 19.88 -0.1 35.77 -0.86 19.77 -0.93 0 7.5c0,5.51 -0.24,11.22 -0.73,17.1 -0.24,3.02 -0.63,5.93 -1.17,8.68 -0.56,2.92 -1.26,5.62 -2.07,8.06l-1.44 4.32 -4.02 0.28c-6.84,0.45 -12.58,1.44 -17.15,2.92 -4.13,1.32 -7.23,3.03 -9.26,5.06 -1.86,1.84 -3.31,4.68 -4.33,8.46 -1.18,4.39 -1.78,10.01 -1.78,16.84l0 12.37 5.72 -0.27c4.96,-0.19 9.75,-0.29 14.35,-0.29 18.35,0 34.54,1.57 48.53,4.68 14.25,3.19 26.27,8.03 36.02,14.5 20.37,13.5 30.56,34.27 30.56,62.27 0,11.9 -2.27,22.73 -6.79,32.43 -4.48,9.62 -11.15,18.02 -19.97,25.14 -8.71,7.05 -20.35,12.31 -34.89,15.75 -14.15,3.36 -31.08,5.05 -50.78,5.05l-38.02 0.02 -31.98 0.19 -26.13 0.44c-8.06,0.21 -15.5,0.5 -22.25,0.84l-6.52 0.33 0 -7.48zm12.64 -8.82l-0.04 1.38 15.92 -0.54 26.33 -0.44 70.05 -0.24c18.99,-0.04 35.09,-1.62 48.29,-4.74 12.81,-3.04 22.89,-7.53 30.2,-13.45 7.23,-5.83 12.63,-12.57 16.17,-20.16 3.51,-7.53 5.27,-16.11 5.27,-25.7 0,-22.53 -8.11,-39.17 -24.29,-49.89 -8.53,-5.65 -19.26,-9.94 -32.14,-12.81 -13.13,-2.92 -28.54,-4.4 -46.18,-4.4 -5.51,0 -10.18,0.08 -13.96,0.22 -4.05,0.16 -8.01,0.42 -11.87,0.77l-6.74 0.63 0 -27.78c0,-8.17 0.8,-15.2 2.37,-21.04 1.73,-6.41 4.43,-11.45 8.09,-15.08 3.44,-3.43 8.13,-6.12 14.04,-8.02 4.42,-1.42 9.59,-2.46 15.52,-3.07l0.38 -1.81c0.41,-2.16 0.74,-4.48 0.92,-6.89l0.5 -8.35c-14.27,0.54 -28.53,0.82 -42.8,1.12l-19.99 0.16 -18.89 -0.16c-12.4,-0.29 -24.79,-0.58 -37.19,-1.1l0.04 1.35c0.1,2.66 0.27,5.19 0.5,7.59 0.18,2.14 0.49,4.25 0.92,6.35l0.36 1.66c3.08,0.45 5.9,1.36 8.44,2.74 3.96,2.16 7.17,5.4 9.59,9.7 2.25,3.97 3.9,9.38 4.93,16.18 0.95,6.31 1.44,13.92 1.44,22.79l0 86.05c0,8.86 -0.49,16.47 -1.44,22.76 -1.03,6.82 -2.68,12.25 -4.93,16.22 -4.06,7.21 -10.07,11.37 -18.04,12.49l-0.35 1.56c-0.43,2.13 -0.74,4.23 -0.92,6.31l-0.5 7.64zm89.51 -58.78c0,6.92 0.52,12.5 1.54,16.71 0.85,3.48 1.99,5.91 3.38,7.26 1.73,1.7 3.81,2.98 6.21,3.85 2.59,0.93 5.57,1.4 8.94,1.4 20.82,0 31.25,-10.09 31.25,-30.25 0,-7.61 -0.96,-14.08 -2.85,-19.34 -1.79,-4.96 -4.47,-9 -8,-12.04 -3.93,-3.38 -8.15,-5.92 -12.66,-7.59 -4.55,-1.68 -9.51,-2.52 -14.84,-2.52l-12.97 0.53 0 41.99zm-10.46 20.52c-1.35,-5.58 -2.04,-12.44 -2.04,-20.52l0 -55.2c8.66,-0.87 16.8,-1.36 25.47,-1.68 6.56,0 12.78,1.09 18.65,3.26 5.88,2.18 11.33,5.43 16.34,9.77 5.33,4.62 9.36,10.66 12.02,18.04 2.55,7.09 3.85,15.36 3.85,24.78 0,29.73 -14.61,44.6 -43.76,44.6 -4.63,0 -8.86,-0.69 -12.67,-2.08 -3.94,-1.44 -7.45,-3.63 -10.48,-6.59 -3.37,-3.25 -5.84,-8.06 -7.38,-14.38zm157.23 47.08l0.19 -9.44c0.12,-3.06 0.31,-5.89 0.54,-8.45 0.25,-2.83 0.65,-5.58 1.18,-8.16 0.59,-2.75 1.29,-5.36 2.12,-7.77l1.57 -4.56 4.24 0c5.74,0 9.82,-2.08 12.16,-6.23 1.32,-2.36 2.36,-5.98 3.09,-10.82 0.82,-5.41 1.23,-12.22 1.23,-20.37l0 -86.05c0,-8.17 -0.41,-14.97 -1.23,-20.35 -0.73,-4.87 -1.77,-8.47 -3.09,-10.8 -1.14,-2.06 -2.65,-3.58 -4.47,-4.57 -2.03,-1.1 -4.61,-1.65 -7.69,-1.65l-4.25 0 -1.56 -4.6c-0.86,-2.55 -1.58,-5.17 -2.11,-7.79 -0.54,-2.56 -0.93,-5.29 -1.18,-8.15l-0.55 -8.42 -0.19 -9.51 0 -7.51 18.59 0.95 29.41 0.85 16.27 0.1 16.24 -0.1 29.35 -0.85 18.65 -0.94 0 7.5 -0.2 9.29c-0.12,3.11 -0.32,5.98 -0.54,8.59 -0.26,2.86 -0.67,5.59 -1.2,8.17 -0.54,2.67 -1.24,5.27 -2.07,7.79l-1.54 4.63 -4.29 0c-3.27,0 -5.95,0.55 -8.01,1.65 -1.81,0.97 -3.25,2.45 -4.3,4.4 -1.29,2.33 -2.29,5.98 -3.01,10.92 -0.78,5.36 -1.17,12.17 -1.17,20.4l0 16.65 4.24 -0.56c3.06,-0.51 5.75,-1.28 8.04,-2.28 2.24,-0.97 4.42,-2.31 6.5,-3.98 2.14,-1.74 4.17,-3.8 6.04,-6.18 2.02,-2.56 4.24,-5.75 6.65,-9.57 2.38,-3.78 4.85,-8.03 7.37,-12.7l11.94 -19.66c3.51,-5.65 6.95,-11 10.27,-16.01 3.34,-5.03 6.84,-9.45 10.45,-13.23 3.69,-3.85 7.55,-7.1 11.54,-9.66 4.07,-2.64 8.56,-4.61 13.44,-5.92 4.85,-1.28 10,-1.93 15.46,-1.93 2.16,0 4.55,0.1 7.13,0.28 2.38,0.17 4.82,0.46 7.29,0.83l6.71 1.18c2.14,0.41 4.25,0.95 6.25,1.51l5.33 1.52 -0.62 6.25c-0.45,4.45 -0.77,9.23 -0.95,14.26 -0.18,5.16 -0.23,10.71 -0.15,16.6 0.07,5.7 0.32,11.24 0.73,16.57 0.39,5.16 0.94,9.83 1.62,13.97l1.09 6.63 -5.72 1.63c-2.54,0.73 -5.28,1.39 -8.17,1.96 -2.92,0.59 -6.04,1.1 -9.3,1.54 -3.27,0.42 -6.58,0.71 -9.93,0.84 -3.29,0.12 -6.52,0.11 -9.64,-0.06l-5.22 -0.3 -0.66 -5.95c-0.54,-4.87 -1.19,-8.86 -1.9,-11.92 -0.53,-2.22 -0.96,-3.58 -1.27,-3.99 -0.39,-0.51 -0.79,-0.88 -1.19,-1.08 -0.38,-0.18 -0.89,-0.28 -1.48,-0.28 -1.17,0 -2.26,0.29 -3.25,0.84 -1.21,0.7 -2.4,1.76 -3.55,3.17 -1.62,2.07 -3.4,4.56 -5.29,7.44 -1.91,2.92 -4.04,6.41 -6.35,10.41 -2.39,4.21 -4.83,8.26 -7.27,12.1 -2.33,3.66 -4.47,6.78 -6.38,9.34 -1.08,1.44 -2.26,2.83 -3.53,4.16l5.78 1.96c6.6,2.53 12.39,5.79 17.35,9.76 4.94,3.97 9.75,9.26 14.42,15.83 4.54,6.4 8.99,14.06 13.3,22.93l8.82 16.57c2.7,4.93 5.1,9.13 7.13,12.53 2,3.29 3.97,6.08 5.89,8.36 1.82,2.18 3.66,3.94 5.48,5.28 1.83,1.32 3.92,2.44 6.23,3.32 2.53,0.91 5.27,1.62 8.2,2.06l5.47 0.81 0 6.28c0,2.64 -0.09,5.52 -0.26,8.62 -0.14,2.83 -0.38,5.7 -0.71,8.61 -0.31,3.07 -0.83,5.96 -1.52,8.67 -0.72,2.81 -1.65,5.4 -2.72,7.71l-1.78 3.79 -16.79 0.15 -16.39 0.59c-5.88,0.25 -11.66,0.69 -17.31,1.31 -5.58,0.61 -11.07,1.44 -16.44,2.44l-2.43 0.45 -2.02 -1.54c-3.98,-3.05 -7.67,-6.65 -11.02,-10.77 -3.32,-4.11 -6.32,-8.73 -8.99,-13.8 -2.62,-5.05 -5.07,-10.09 -7.3,-14.99 -2.23,-4.94 -4.46,-10.19 -6.63,-15.72 -1.98,-5.05 -4.09,-10.14 -6.3,-15.24 -2.11,-4.9 -4.33,-9.72 -6.61,-14.44 -2.13,-4.4 -4.48,-8.39 -7.01,-11.93 -2.51,-3.5 -5.24,-6.6 -8.15,-9.25 -2.65,-2.39 -5.58,-4.14 -8.79,-5.19 -1.63,-0.54 -3.36,-0.91 -5.17,-1.11l0 27.58c0,8.2 0.39,15.02 1.17,20.4 0.72,4.93 1.72,8.59 2.98,10.91 1.07,1.96 2.53,3.44 4.35,4.43 2.05,1.11 4.73,1.68 7.99,1.68l4.29 0 1.54 4.62c0.82,2.47 1.51,5.06 2.06,7.71 0.54,2.58 0.94,5.3 1.21,8.13 0.22,2.68 0.42,5.57 0.54,8.67l0.2 9.25 0 7.43 -32.12 -1.32 -16.01 -0.36 -16.11 -0.09 -16.14 0.09 -16.05 0.36 -32.08 1.32 0 -7.43zm12.64 -8.8l-0.05 1.37 19.11 -0.74 16.28 -0.37 16.29 -0.16 16.26 0.16 16.2 0.37 19.18 0.74 -0.53 -8.98c-0.21,-2.11 -0.53,-4.23 -0.96,-6.33l-0.35 -1.6c-3.19,-0.44 -6.09,-1.38 -8.69,-2.77 -4.04,-2.17 -7.27,-5.47 -9.62,-9.85 -2.15,-3.99 -3.73,-9.37 -4.7,-16.09 -0.92,-6.32 -1.38,-13.91 -1.38,-22.75l0 -41.55 5.86 -0.42c5.46,-0.4 10.55,0.18 15.22,1.72 4.82,1.58 9.2,4.19 13.11,7.77 3.63,3.32 6.99,7.13 10.03,11.36 3.02,4.22 5.79,8.93 8.27,14.07 2.34,4.82 4.65,9.84 6.89,15 2.18,4.97 4.36,10.25 6.52,15.75 1.94,4.97 4.09,9.99 6.34,14.99 2.33,5.11 4.65,9.89 6.91,14.26 2.24,4.29 4.72,8.1 7.4,11.4 2.15,2.61 4.44,4.95 6.88,7.02 4.81,-0.84 9.73,-1.55 14.76,-2.1 5.85,-0.64 11.88,-1.1 18.03,-1.36l16.54 -0.59 9.3 -0.18 0.33 -1.22c0.48,-1.85 0.85,-3.97 1.09,-6.31 0.4,-1.51 0.65,-7.41 0.74,-9.57 -1.75,-0.44 -3.4,-0.96 -4.95,-1.54 -3.32,-1.3 -6.33,-2.9 -8.97,-4.81 -2.62,-1.94 -5.21,-4.4 -7.75,-7.42 -2.47,-2.89 -4.88,-6.29 -7.21,-10.14 -2.25,-3.79 -4.73,-8.16 -7.44,-13.09l-9.15 -17.19c-4,-8.21 -8.04,-15.2 -12.1,-20.92 -3.94,-5.55 -7.91,-9.94 -11.88,-13.12 -3.96,-3.18 -8.69,-5.83 -14.15,-7.92 -5.54,-2.12 -11.94,-3.68 -19.17,-4.66l-22.28 -3.04 20.45 -10.6c2.91,-1.51 5.49,-3.19 7.71,-5 2.14,-1.74 3.98,-3.66 5.5,-5.69 1.82,-2.39 3.75,-5.22 5.8,-8.44 1.92,-3.03 4.23,-6.9 6.88,-11.53 2.42,-4.17 4.7,-7.9 6.83,-11.15 2.24,-3.4 4.26,-6.25 6.04,-8.49l0.07 -0.05c2.27,-2.79 4.69,-4.92 7.26,-6.36 2.78,-1.54 5.68,-2.33 8.68,-2.33 2.33,0 4.54,0.55 6.61,1.61 2.08,1.09 3.87,2.65 5.43,4.69 1.61,2.13 2.94,5.37 3.95,9.71 0.51,2.15 0.99,4.73 1.42,7.71l3.51 -0.07c2.8,-0.1 5.78,-0.38 8.9,-0.77 3.1,-0.43 5.98,-0.91 8.63,-1.44l1.71 -0.34 -0.84 -8.49c-0.4,-5.19 -0.65,-11.07 -0.72,-17.59 -0.09,-6.26 -0.04,-12.07 0.15,-17.38l0.45 -8.85 -6.31 -1.12 -6.47 -0.73 -6.37 -0.22c-4.61,0 -8.82,0.51 -12.62,1.52 -3.74,1 -7.15,2.5 -10.19,4.47 -3.14,2.02 -6.23,4.62 -9.23,7.76 -3.07,3.21 -6.07,7.01 -8.95,11.34 -2.89,4.36 -6.23,9.58 -10.01,15.63 -3.51,5.61 -7.4,12 -11.65,19.13 -2.72,5.03 -5.3,9.48 -7.72,13.31 -2.54,4.04 -5.07,7.63 -7.52,10.75 -2.57,3.25 -5.28,6.03 -8.1,8.31 -2.92,2.36 -6.03,4.26 -9.27,5.66 -3.18,1.39 -6.72,2.41 -10.58,3.07 -3.77,0.66 -7.9,0.99 -12.35,0.99l-6.25 0 0 -31.26c0,-8.85 0.46,-16.45 1.38,-22.76 0.97,-6.73 2.55,-12.09 4.71,-16.06 2.34,-4.38 5.57,-7.68 9.62,-9.85 2.6,-1.4 5.5,-2.31 8.67,-2.75l0.36 -1.65c0.43,-2.08 0.76,-4.21 0.95,-6.33l0.54 -8.96c-11.75,0.51 -23.49,0.8 -35.25,1.1l-16.39 0.16 -16.42 -0.16c-11.76,-0.3 -23.51,-0.59 -35.26,-1.09l0.54 8.93c0.19,2.13 0.5,4.24 0.93,6.35l0.36 1.67c3.07,0.44 5.88,1.35 8.42,2.73 3.96,2.16 7.18,5.39 9.61,9.68 2.25,3.94 3.9,9.35 4.93,16.18 0.97,6.29 1.44,13.9 1.44,22.81l0 86.05c0,8.89 -0.47,16.5 -1.43,22.81 -1.04,6.82 -2.69,12.25 -4.94,16.2 -4.07,7.18 -10.11,11.34 -18.05,12.46l-0.36 1.57c-0.41,2.1 -0.72,4.22 -0.91,6.32l-0.49 7.64zm364.77 19.07c-18.38,0 -34.74,-2.83 -49.04,-8.47 -14.51,-5.71 -26.91,-14.35 -37.17,-25.86 -10.23,-11.49 -17.94,-25.02 -23.05,-40.5 -5.07,-15.35 -7.61,-32.58 -7.61,-51.67 0,-13.72 1.29,-26.49 3.86,-38.27 2.6,-11.87 6.54,-22.76 11.77,-32.57 5.19,-9.78 11.36,-18.45 18.46,-25.98 7.14,-7.54 15.21,-13.97 24.19,-19.21 8.89,-5.2 18.43,-9.12 28.58,-11.73 10.09,-2.6 20.69,-3.92 31.77,-3.92 12.62,0 24.27,1.33 34.93,4 10.79,2.7 20.59,6.79 29.37,12.22 8.78,5.44 16.52,11.94 23.18,19.47 6.69,7.54 12.3,16.13 16.83,25.74 4.51,9.54 7.9,19.8 10.14,30.75 2.23,10.95 3.35,22.59 3.35,34.89 0,13.09 -1.23,25.44 -3.66,36.98 -2.46,11.64 -6.14,22.36 -11.01,32.13 -4.9,9.81 -10.87,18.55 -17.91,26.21 -6.97,7.59 -15.02,14.13 -24.11,19.58 -8.99,5.39 -18.79,9.44 -29.39,12.16 -10.52,2.7 -21.69,4.05 -33.48,4.05zm-45 -22.03c12.96,5.11 27.97,7.67 45,7.67 11.06,0 21.33,-1.21 30.79,-3.63 9.4,-2.41 18.19,-6.06 26.32,-10.91 8.01,-4.77 15.11,-10.53 21.28,-17.26 6.13,-6.67 11.36,-14.33 15.66,-22.96 4.33,-8.67 7.59,-18.14 9.75,-28.36 2.17,-10.29 3.26,-21.52 3.26,-33.63 0,-11.29 -1.01,-21.85 -3,-31.64 -2,-9.76 -4.99,-18.84 -8.95,-27.2 -3.95,-8.36 -8.82,-15.81 -14.61,-22.34 -5.8,-6.56 -12.61,-12.26 -20.34,-17.06 -7.72,-4.78 -16.43,-8.39 -26.11,-10.81 -9.76,-2.44 -20.53,-3.67 -32.29,-3.67 -10.31,0 -20,1.19 -29.04,3.52 -9.04,2.32 -17.6,5.86 -25.64,10.56 -8,4.67 -15.15,10.34 -21.41,16.97 -6.25,6.63 -11.69,14.27 -16.27,22.9 -4.57,8.57 -8.01,18.11 -10.3,28.58 -2.31,10.57 -3.47,22.18 -3.47,34.8 0,17.42 2.26,32.96 6.77,46.62 4.46,13.5 11.16,25.28 20.09,35.29 8.91,10.01 19.75,17.54 32.51,22.56zm50.81 -24.61c5.8,0 10.82,-1.52 15.02,-4.57 4.3,-3.11 7.95,-7.9 10.91,-14.35 3.21,-6.99 5.64,-14.96 7.26,-23.85 1.64,-8.96 2.48,-18.96 2.48,-29.92 0,-31.37 -4.76,-54.92 -14.26,-70.75 -4.64,-7.72 -9.6,-13.46 -14.84,-17.19 -4.97,-3.53 -10.3,-5.31 -15.97,-5.31 -5.8,0 -10.82,1.5 -14.99,4.49 -4.25,3.01 -7.82,7.67 -10.69,13.94 -3.17,6.88 -5.55,14.61 -7.14,23.19 -1.6,8.73 -2.41,18.43 -2.41,29.06 0,14.78 1.07,28.09 3.19,39.86 2.09,11.62 5.25,21.9 9.42,30.78 3.96,8.39 8.65,14.66 14.03,18.73 5.17,3.93 11.18,5.89 17.99,5.89zm21.67 7.54c-6.28,4.54 -13.52,6.82 -21.67,6.82 -9.26,0 -17.56,-2.77 -24.87,-8.32 -7.11,-5.39 -13.17,-13.36 -18.13,-23.88 -4.74,-10.07 -8.29,-21.65 -10.65,-34.69 -2.32,-12.87 -3.48,-27.13 -3.48,-42.73 0,-11.54 0.9,-22.23 2.71,-32.02 1.83,-9.93 4.61,-18.93 8.31,-26.93 3.93,-8.53 8.99,-15.02 15.14,-19.4 6.21,-4.45 13.43,-6.68 21.57,-6.68 8.03,0 15.55,2.5 22.54,7.49 6.7,4.8 12.89,11.89 18.51,21.24 11.01,18.32 16.52,44.6 16.52,78.87 0,11.84 -0.93,22.79 -2.77,32.84 -1.87,10.18 -4.69,19.39 -8.44,27.59 -4.01,8.72 -9.12,15.32 -15.29,19.8zm108.12 28.83l0.2 -9.48c0.11,-3.07 0.3,-5.91 0.54,-8.44 0.25,-2.85 0.64,-5.57 1.17,-8.13 0.55,-2.67 1.26,-5.27 2.12,-7.77l1.55 -4.56 4.25 0c5.78,0 9.83,-2.09 12.17,-6.23 1.3,-2.31 2.34,-5.94 3.08,-10.85 0.82,-5.39 1.23,-12.19 1.23,-20.34l0 -86.05c0,-8.16 -0.41,-14.96 -1.23,-20.34 -0.74,-4.9 -1.78,-8.53 -3.08,-10.84 -1.14,-2.02 -2.64,-3.56 -4.46,-4.54 -2.02,-1.1 -4.61,-1.65 -7.71,-1.65l-4.25 0 -1.55 -4.6c-0.87,-2.55 -1.58,-5.17 -2.11,-7.79 -0.54,-2.56 -0.93,-5.29 -1.18,-8.15 -0.24,-2.51 -0.43,-5.34 -0.54,-8.42l-0.2 -9.51 0 -7.47c14.42,0.73 28.78,1.31 43.22,1.75 26.96,0.23 53.81,-0.73 80.76,-0.89 17.26,-0.03 32.12,1.19 44.6,3.61 12.77,2.47 23.11,6.29 30.98,11.39 8.12,5.3 14.27,11.74 18.43,19.27 4.25,7.68 6.39,16.43 6.39,26.16 0,8.07 -1.5,15.61 -4.51,22.56 -2.96,6.86 -7.35,13.06 -13.15,18.56 -4.88,4.61 -10.46,8.51 -16.73,11.65l1.46 0.51c9.16,3.26 17.25,7.73 24.24,13.37 7.32,5.89 12.85,13.01 16.55,21.33 3.69,8.31 5.55,17.76 5.55,28.29 0,7.06 -0.97,13.84 -2.87,20.3 -1.89,6.42 -4.74,12.47 -8.51,18.14 -3.79,5.71 -8.75,10.78 -14.85,15.16 -5.87,4.22 -12.86,7.84 -20.94,10.84 -7.96,2.98 -17.25,5.2 -27.84,6.66 -10.46,1.44 -22.21,2.16 -35.19,2.16l-39.17 0.02 -31.92 0.19 -25.93 0.44 -30.57 1.13 0 -7.44zm12.64 -8.82l-0.05 1.41 17.73 -0.57 26.08 -0.44 71.19 -0.24c12.58,-0.04 23.84,-0.72 33.73,-2.08 9.79,-1.35 18.29,-3.37 25.45,-6.04 7.08,-2.61 13.15,-5.76 18.2,-9.38 4.81,-3.45 8.67,-7.38 11.54,-11.7 2.93,-4.41 5.14,-9.1 6.6,-14.03 1.44,-4.9 2.18,-10.15 2.18,-15.71 0,-8.25 -1.4,-15.52 -4.18,-21.78 -2.78,-6.26 -6.98,-11.66 -12.57,-16.13 -5.97,-4.79 -12.9,-8.61 -20.77,-11.41 -8.05,-2.86 -17.11,-4.71 -27.14,-5.51l-60.34 -4.8 15.02 -2.36 -26.99 0 0 -79.44 5.18 -1.38c3.68,-1.01 7.06,-1.94 9.72,-2.53 1.8,-0.41 3.62,-0.7 5.42,-0.88 1.96,-0.19 3.96,-0.29 6.01,-0.29 5.7,0 11.1,0.78 16.19,2.31 5.13,1.55 9.9,3.88 14.27,6.95 4.91,3.5 8.62,8.25 11.07,14.23 2.34,5.68 3.52,12.39 3.52,20.09 0,6.23 -0.98,11.92 -2.95,17.02 -1.98,5.17 -4.97,9.64 -8.96,13.36 -3.38,3.17 -7.46,5.63 -12.2,7.36l24.63 -3.87c8.25,-1.3 15.65,-3.42 22.16,-6.32 6.33,-2.84 11.82,-6.45 16.4,-10.79 4.44,-4.24 7.76,-8.88 9.91,-13.88 2.12,-4.89 3.19,-10.32 3.19,-16.22 0,-6.99 -1.49,-13.16 -4.43,-18.49 -3.03,-5.54 -7.72,-10.37 -14.02,-14.5 -6.55,-4.26 -15.53,-7.51 -26.9,-9.72 -11.66,-2.25 -25.84,-3.39 -42.52,-3.39 -22.9,0.05 -45.78,0.85 -68.68,0.99l-12.31 -0.14c-10.14,-0.3 -20.28,-0.59 -30.42,-1.09l0.04 1.35c0.1,2.66 0.27,5.19 0.49,7.59 0.18,2.14 0.49,4.25 0.93,6.35l0.36 1.66c3.08,0.45 5.89,1.36 8.43,2.74 3.97,2.16 7.18,5.4 9.61,9.7 2.24,3.97 3.88,9.38 4.92,16.18 0.96,6.27 1.44,13.89 1.44,22.79l0 86.05c0,8.89 -0.48,16.51 -1.44,22.8 -1.04,6.78 -2.68,12.21 -4.92,16.18 -4.08,7.21 -10.09,11.37 -18.06,12.49l-0.34 1.56c-0.44,2.13 -0.75,4.23 -0.93,6.31l-0.49 7.64zm102.01 -190.93l-4.93 0.22c-1.59,0.15 -2.98,0.37 -4.11,0.63l-4.79 1.2 0 53.75 14.29 0c5.86,0 10.93,-0.66 15.18,-1.98 3.94,-1.22 7.17,-3 9.65,-5.33 2.4,-2.23 4.21,-4.93 5.4,-8.02 1.24,-3.17 1.86,-6.92 1.86,-11.25 0,-5.62 -0.77,-10.3 -2.29,-14 -1.38,-3.41 -3.5,-6.12 -6.29,-8.11 -3.36,-2.34 -7.01,-4.13 -10.93,-5.31 -3.99,-1.19 -8.34,-1.8 -13.04,-1.8zm11.61 161.86c4.85,0 9.16,-0.6 12.88,-1.77 3.63,-1.13 6.84,-2.83 9.58,-5.07 2.39,-1.95 4.21,-4.56 5.41,-7.78 1.32,-3.52 1.99,-7.87 1.99,-13.04 0,-6.41 -0.93,-11.79 -2.78,-16.1 -1.75,-4.07 -4.41,-7.34 -7.94,-9.78 -4.08,-2.75 -8.72,-4.87 -13.89,-6.27 -5.31,-1.43 -11.23,-2.17 -17.76,-2.17l-12.93 0 0 32.8c0,7.11 0.6,12.8 1.81,17.03 0.96,3.4 2.26,5.72 3.87,6.94 2.21,1.68 4.91,2.98 8.02,3.83 3.31,0.91 7.24,1.38 11.74,1.38zm16.16 12.01c-4.94,1.55 -10.35,2.34 -16.16,2.34 -5.32,0 -10.21,-0.62 -14.62,-1.83 -4.59,-1.26 -8.62,-3.21 -12.02,-5.79 -4.03,-3.06 -7,-7.89 -8.86,-14.45 -1.62,-5.73 -2.44,-12.88 -2.44,-21.46l0 -47.15 25.43 0c7.45,0 14.33,0.87 20.62,2.57 6.41,1.76 12.21,4.4 17.37,7.91 5.68,3.92 9.94,9.18 12.77,15.75 2.74,6.36 4.11,13.86 4.11,22.44 0,7.11 -1.01,13.35 -3.02,18.7 -2.12,5.65 -5.34,10.26 -9.66,13.78 -3.92,3.19 -8.44,5.61 -13.52,7.19zm264.87 35.64c-6.05,-2.7 -10.61,-7.31 -13.63,-13.81 -1.99,-4.27 -3.27,-9.29 -3.86,-15.06 -2.36,3 -4.9,5.78 -7.62,8.29 -3.26,3.19 -6.9,6.04 -10.86,8.49 -3.97,2.46 -8.29,4.59 -12.93,6.34 -4.6,1.75 -9.63,3.07 -15.01,3.93 -5.33,0.87 -10.95,1.3 -16.85,1.3 -10.45,0 -19.86,-1.34 -28.18,-4 -8.55,-2.74 -15.91,-6.88 -22.04,-12.41 -6.29,-5.66 -11.05,-12.6 -14.23,-20.76 -3.13,-8.04 -4.7,-17.17 -4.7,-27.36 0,-18.22 4.54,-33.25 13.59,-45.19 4.35,-5.69 9.33,-10.86 14.93,-15.45 5.57,-4.57 11.75,-8.58 18.49,-12 6.63,-3.37 13.45,-6.33 20.44,-8.88 6.89,-2.51 14.12,-4.66 21.64,-6.44 7.5,-1.76 14.59,-3.33 21.22,-4.65l14.58 -2.72c-0.06,-4.97 -0.19,-9.36 -0.38,-13.16 -0.28,-5.46 -0.72,-10.08 -1.27,-13.79 -0.48,-3.22 -1.3,-6.18 -2.39,-8.85 -1.05,-2.58 -2.41,-4.89 -4.03,-6.88l-0.37 -0.51c-1.29,-1.88 -2.69,-3.48 -4.17,-4.75 -1.42,-1.22 -3,-2.21 -4.69,-2.92 -1.94,-0.83 -3.84,-1.44 -5.65,-1.83 -1.76,-0.37 -3.62,-0.56 -5.55,-0.56 -3.47,0 -6.5,0.56 -9.05,1.64 -2.41,1.03 -4.53,2.61 -6.38,4.74 -2.12,2.43 -3.94,5.15 -5.44,8.14 -1.57,3.2 -2.9,6.76 -3.97,10.69 -1.11,4.17 -2.03,8.4 -2.74,12.64 -0.69,4.21 -1.19,8.53 -1.48,12.9l-0.44 6.64 -5.78 0c-3.29,0 -6.83,-0.1 -10.62,-0.28 -3.47,-0.17 -6.83,-0.44 -10.03,-0.81 -3.42,-0.38 -6.59,-0.94 -9.49,-1.65 -3.06,-0.75 -5.94,-1.71 -8.58,-2.82l-4.43 -1.88 0.36 -5.38c0.3,-4.68 0.49,-9.31 0.57,-13.86 0.06,-4.82 0.03,-9.88 -0.11,-15.1 -0.13,-4.97 -0.46,-10.08 -0.97,-15.32 -0.5,-5.09 -1.2,-10.21 -2.05,-15.3l-0.94 -5.54 4.5 -2.33c6.45,-3.36 13.41,-6.38 20.85,-9.03 7.32,-2.6 15.18,-4.88 23.56,-6.82 8.31,-1.93 16.34,-3.39 24.04,-4.34 7.97,-0.97 15.6,-1.47 22.86,-1.47 8.73,0 16.68,0.61 23.81,1.81 7.23,1.21 13.67,3.08 19.28,5.57 5.38,2.43 10.23,5.11 14.57,8.03 4.4,2.97 8.19,6.19 11.32,9.6l0.2 0.23c3.55,4.26 6.67,9.25 9.33,14.88 2.62,5.54 4.86,11.81 6.68,18.76 1.8,6.9 3.17,15.17 4.06,24.78 0.89,9.49 1.34,20.21 1.34,32.1l0 44.59c0,8.01 0.34,14.61 1.03,19.73 0.57,4.46 1.39,7.61 2.41,9.42 0.73,1.25 2.26,2.38 4.57,3.32 3.08,1.26 7.2,2.05 12.35,2.33l5.31 0.29 0.6 6.07c0.32,3.27 0.48,6.41 0.48,9.39 0,3.03 -0.16,6.1 -0.48,9.16 -0.37,3.23 -0.93,6.28 -1.68,9.14 -0.75,2.9 -1.76,5.77 -2.98,8.57l-1.62 3.71 -3.6 0.24c-5.15,0.33 -10.45,0.93 -15.82,1.76 -5.43,0.84 -10.94,1.93 -16.51,3.26 -5.49,1.29 -10.82,2.9 -15.95,4.79 -5.09,1.88 -9.97,4.05 -14.59,6.47l-2.4 1.25 -2.43 -1.08zm-2.65 -20.54c1.19,2.56 2.86,4.56 4.97,6 4.31,-2.13 8.75,-4.05 13.29,-5.72 5.53,-2.04 11.3,-3.78 17.27,-5.19 5.89,-1.4 11.68,-2.54 17.35,-3.42 4.34,-0.67 8.67,-1.21 12.95,-1.58l0.76 -2.6c0.58,-2.21 1,-4.47 1.26,-6.74 0.23,-2.4 0.36,-4.91 0.36,-7.48l-0.03 -1.98c-4,-0.53 -7.47,-1.4 -10.38,-2.59 -4.99,-2.03 -8.61,-5.06 -10.87,-9.07 -1.96,-3.48 -3.39,-8.5 -4.27,-15.02 -0.81,-5.88 -1.21,-13.2 -1.21,-21.89l0 -44.59c0,-11.63 -0.41,-21.83 -1.23,-30.59 -0.81,-8.67 -2.01,-16.07 -3.61,-22.14 -1.58,-6.02 -3.5,-11.39 -5.71,-16.08 -2.13,-4.51 -4.52,-8.39 -7.16,-11.59 -2.49,-2.7 -5.5,-5.26 -9.02,-7.63 -3.61,-2.43 -7.89,-4.78 -12.8,-7.01 -4.64,-2.07 -10.17,-3.66 -16.54,-4.73 -6.46,-1.08 -13.81,-1.63 -22.01,-1.63 -7.03,0 -14.22,0.45 -21.55,1.35 -7.45,0.92 -15.1,2.29 -22.91,4.12 -7.86,1.81 -15.31,3.98 -22.34,6.48 -5.22,1.86 -10.2,3.92 -14.93,6.18 0.51,3.59 0.95,7.18 1.31,10.77 0.52,5.35 0.86,10.84 1.02,16.45 0.14,5.38 0.17,10.65 0.1,15.76l-0.26 9.02 2.48 0.68c2.59,0.64 5.31,1.13 8.11,1.43 3.06,0.34 6.18,0.6 9.36,0.76l4.47 0.16 1.07 -7.76c0.8,-4.79 1.83,-9.55 3.08,-14.24 1.34,-4.98 3.03,-9.5 5.06,-13.57 2.16,-4.24 4.62,-7.98 7.41,-11.18 3.06,-3.51 6.69,-6.18 10.89,-7.98 4.07,-1.73 8.53,-2.61 13.39,-2.61 2.53,0 5.14,0.29 7.8,0.86 2.63,0.56 5.22,1.38 7.7,2.43 2.79,1.18 5.41,2.84 7.86,4.94 2.27,1.95 4.36,4.3 6.27,7.04 2.46,3.05 4.51,6.54 6.09,10.38 1.58,3.79 2.73,8.02 3.42,12.6 0.62,4.17 1.1,9.3 1.42,15.35 0.31,6.07 0.48,12.82 0.48,20.2l0 6.22 -5.4 0.87c-6.23,1 -12.77,2.19 -19.58,3.56 -6.97,1.39 -13.94,2.92 -20.87,4.55 -6.88,1.63 -13.67,3.67 -20.37,6.1 -6.59,2.4 -12.99,5.18 -19.16,8.31 -6.04,3.07 -11.49,6.6 -16.31,10.56 -4.79,3.93 -9.05,8.33 -12.75,13.2 -6.98,9.23 -10.49,21.13 -10.49,35.77 0,8.24 1.2,15.43 3.57,21.53 2.33,5.99 5.86,11.12 10.54,15.32 4.89,4.39 10.79,7.7 17.68,9.9 7.12,2.28 15.42,3.43 24.86,3.43 5.42,0 10.46,-0.38 15.09,-1.13 4.58,-0.73 8.88,-1.87 12.86,-3.37 3.97,-1.48 7.63,-3.28 10.93,-5.33 3.26,-2.01 6.2,-4.32 8.81,-6.88l0.15 -0.14c3.6,-3.35 6.86,-7.28 9.74,-11.75 2.95,-4.56 5.52,-9.67 7.69,-15.29l23.37 -60.41 -11.58 64.73c-0.55,3.13 -0.97,6.21 -1.25,9.2 -0.26,2.9 -0.39,5.87 -0.39,8.84 0,6.7 0.9,12 2.69,15.86zm-55.81 -36.87c2.32,0 4.69,-0.45 7.08,-1.34 2.6,-1 5.24,-2.45 7.85,-4.37 2.6,-1.92 5,-4.36 7.16,-7.26 2.24,-3 4.26,-6.58 6.04,-10.66 1.74,-4.05 3.07,-8.71 3.97,-13.96 0.91,-5.39 1.38,-11.47 1.38,-18.23l0 -5.24c-5.82,1.33 -11.24,2.87 -16.27,4.6 -7,2.4 -13.21,5.19 -18.61,8.31 -4.65,2.71 -8.12,6.24 -10.36,10.53 -2.26,4.34 -3.4,9.73 -3.4,16.14 0,4.36 0.43,8.02 1.28,10.9 0.72,2.46 1.77,4.4 3.11,5.78 1.57,1.64 3.26,2.86 5.04,3.65 1.72,0.76 3.64,1.15 5.73,1.15zm10.97 12.27c-3.69,1.38 -7.36,2.09 -10.97,2.09 -3.56,0 -6.97,-0.73 -10.22,-2.17 -3.16,-1.41 -6.12,-3.51 -8.83,-6.3 -2.99,-3.03 -5.21,-7.02 -6.64,-11.88 -1.31,-4.46 -1.97,-9.65 -1.97,-15.49 0,-8.97 1.75,-16.81 5.21,-23.47 3.48,-6.69 8.65,-12.02 15.45,-15.98 6.08,-3.52 12.97,-6.62 20.65,-9.26 7.52,-2.59 15.89,-4.76 25.05,-6.52l7.28 -1.4 0 22.29c0,7.6 -0.55,14.6 -1.63,20.98 -1.11,6.52 -2.81,12.39 -5.06,17.59 -2.25,5.09 -4.83,9.63 -7.74,13.56 -2.95,4 -6.27,7.35 -9.9,10.02 -3.63,2.65 -7.19,4.63 -10.68,5.94z"/>
</svg>
