<svg xmlns="http://www.w3.org/2000/svg" 
xml:space="preserve" 
width="67.7332mm" 
height="5.08mm" 
version="1.1" 
style="shape-rendering:geometricPrecision; text-rendering:geometricPrecision; image-rendering:optimizeQuality; fill-rule:evenodd; clip-rule:evenodd"
viewBox="0 0 6773.32 508">
  <path 
    fill="#fff"
    fill-rule="nonzero"
    d="M240.6 23.4l122.23 261.79c3.19,6.88 6.44,13.5 9.65,19.77 2.72,5.38 5.27,9.99 7.58,13.79 2.16,3.56 4.18,6.48 6.03,8.71 1.67,2.02 3.28,3.58 4.77,4.62 1.45,1.02 3.01,1.86 4.64,2.48 1.76,0.64 3.63,1.1 5.56,1.34l5.46 0.68 1.55 5.05c1.4,4.57 2.44,9.64 3.1,15.19 0.67,5.55 1.01,11.58 1.01,18.06l0 8.56 -18.71 -0.98c-20.95,-0.53 -41.93,-0.93 -62.89,-1.07 -22.59,0.24 -45.17,0.53 -67.76,1.07l-18.64 1.02 0 -8.6c0,-6.81 0.39,-13.06 1.17,-18.7 0.79,-5.76 2,-10.78 3.63,-15.05l1.7 -4.44 4.92 -0.75c5.67,-0.87 10.1,-2.08 13.2,-3.56 1.97,-0.94 3.14,-1.87 3.5,-2.71 0.53,-1.24 0.49,-3.43 -0.12,-6.52 -0.83,-4.1 -2.64,-9.18 -5.39,-15.21l-10.65 -24.11 -26.74 0.15 -33.13 0.57c-10.98,0.25 -22.02,0.61 -33.07,1.08l-26.79 1.38 -5.09 13.08c-2.56,6.09 -4.16,11.53 -4.78,16.3 -0.55,4.26 -0.33,7.85 0.67,10.7 0.76,2.22 2.31,4.02 4.6,5.37 2.91,1.73 7.03,2.88 12.31,3.41l5.7 0.58 1.54 5.28c1.37,4.7 2.41,9.83 3.07,15.33 0.66,5.55 1,11.51 1,17.82l0 9.07 -9.46 -1.07c-3.02,-0.33 -6.56,-0.61 -10.54,-0.8l-14.72 -0.44 -30.33 -0.25 -13.11 0.12c-14.54,0.42 -28.89,1.09 -43.4,1.89l0 -8.52 0.31 -8.56c0.18,-2.77 0.47,-5.62 0.86,-8.49 0.38,-2.84 0.94,-5.69 1.63,-8.46 0.68,-2.86 1.54,-5.61 2.51,-8.2l1.66 -4.42 4.86 -0.81c2.35,-0.39 4.54,-1.01 6.52,-1.82 1.96,-0.8 3.69,-1.77 5.17,-2.88 1.54,-1.2 3.18,-2.84 4.83,-4.92 1.87,-2.35 3.72,-5.15 5.51,-8.34 1.9,-3.39 4.08,-7.65 6.5,-12.72 2.41,-5.03 5.02,-10.79 7.8,-17.26l113.27 -265.84 12.64 -2.18 7.78 -0.83 8.01 -0.38 14.64 -0.16 2.23 4.79zm106.84 268.34l-119.99 -256.97 -10.47 0.44 -9.48 1.13 -109.81 257.69c-2.9,6.69 -5.59,12.64 -8.07,17.83 -2.46,5.19 -4.83,9.78 -7.01,13.68 -2.3,4.1 -4.6,7.6 -6.89,10.48 -2.51,3.16 -5.15,5.77 -7.83,7.8 -2.82,2.09 -5.81,3.8 -8.99,5.1 -1.64,0.68 -3.36,1.26 -5.16,1.75l-0.63 2.35c-0.57,2.19 -1.02,4.49 -1.33,6.86l-0.67 6.47 25.82 -0.9 13.45 -0.16 30.53 0.3 17.34 0.54 -0.62 -7.24c-0.33,-2.8 -0.76,-5.44 -1.28,-7.89 -5.25,-1.03 -9.74,-2.65 -13.46,-4.86 -5.7,-3.37 -9.6,-8.04 -11.67,-13.94 -1.85,-5.25 -2.34,-11.19 -1.48,-17.77 0.79,-6.08 2.77,-12.86 5.9,-20.32l8.79 -22.48 5.46 -0.34c10.42,-0.66 21.32,-1.24 32.59,-1.72 10.8,-0.46 21.96,-0.82 33.39,-1.08l33.33 -0.57 38.11 -0.23 14.95 33.83c3.28,7.17 5.46,13.4 6.51,18.6 1.23,6.22 0.97,11.41 -0.79,15.56 -1.95,4.59 -5.82,8.29 -11.58,11.06 -3.47,1.67 -7.78,3.05 -12.88,4.11 -0.58,2.23 -1.06,4.71 -1.43,7.4 -0.34,2.49 -0.6,5.21 -0.76,8.18 23.02,-0.74 46.21,-0.85 69.25,-1.14 21.41,0.23 43.09,0.34 64.45,1.15l-0.66 -7.8c-0.34,-2.85 -0.78,-5.49 -1.3,-7.92l-3.72 -1.19c-3.08,-1.18 -5.94,-2.7 -8.55,-4.53 -2.6,-1.83 -5.26,-4.37 -7.93,-7.59 -2.49,-3.01 -4.98,-6.56 -7.43,-10.6 -2.31,-3.8 -5.04,-8.77 -8.14,-14.8 -2.68,-5.15 -5.95,-11.9 -9.86,-20.27zm-169.13 -107.1l-22.26 55.09 80 0 -32.74 -72.12c-2.48,-5.6 -4.77,-11.05 -6.87,-16.35l-2.74 -7.17 -8.71 23.88 -6.68 16.67zm-42.42 60.29l33.22 -82.51 5.88 -15.82 5.5 -15.76 14.22 -43.05 7.39 27.39c1.36,5.03 2.91,10.14 4.61,15.24 1.78,5.28 3.63,10.36 5.53,15.16 1.99,5.02 4.22,10.31 6.64,15.83 2.35,5.37 4.97,11.03 7.81,16.96 11.39,18.45 25.06,55.35 35.08,77.5l-130.29 0 4.41 -10.94zm585.87 54.72c0,8.11 0.47,14.82 1.4,20.09 0.83,4.73 1.99,8.25 3.45,10.49 2.42,3.71 6.89,5.58 13.37,5.58l5.81 0 2.09 5.2c1.02,2.54 1.87,5.16 2.53,7.81 0.64,2.63 1.13,5.38 1.44,8.21l0.63 8.38 0.24 9.47 0 8.35c-19,-0.69 -37.92,-1.32 -56.94,-1.72l-17.72 -0.09 -26.29 0.22 -39.78 0.82 -18.19 1.02 0.17 -17.23 0.4 -8.4c0.2,-3.03 0.62,-5.96 1.23,-8.71 0.63,-2.86 1.47,-5.58 2.5,-8.13l2.1 -5.2 5.8 0c3.75,0 6.99,-0.6 9.66,-1.77 2.54,-1.15 4.75,-2.86 6.54,-5.14 1.9,-2.46 3.42,-6.2 4.49,-11.16 1.19,-5.55 1.8,-12.62 1.8,-21.14l0 -55.41c0,-10.14 -0.82,-18.61 -2.43,-25.34 -1.48,-6.18 -3.59,-10.88 -6.3,-14.06 -2.71,-3.1 -5.97,-5.46 -9.76,-7.02 -3.97,-1.62 -8.7,-2.44 -14.14,-2.44 -5.02,0 -9.85,1.34 -14.42,4.01 -5,2.91 -9.87,7.43 -14.53,13.51 -4.67,6.08 -8.22,13.71 -10.62,22.87 -2.48,9.47 -3.73,20.61 -3.73,33.37l0 33.56c0,15.52 1.83,25.61 5.48,30.25 1.51,1.89 3.47,3.32 5.87,4.26 2.78,1.09 6.33,1.65 10.6,1.65l5.96 0 2.01 5.36c0.94,2.52 1.78,5.26 2.47,8.13 0.64,2.72 1.14,5.49 1.43,8.24l0.63 8.31 0.24 9.03 0 8.41c-20.87,-0.9 -41.66,-1.39 -62.55,-1.78l-18.51 -0.09 -27.36 0.22 -40.8 0.82 -18.24 1.02 0 -8.6 0.3 -9.65c0.19,-3.11 0.49,-6.1 0.87,-8.92 0.38,-2.86 0.89,-5.55 1.47,-8.03 0.63,-2.67 1.36,-5.09 2.16,-7.18l2.05 -5.29 5.89 0c11.05,0 18.13,-2.03 21.21,-6.06 1.63,-2.13 2.96,-5.56 3.92,-10.23 1.08,-5.25 1.63,-11.88 1.63,-19.87l0 -76.76c0,-8.82 -0.71,-15.77 -2.09,-20.8 -0.52,-1.84 -1.32,-3.41 -2.36,-4.69 -1.03,-1.25 -2.47,-2.37 -4.23,-3.29 -1.99,-1.05 -4.79,-1.95 -8.34,-2.68 -3.93,-0.81 -8.61,-1.38 -13.98,-1.68l-7.97 -0.46 0 -7.57c0,-2.72 0.13,-5.49 0.38,-8.26 0.23,-2.68 0.6,-5.38 1.1,-8.09 0.52,-2.91 1.29,-5.74 2.26,-8.44 1.03,-2.77 2.25,-5.44 3.7,-8l2.34 -4.14 4.97 -0.08c9.03,-0.15 18.07,-0.71 27.06,-1.62 8.95,-0.91 17.68,-2.2 26.13,-3.82 8.31,-1.6 15.69,-3.33 22.08,-5.17 5.97,-1.7 10.77,-3.46 14.37,-5.25l3.39 -1.68 3.55 1.3c3.15,1.15 6.04,2.77 8.62,4.82 2.54,2.02 4.78,4.46 6.66,7.26 1.98,2.97 3.45,6.45 4.36,10.43 0.59,2.58 0.98,5.41 1.16,8.48 2.72,-2.57 5.7,-5.04 8.92,-7.39 5.36,-3.91 11.48,-7.6 18.29,-11.02 7.04,-3.54 14.64,-6.2 22.73,-7.96 8.07,-1.75 16.57,-2.65 25.5,-2.65 7.93,0 15.74,0.75 23.37,2.23 7.56,1.46 14.87,3.67 21.9,6.6 7.34,3.07 13.96,7.08 19.83,12 5.79,4.86 10.94,10.73 15.43,17.55 4.51,6.82 7.89,14.73 10.1,23.65 2.15,8.67 3.24,18.33 3.24,28.89l0 78.29zm-15.26 22.74c-1.12,-6.32 -1.68,-13.92 -1.68,-22.74l0 -78.29c0,-9.41 -0.92,-17.83 -2.76,-25.23 -1.78,-7.17 -4.45,-13.45 -7.96,-18.81 -3.48,-5.35 -7.6,-10.01 -12.29,-13.95 -4.62,-3.88 -9.76,-7 -15.39,-9.36 -5.96,-2.48 -12.16,-4.36 -18.54,-5.59 -6.32,-1.23 -13,-1.84 -19.99,-1.84 -7.81,0 -15.07,0.74 -21.74,2.19 -6.65,1.44 -12.89,3.62 -18.63,6.51 -5.97,2.99 -11.28,6.19 -15.86,9.54 -4.54,3.33 -8.38,6.77 -11.49,10.34l-0.23 0.28c-1.59,1.67 -2.97,3.3 -4.11,4.87 -1.2,1.65 -2.27,3.32 -3.13,4.99l-27.77 34.83 5.75 -28.55c3.29,-10.34 4.94,-19.74 4.94,-28.17 0,-3.5 -0.3,-6.52 -0.87,-9.02 -0.5,-2.19 -1.2,-3.95 -2.04,-5.21 -0.94,-1.4 -2.03,-2.6 -3.22,-3.55l-1 -0.72c-3.8,1.61 -8.23,3.13 -13.25,4.59 -6.49,1.89 -14.41,3.74 -23.68,5.52 -9.14,1.76 -18.37,3.13 -27.65,4.07 -7.56,0.77 -15.33,1.29 -23.27,1.55l-0.59 1.51c-0.69,1.94 -1.24,3.94 -1.59,5.92 -0.38,2.05 -0.66,4.16 -0.86,6.32 2.97,0.35 5.71,0.78 8.21,1.29 5.09,1.04 9.4,2.49 12.9,4.31 3.78,1.96 6.92,4.48 9.43,7.53 2.49,3.04 4.3,6.53 5.39,10.42 1.79,6.49 2.7,14.82 2.7,24.95l0 76.76c0,8.94 -0.66,16.61 -1.97,22.96 -1.43,6.92 -3.75,12.47 -6.9,16.59 -5.64,7.36 -15.13,11.53 -28.45,12.51l-0.02 0.1c-0.47,1.98 -0.88,4.18 -1.19,6.55 -0.33,2.44 -0.59,5.04 -0.75,7.75l-0.02 0.31c13.83,-0.52 27.8,-0.6 41.64,-0.83l27.62 -0.3 18.71 0.16c15.09,0.28 30.16,0.59 45.25,1.06l-0.57 -7.33c-0.22,-2.16 -0.6,-4.29 -1.09,-6.36l-0.31 -1.22c-3.88,-0.45 -7.45,-1.31 -10.69,-2.58 -5.33,-2.1 -9.67,-5.27 -12.98,-9.48 -5.91,-7.56 -8.89,-20.88 -8.89,-39.89l0 -33.56c0,-13.99 1.43,-26.43 4.27,-37.27 2.93,-11.16 7.4,-20.67 13.4,-28.48 5.98,-7.79 12.45,-13.71 19.35,-17.74 7.32,-4.26 15.08,-6.41 23.22,-6.41 7.71,0 14.67,1.27 20.82,3.78 6.33,2.59 11.74,6.49 16.16,11.63 4.36,5.14 7.61,12.04 9.68,20.67 1.93,8.06 2.91,17.72 2.91,28.92l0 55.41c0,9.43 -0.74,17.56 -2.2,24.36 -1.59,7.37 -4.11,13.26 -7.49,17.57 -3.56,4.49 -7.89,7.86 -12.95,10.1 -3.23,1.42 -6.71,2.39 -10.44,2.89l-0.21 0.92c-0.46,2.09 -0.76,4.23 -0.91,6.42l-0.39 7.56c22.28,-0.86 44.9,-0.88 67.22,-1.13l17.92 0.16c13.23,0.28 26.44,0.58 39.66,1.06l-0.59 -7.84c-0.22,-2.05 -0.6,-4.11 -1.09,-6.14l-0.27 -0.99c-9.53,-1.26 -16.69,-5.54 -21.44,-12.82 -2.62,-4.01 -4.55,-9.48 -5.75,-16.33zm334.45 -33.92c0,14.39 1.35,23.66 4.05,27.78 0.72,1.1 2.33,2.08 4.77,2.88 3.53,1.16 8.35,1.84 14.4,1.97l7.34 0.16 0.86 6.93c0.4,3.25 0.61,6.42 0.61,9.45 0,2.98 -0.22,6.07 -0.64,9.28 -0.42,3.2 -1.09,6.27 -2,9.16 -0.94,3.01 -2.17,5.92 -3.6,8.67l-2.18 4.17 -4.93 0.27c-6.2,0.32 -12.56,0.9 -19.05,1.72 -6.58,0.83 -13.28,1.9 -20.06,3.21 -6.52,1.25 -12.98,2.86 -19.32,4.76 -6.07,1.8 -11.94,3.95 -17.56,6.38l-3.14 1.35 -3.27 -1.16c-7.4,-2.64 -13.04,-6.71 -16.88,-12.19 -2.05,-2.89 -3.52,-6.53 -4.45,-10.85 -0.58,-2.6 -0.95,-5.47 -1.14,-8.59l-1.91 1.55c-3.19,3.32 -7.16,6.63 -11.89,9.88 -4.77,3.3 -10.48,6.67 -17.07,10.08 -6.86,3.57 -14.3,6.26 -22.26,8.03 -7.88,1.75 -16.24,2.64 -25.01,2.64 -16.43,0 -31.42,-2.3 -44.94,-6.9 -13.66,-4.65 -25.79,-11.65 -36.34,-20.95 -10.73,-9.48 -18.76,-21.72 -24.07,-36.7 -5.16,-14.56 -7.74,-31.67 -7.74,-51.29 0,-27.13 6.44,-51.51 19.28,-73.1 6.43,-10.81 14.19,-20.48 23.24,-28.95 9.04,-8.49 19.4,-15.81 31.01,-21.92 23.15,-12.19 50.05,-18.29 80.66,-18.29 3.53,0 7.15,0.12 10.84,0.35 3.56,0.22 6.94,0.58 10.1,1.01 3.03,0.42 6.24,0.97 9.56,1.63l0 -40.17c0,-5.29 -0.51,-9.76 -1.49,-13.38 -0.91,-3.26 -2.18,-5.84 -3.8,-7.73 -1.3,-1.52 -3.92,-2.88 -7.81,-4.05 -4.77,-1.47 -11.12,-2.44 -18.97,-2.9l-7.97 -0.47 0 -7.55c0,-2.72 0.13,-5.49 0.38,-8.26 0.23,-2.68 0.6,-5.38 1.1,-8.1 0.49,-2.76 1.19,-5.51 2.06,-8.19 0.85,-2.64 1.91,-5.26 3.14,-7.81l2.28 -4.69 5.39 0c11.91,0 23.94,-0.73 36.03,-2.19 5.97,-0.71 11.82,-1.61 17.52,-2.66 5.72,-1.05 10.98,-2.22 15.75,-3.46 4.68,-1.22 8.96,-2.55 12.78,-3.89 3.33,-1.15 6.09,-2.33 8.22,-3.49l3.47 -1.89 3.74 1.38c3.15,1.15 6.04,2.77 8.62,4.82 2.56,2.03 4.79,4.46 6.66,7.23 1.94,2.94 3.4,6.37 4.32,10.26 0.86,3.68 1.31,7.75 1.31,12.13l0 252.64zm-10.31 36.27c-4.41,-6.73 -6.63,-18.83 -6.63,-36.27l0 -252.64c0,-3.39 -0.28,-6.28 -0.83,-8.6 -0.49,-2.08 -1.19,-3.79 -2.07,-5.12 -0.99,-1.43 -2.07,-2.63 -3.23,-3.56l-0.89 -0.65 -6.53 2.58c-3.85,1.38 -8.57,2.81 -14.19,4.28 -5.55,1.45 -11.24,2.72 -17.01,3.79 -5.75,1.06 -11.97,1.99 -18.58,2.79 -11.11,1.33 -21.93,2.12 -32.42,2.33l-0.4 1.18c-0.63,1.95 -1.16,4.02 -1.54,6.14l-0.86 6.33c5.63,0.66 10.55,1.63 14.75,2.9 7.05,2.08 12.34,5.2 15.82,9.25 3.16,3.7 5.52,8.3 7.03,13.77 1.39,5.11 2.1,10.94 2.1,17.48l0 60.76 -10.62 -2.65 -9.46 -2.13 -8.8 -1.5c-2.87,-0.39 -5.83,-0.7 -8.84,-0.89 -2.89,-0.18 -6.15,-0.28 -9.72,-0.28 -27.74,0 -51.93,5.43 -72.52,16.28 -10.27,5.4 -19.4,11.85 -27.31,19.26 -7.93,7.43 -14.74,15.93 -20.4,25.43 -11.34,19.06 -17.02,40.8 -17.02,65.16 0,17.99 2.27,33.4 6.8,46.19 4.38,12.37 10.91,22.39 19.57,30.03 8.83,7.79 19,13.64 30.49,17.54 11.67,3.96 24.77,5.94 39.29,5.94 7.58,0 14.66,-0.73 21.17,-2.18 6.42,-1.43 12.45,-3.61 18.04,-6.49 5.84,-2.99 10.92,-5.99 15.21,-8.97 4.06,-2.8 7.31,-5.5 9.72,-8.08l1.16 -1.04c1.23,-0.9 2.52,-2.05 3.84,-3.37 1.4,-1.41 2.81,-3.01 4.18,-4.74 2.9,-3.7 5.85,-8.38 8.81,-14.02l14.91 -11.94 0.86 17.32c-1,4.15 -1.76,8.08 -2.26,11.7l-0.54 5.35 -0.16 5.56c0,4.09 0.29,7.5 0.87,10.18 0.48,2.29 1.14,4.04 1.94,5.17 1.36,1.93 3.3,3.55 5.8,4.84 5.07,-2.06 10.39,-3.94 15.93,-5.61 6.55,-2 13.61,-3.73 21.12,-5.17 7.27,-1.39 14.34,-2.55 21.18,-3.4 5.1,-0.64 10.13,-1.15 15.06,-1.51l0.68 -1.97c0.68,-2.16 1.17,-4.37 1.46,-6.59 0.29,-2.21 0.44,-4.64 0.44,-7.26l-0.01 -0.96c-4.47,-0.47 -8.39,-1.26 -11.74,-2.37 -6.26,-2.06 -10.83,-5.27 -13.65,-9.57zm-171.7 -65.24c0,11.47 1.12,21.59 3.33,30.32 2.16,8.51 5.38,15.82 9.62,21.87 4.11,5.88 8.62,10.21 13.5,13.02 4.56,2.66 9.66,3.98 15.25,3.98 3.72,0 7.39,-0.56 10.96,-1.68 3.75,-1.17 7.41,-2.94 10.94,-5.25 3.47,-2.28 6.7,-5.35 9.66,-9.2 3.11,-4.06 5.94,-8.98 8.41,-14.69 2.51,-5.79 4.41,-12.59 5.68,-20.36 1.28,-7.84 1.93,-16.92 1.93,-27.17l0 -63.47c-1.65,-1.6 -3.38,-3.08 -5.16,-4.41 -2.55,-1.9 -5.15,-3.5 -7.76,-4.74 -2.5,-1.19 -5.31,-2.13 -8.38,-2.75 -3.1,-0.62 -6.54,-0.95 -10.27,-0.95 -2.98,0 -5.97,0.28 -8.95,0.79 -3.14,0.55 -6.46,1.42 -9.88,2.55 -3.08,1.02 -6.16,2.54 -9.19,4.48 -3.09,2 -6.15,4.5 -9.09,7.45 -2.86,2.86 -5.51,6.4 -7.92,10.54 -2.55,4.34 -4.8,9.31 -6.75,14.9 -1.96,5.63 -3.45,12.12 -4.43,19.46 -1,7.38 -1.5,15.83 -1.5,25.31zm-13.07 34.09c-2.57,-10.13 -3.87,-21.52 -3.87,-34.09 0,-9.84 0.57,-18.97 1.7,-27.33 1.13,-8.39 2.86,-15.91 5.17,-22.51 2.3,-6.56 4.96,-12.44 7.95,-17.57 3.08,-5.34 6.59,-9.99 10.48,-13.89 3.8,-3.81 7.76,-7.04 11.84,-9.68 4.2,-2.72 8.58,-4.83 13.12,-6.34 4.19,-1.38 8.35,-2.46 12.4,-3.18 4.2,-0.73 8.22,-1.11 11.99,-1.11 4.8,0 9.42,0.45 13.77,1.33 4.38,0.89 8.54,2.29 12.42,4.14 3.77,1.79 7.34,3.95 10.66,6.43 3.29,2.46 6.47,5.37 9.51,8.63l2.15 2.32 0 69.6c0,10.75 -0.74,20.64 -2.21,29.63 -1.48,9.07 -3.74,17.1 -6.74,24.01 -3.01,6.97 -6.5,13.02 -10.39,18.08 -4.06,5.28 -8.65,9.6 -13.7,12.92 -4.99,3.26 -10.08,5.72 -15.22,7.34 -5.31,1.67 -10.76,2.51 -16.26,2.51 -8.63,0 -16.63,-2.13 -23.96,-6.35 -7.03,-4.02 -13.33,-9.99 -18.84,-17.87 -5.34,-7.64 -9.34,-16.67 -11.97,-27.02zm374.97 -8.17c0,10.41 0.9,19 2.65,25.75 1.61,6.08 3.85,10.57 6.7,13.41 2.98,2.96 7.29,5.4 12.85,7.26 6.12,2.03 13.73,3.39 22.77,4l5.2 0.36 2 4.59c1.09,2.51 1.97,5.22 2.61,8.09 0.6,2.79 1.03,5.8 1.22,9l0.4 8.59 0.18 17.11 -9.1 -0.67c-4.83,-0.35 -10.17,-0.64 -15.97,-0.83l-20.57 -0.44 -45.03 -0.25 -49.58 0.25 -22.67 0.44c-6.38,0.19 -12.18,0.48 -17.36,0.83l-9.07 0.62 0 -8.65c0,-6.99 0.3,-13.31 0.87,-18.91 0.58,-5.75 1.5,-10.56 2.7,-14.39l1.69 -5.34 5.81 -0.4c4.3,-0.29 8.14,-0.83 11.46,-1.59 3.08,-0.69 5.63,-1.55 7.59,-2.55 1.49,-0.78 2.77,-1.86 3.81,-3.26 1.23,-1.67 2.22,-3.83 2.93,-6.41 0.87,-3.18 1.53,-7.12 1.97,-11.79 0.44,-4.68 0.67,-10.41 0.67,-17.2l0 -70.15c0,-8.82 -0.71,-15.77 -2.09,-20.8 -0.52,-1.84 -1.32,-3.41 -2.36,-4.69 -1.03,-1.25 -2.47,-2.37 -4.23,-3.29 -1.99,-1.05 -4.79,-1.95 -8.34,-2.68 -3.93,-0.81 -8.61,-1.38 -13.98,-1.68l-7.97 -0.46 0 -7.57c0,-2.72 0.13,-5.49 0.38,-8.26 0.23,-2.68 0.6,-5.38 1.1,-8.09 0.52,-2.91 1.29,-5.74 2.26,-8.44 1.03,-2.77 2.25,-5.44 3.7,-8l2.34 -4.14 4.97 -0.08c9.03,-0.15 18.07,-0.71 27.06,-1.62 8.95,-0.91 17.68,-2.2 26.13,-3.82 8.31,-1.6 15.69,-3.33 22.08,-5.17 5.97,-1.7 10.77,-3.46 14.37,-5.25l3.39 -1.68 3.55 1.3c3.15,1.15 6.04,2.77 8.62,4.82 2.54,2.02 4.78,4.46 6.66,7.26 1.98,2.97 3.45,6.45 4.36,10.43 0.78,3.39 1.2,7.21 1.26,11.43l3.24 -3.44c5.15,-5.29 10.84,-10.05 16.99,-14.27 6.42,-4.39 13.28,-7.71 20.53,-9.91 7.3,-2.21 14.94,-3.33 22.84,-3.33 15.71,0 30.05,4.62 42.95,13.84l3.96 2.82 -2.63 21.19 -1.69 19.33c-0.53,7.1 -0.86,13.6 -0.94,19.42 -0.08,5.88 0.05,11.53 0.4,16.86l0.39 5.8 -5.68 2.18c-3.02,1.15 -6.57,2.18 -10.56,3.04 -3.91,0.85 -8.16,1.56 -12.67,2.07 -4.35,0.5 -8.64,0.9 -12.78,1.17 -4.24,0.28 -8.06,0.42 -11.43,0.42l-8.22 0 -0.21 -7.88c-0.16,-6.21 -0.75,-11.46 -1.74,-15.64 -0.84,-3.57 -1.95,-6.26 -3.28,-7.97 -1.24,-1.58 -2.65,-2.77 -4.2,-3.52 -1.48,-0.71 -3.26,-1.08 -5.3,-1.08 -1.46,0 -3.01,0.42 -4.62,1.23 -2.06,1.07 -4.29,2.8 -6.58,5.11 -2.53,2.56 -4.9,5.56 -7.08,8.97 -2.24,3.5 -4.32,7.5 -6.18,11.89 -1.85,4.37 -3.24,8.88 -4.14,13.52 -0.9,4.62 -1.36,9.55 -1.36,14.75l0 26.44zm-13.74 29.63c-2.12,-8.13 -3.2,-18.02 -3.2,-29.63l0 -26.44c0,-5.97 0.57,-11.87 1.7,-17.65 1.13,-5.77 2.82,-11.32 5.06,-16.61 2.22,-5.23 4.72,-10.02 7.44,-14.28 2.79,-4.36 5.87,-8.25 9.2,-11.62 3.55,-3.59 7.21,-6.35 10.89,-8.25 4.18,-2.12 8.39,-3.2 12.61,-3.2 4.7,0 9.06,0.96 12.98,2.86 3.85,1.87 7.23,4.64 10.08,8.3 2.74,3.52 4.81,8.22 6.18,14.02 0.74,3.17 1.31,6.75 1.67,10.71l2.35 -0.14c3.58,-0.22 7.57,-0.61 11.92,-1.11 4.18,-0.48 7.85,-1.08 10.95,-1.74l2.39 -0.56 -0.1 -11.84c0.09,-6.61 0.42,-13.42 0.94,-20.37l1.75 -19.73 1.39 -12.21c-8.79,-5.3 -18.43,-7.97 -28.87,-7.97 -6.31,0 -12.23,0.84 -17.74,2.52 -5.55,1.67 -10.82,4.23 -15.77,7.62 -5.2,3.57 -10.05,7.64 -14.49,12.19 -4.44,4.53 -8.5,9.58 -12.12,15.06l-0.13 0.19c-0.78,1.12 -1.63,2.63 -2.51,4.49 -0.93,1.95 -1.91,4.34 -2.91,7.12l-3.4 9.13 -22 54.01 2.27 -49.59 3.35 -13.63 2.71 -12.02c0.74,-3.46 1.31,-6.96 1.68,-10.49 0.35,-3.37 0.53,-6.96 0.53,-10.78 0,-3.5 -0.3,-6.52 -0.87,-9.02 -0.5,-2.19 -1.2,-3.95 -2.04,-5.21 -0.94,-1.4 -2.03,-2.6 -3.22,-3.55l-1 -0.72c-3.8,1.61 -8.23,3.13 -13.25,4.59 -6.49,1.89 -14.41,3.74 -23.68,5.52 -9.14,1.76 -18.37,3.13 -27.65,4.07 -7.56,0.77 -15.33,1.29 -23.27,1.55l-0.59 1.51c-0.69,1.94 -1.24,3.94 -1.59,5.92 -0.38,2.05 -0.66,4.16 -0.86,6.32 2.97,0.35 5.71,0.78 8.21,1.29 5.09,1.04 9.4,2.49 12.9,4.31 3.78,1.96 6.92,4.48 9.43,7.53 2.49,3.04 4.3,6.53 5.39,10.42 1.79,6.49 2.7,14.82 2.7,24.95l0 70.15c0,6.77 -0.28,13 -0.81,18.64 -0.53,5.66 -1.35,10.49 -2.43,14.41 -1.25,4.5 -3.07,8.39 -5.46,11.61 -2.63,3.53 -5.85,6.27 -9.68,8.2 -3.37,1.69 -7.26,3.04 -11.63,4.03 -2.43,0.55 -5.06,1.01 -7.9,1.37l-0.86 6.17 -0.58 8.88 8.82 -0.33 23.05 -0.43 49.72 -0.3 45.17 0.3 21.03 0.43 7.41 0.3 -0.38 -7.49c-0.14,-2.36 -0.45,-4.57 -0.89,-6.61l-0.2 -0.82c-8.12,-0.87 -15.27,-2.34 -21.41,-4.38 -8.11,-2.71 -14.61,-6.49 -19.45,-11.3 -4.97,-4.94 -8.62,-11.84 -10.93,-20.67zm272.15 70.95c-15.63,0 -29.95,-1.4 -42.92,-4.17 -13.15,-2.8 -24.82,-7.05 -35.01,-12.73 -10.17,-5.67 -19.03,-12.37 -26.5,-20.09 -7.53,-7.78 -13.73,-16.59 -18.53,-26.39 -4.71,-9.66 -8.27,-19.86 -10.61,-30.55 -2.36,-10.71 -3.54,-21.93 -3.54,-33.59 0,-12.52 1.32,-24.43 3.98,-35.7 2.67,-11.31 6.64,-21.84 11.93,-31.53 5.34,-9.81 11.86,-18.62 19.5,-26.35 7.63,-7.72 16.45,-14.43 26.38,-20.07 9.98,-5.66 20.86,-9.92 32.57,-12.73 11.65,-2.8 24.14,-4.2 37.41,-4.2 13.4,0 25.7,1.25 36.82,3.72 11.31,2.53 21.42,6.35 30.26,11.43 8.79,5.06 16.51,11.14 23.1,18.21 6.57,7.05 12.01,15.07 16.27,24.01 4.13,8.67 7.39,17.95 9.74,27.79 2.32,9.72 3.78,20.01 4.33,30.8l0.06 1.13 -0.29 1.13c-1.43,5.62 -3.41,10.72 -5.93,15.24 -2.62,4.71 -5.85,8.89 -9.62,12.48l-2.48 2.36 -43.18 0.22 -50.63 0.76 -26.47 0.76 -16.34 0.74c1.31,5.88 3.07,11.37 5.25,16.46 3.18,7.36 7.33,14.05 12.44,19.99 9.51,11.07 24.69,16.61 45.5,16.61 5.65,0 11.24,-0.48 16.69,-1.43 5.57,-0.96 11.25,-2.44 16.99,-4.42 11.17,-3.85 20.43,-9.12 27.72,-15.77l4.31 -3.92 5.31 2.53c2.81,1.33 5.38,3.26 7.61,5.71 1.99,2.19 3.83,4.88 5.5,8.05 1.62,3.04 2.85,6.15 3.67,9.27 0.83,3.23 1.27,6.43 1.27,9.57l0 3.37 -2.58 2.39c-14.03,13 -30.3,22.76 -48.76,29.25 -18.29,6.44 -38.72,9.66 -61.22,9.66zm-39.25 -19.84c11.54,2.45 24.64,3.7 39.25,3.7 20.54,0 39.03,-2.88 55.4,-8.64 15.01,-5.27 28.34,-12.99 39.98,-23.13l-0.48 -2.43c-0.52,-1.94 -1.33,-3.96 -2.39,-5.99l-1.84 -3.06c-7.89,5.94 -17.15,10.75 -27.74,14.41 -6.52,2.25 -13.11,3.95 -19.71,5.09 -6.69,1.18 -13.29,1.76 -19.73,1.76 -26.16,0 -45.71,-7.52 -58.6,-22.53 -6.09,-7.09 -11.07,-15.14 -14.93,-24.09 -3.79,-8.89 -6.46,-18.56 -7.97,-29l-1.23 -8.56 9.1 -0.54c8.33,-0.48 17.04,-0.92 26.12,-1.26l26.79 -0.77c28.99,-0.49 57.92,-0.82 86.91,-1.04 1.67,-1.92 3.14,-4.01 4.4,-6.28 1.74,-3.12 3.14,-6.58 4.18,-10.34 -0.55,-9.43 -1.85,-18.41 -3.87,-26.88 -2.08,-8.68 -4.98,-16.95 -8.68,-24.7 -3.56,-7.47 -8.08,-14.14 -13.51,-19.97 -5.39,-5.79 -11.81,-10.83 -19.18,-15.07 -7.32,-4.21 -15.81,-7.41 -25.38,-9.54 -9.76,-2.17 -20.77,-3.27 -32.98,-3.27 -11.97,0 -23.1,1.24 -33.31,3.69 -10.16,2.44 -19.51,6.07 -28.01,10.9 -8.55,4.86 -16.15,10.64 -22.74,17.31 -6.56,6.63 -12.17,14.22 -16.78,22.69 -4.68,8.58 -8.18,17.82 -10.49,27.66 -2.33,9.93 -3.5,20.66 -3.5,32.2 0,10.69 1.05,20.81 3.14,30.32 2.09,9.53 5.23,18.57 9.38,27.02 4.1,8.31 9.33,15.76 15.66,22.29 6.37,6.58 13.93,12.31 22.6,17.14 8.65,4.82 18.71,8.46 30.14,10.91zm32.85 -190.61c-4.77,0 -9.13,1.05 -13.02,3.14 -4.08,2.16 -7.87,5.6 -11.33,10.23 -3.52,4.7 -6.31,11.12 -8.32,19.19 -1.63,6.54 -2.75,14.03 -3.34,22.47l67.94 0c-0.32,-7.61 -1.1,-14.48 -2.34,-20.6 -1.6,-7.91 -3.98,-14.63 -7.11,-20.06 -2.88,-5.01 -6.24,-8.73 -10,-11.06 -3.55,-2.2 -7.72,-3.31 -12.48,-3.31zm-21.28 -10.89c6.49,-3.49 13.61,-5.25 21.28,-5.25 8.04,0 15.29,2 21.68,5.96 6.18,3.84 11.4,9.46 15.62,16.79 3.98,6.91 6.95,15.19 8.89,24.79 1.89,9.32 2.84,19.9 2.84,31.7l0 8.06 -102.53 0 0.23 -8.25c0.36,-13.17 1.76,-24.55 4.14,-34.07 2.5,-10.05 6.2,-18.34 11.02,-24.79 4.88,-6.53 10.5,-11.52 16.83,-14.94zm348.64 54.26c3.67,-8.77 6.06,-16.09 7.12,-21.91 0.86,-4.73 0.84,-8.08 -0.03,-9.96 -0.87,-1.81 -2.52,-3.39 -4.96,-4.73 -3.1,-1.71 -7.37,-3.01 -12.73,-3.85l-5.01 -0.79 -1.63 -4.59c-0.8,-2.26 -1.53,-4.77 -2.17,-7.47 -0.66,-2.76 -1.22,-5.57 -1.66,-8.38 -0.47,-2.86 -0.83,-5.89 -1.07,-9.05 -0.25,-3.17 -0.38,-6.22 -0.38,-9.18l0 -8.8 21.59 1.6 13.17 0.45c18.02,0.24 35.86,0.25 53.88,0l12.45 -0.45 11.78 -0.8 9.23 -0.81 0 8.81 -0.31 8 -0.83 8.68c-0.37,3.04 -0.93,6.08 -1.64,9.1 -0.72,3.07 -1.58,5.91 -2.53,8.45l-1.55 4.13 -4.54 1c-3.81,0.84 -7.16,2.04 -9.96,3.58 -2.69,1.49 -4.96,3.29 -6.76,5.38 -4.43,5.12 -9.89,15.14 -16.32,29.98l-78.47 177.97c-10.47,23.35 -19.95,42.27 -28.45,56.73 -4.25,7.24 -8.48,13.72 -12.63,19.44 -4.18,5.76 -8.32,10.67 -12.37,14.71 -4.22,4.16 -8.4,7.66 -12.54,10.44 -4.32,2.91 -8.79,5.19 -13.33,6.79 -4.39,1.56 -8.83,2.71 -13.3,3.46 -4.55,0.77 -9.22,1.15 -13.92,1.15 -6.13,0 -12.1,-0.55 -17.86,-1.66 -5.69,-1.04 -11.16,-2.71 -16.31,-4.92 -5.13,-2.21 -9.62,-4.62 -13.4,-7.2 -4.02,-2.75 -7.46,-5.78 -10.23,-9.05l-1.41 -1.66 -0.37 -2.11c-0.58,-3.37 -0.94,-7.21 -1.03,-11.44 -0.09,-4.18 0.05,-8.62 0.4,-13.3 0.37,-4.92 1.01,-9.51 1.86,-13.68 0.88,-4.3 2.03,-8.3 3.43,-11.9l2.6 -6.69 16.97 3.6 11.41 1.99c3.85,0.62 7.96,1.11 12.25,1.43 4.13,0.31 8.58,0.47 13.29,0.47 5.15,0 9.88,-0.42 14.16,-1.23 4.14,-0.76 7.89,-1.95 11.23,-3.5 3.19,-1.52 6.22,-3.62 9.05,-6.28 2.99,-2.81 5.85,-6.34 8.52,-10.52l0.27 -0.37c1.32,-1.83 3.12,-4.77 5.35,-8.78l6.18 -11.7c-18.29,-38.98 -36.59,-77.9 -55.23,-116.73l-13.47 -27.49 -12.42 -24.64c-2.95,-6.12 -5.74,-11.51 -8.3,-16.09 -2.47,-4.38 -4.82,-8.13 -7.02,-11.19 -2.06,-2.87 -4.05,-5.25 -5.9,-7.09 -1.62,-1.61 -3.22,-2.86 -4.73,-3.7 -1.7,-0.94 -3.54,-1.77 -5.48,-2.44 -1.98,-0.7 -4.12,-1.28 -6.31,-1.69l-4.78 -0.91 -1.57 -4.44c-1.63,-4.63 -2.84,-10.1 -3.61,-16.35l-0.83 -8.98 -0.3 -8.75 0 -8.62 25.15 1.42 17.84 0.45c26.4,0.26 52.67,0.22 79.07,0l21.14 -0.45c6.23,-0.19 12.23,-0.47 17.93,-0.82l9 -0.57 0 8.59c0,6.11 -0.49,12.26 -1.44,18.45 -0.46,2.96 -1.03,5.82 -1.67,8.51 -0.66,2.73 -1.42,5.18 -2.23,7.31l-1.69 4.45 -4.96 0.74c-7.16,1.06 -12.65,2.49 -16.4,4.23 -2.4,1.11 -3.79,2.16 -4.11,3.09 -0.52,1.5 -0.19,4.34 0.97,8.47 1.49,5.25 4.22,11.75 8.18,19.46 3.11,5.87 6.3,12.16 9.54,18.8l10.14 21.47c3.44,7.49 6.8,15.15 10.04,22.93l1.41 3.41 25.55 -61.41zm23.78 -19.2c-1.25,6.86 -3.97,15.25 -8.1,25.12l-41.9 100.71 -7.54 -20.17c-2.91,-7.79 -5.88,-15.31 -8.88,-22.53 -3.06,-7.37 -6.35,-14.86 -9.84,-22.44l-9.99 -21.1 -9.32 -18.42c-4.55,-8.91 -7.69,-16.39 -9.41,-22.48 -2.02,-7.18 -2.24,-13.09 -0.63,-17.69 1.8,-5.17 6.06,-9.35 12.71,-12.44 4.18,-1.95 9.5,-3.55 15.94,-4.78l0.28 -1.12c0.49,-2.03 0.96,-4.46 1.39,-7.24l0.89 -7.61 -9.12 0.34 -21.46 0.45c-26.52,0.22 -52.92,0.26 -79.44,0l-25.61 -0.75 0.72 7.28c0.41,3.36 0.94,6.34 1.59,8.97l3.76 1.18c2.85,1 5.57,2.22 8.14,3.65 2.75,1.52 5.55,3.7 8.35,6.48 2.57,2.54 5.15,5.62 7.7,9.17 2.42,3.37 5.08,7.61 7.94,12.69 2.74,4.91 5.68,10.57 8.76,16.96l12.36 24.47 13.53 27.61 14.35 29.89 44.12 93.81 -1.65 3.32c-3.15,6.37 -5.89,11.62 -8.17,15.72 -2.28,4.09 -4.34,7.42 -6.14,9.96 -3.37,5.28 -7.09,9.84 -11.1,13.61 -4.18,3.93 -8.69,7.03 -13.49,9.26 -4.67,2.13 -9.8,3.76 -15.33,4.83 -5.41,1.06 -11.24,1.58 -17.46,1.58 -4.88,0 -9.76,-0.19 -14.58,-0.54 -4.68,-0.35 -9.28,-0.9 -13.77,-1.62l-14.38 -2.53 -0.62 2.75c-0.73,3.59 -1.28,7.53 -1.6,11.73 -0.34,4.45 -0.48,8.42 -0.4,11.84 0.05,2.49 0.22,4.83 0.5,6.98 1.56,1.56 3.4,3.07 5.5,4.5 3.08,2.06 6.58,3.97 10.49,5.63 3.93,1.68 8.17,2.96 12.69,3.81 4.45,0.88 9.31,1.31 14.57,1.31 3.83,0 7.52,-0.3 11.02,-0.89 3.62,-0.6 7.06,-1.48 10.32,-2.64 3.09,-1.08 6.27,-2.74 9.49,-4.9 3.4,-2.3 6.77,-5.09 10.04,-8.34 3.39,-3.42 6.98,-7.7 10.71,-12.81 3.75,-5.13 7.69,-11.18 11.77,-18.14 8.2,-13.98 17.42,-32.37 27.6,-55.1l78.46 -177.92c7.09,-16.28 13.4,-27.65 18.9,-34.01 3.16,-3.66 6.97,-6.72 11.38,-9.13 3,-1.61 6.27,-2.97 9.81,-4.04l0.71 -2.68c0.52,-2.21 0.96,-4.7 1.3,-7.44l0.64 -6.11 -15.82 0.6c-18.21,0.25 -36.24,0.24 -54.45,0l-17.24 -0.63 0.89 7.15c0.43,2.79 0.9,5.21 1.39,7.26l0.38 1.52c5.1,1.16 9.5,2.76 13.16,4.77 5.57,3.07 9.54,7.09 11.89,12.05 2.3,4.91 2.73,11.35 1.3,19.28zm424.41 181.92c-4.3,-7.83 -7.97,-14.69 -10.94,-20.51 -3.31,-6.47 -6.35,-12.68 -9.07,-18.58 -5.54,-11.85 -11.05,-24.62 -17.09,-36.13 -3.87,-8.39 -7.63,-15.92 -11.25,-22.53 -3.75,-6.78 -7.34,-12.71 -10.77,-17.73 -3.44,-5.02 -7.46,-10.06 -12.02,-15.04 -4.01,-4.36 -8.41,-8.68 -13.2,-12.97l-16.08 0.13 0 51.71c0,14.73 0.81,25.52 2.43,32.29 0.69,2.93 1.6,5.27 2.68,7.01 0.83,1.33 1.76,2.3 2.76,2.86 3.35,1.91 8.32,3.16 14.85,3.72l5.72 0.49 1.62 5.22c0.61,1.96 1.17,4.31 1.63,7.04 0.46,2.71 0.83,5.57 1.1,8.54l0.6 9.02 0.24 8.7 0 8.4 -34.39 -1.39c-9.19,-0.3 -18.88,-0.47 -29.06,-0.47l-62.35 0.22 -18.79 0.44 -25.54 1.42 0 -8.62c0,-6.65 0.34,-12.77 1,-18.32 0.66,-5.56 1.71,-10.59 3.13,-15.02l1.7 -5.29 5.74 -0.41c4.42,-0.31 8.25,-0.83 11.4,-1.56 2.9,-0.66 5.37,-1.53 7.32,-2.55 1.41,-0.73 2.63,-1.81 3.62,-3.19 1.24,-1.7 2.23,-3.88 2.95,-6.51 0.87,-3.18 1.53,-7.12 1.97,-11.79 0.44,-4.68 0.67,-10.41 0.67,-17.2l0 -184.02c0,-12.54 -0.89,-21.94 -2.64,-28.17 -0.73,-2.6 -1.71,-4.75 -2.91,-6.41 -1.1,-1.5 -2.38,-2.65 -3.86,-3.48 -1.83,-1.02 -4.29,-1.91 -7.3,-2.61 -3.3,-0.77 -7.21,-1.32 -11.68,-1.62l-6.15 -0.42 -1.49 -5.68c-0.61,-2.35 -1.15,-4.95 -1.57,-7.69 -0.42,-2.72 -0.78,-5.78 -1.06,-9.11l-0.6 -8.71 -0.24 -6.92 0 -8.34c21.58,0.77 43.05,1.34 64.65,1.71l22.82 0.09 20.21 -0.22 51.54 -1.53 28.06 -0.28c14.98,0 28.73,1.09 41.21,3.27 12.62,2.2 23.86,5.54 33.65,9.97 9.82,4.42 18.44,9.65 25.81,15.61 7.47,6.05 13.68,12.89 18.6,20.49 4.85,7.48 8.52,15.41 10.95,23.71 2.46,8.34 3.69,17.02 3.69,26 0,28.73 -8.35,52.28 -25.04,70.58 -8.27,9.06 -17.78,16.64 -28.51,22.7 -6.18,3.5 -12.78,6.51 -19.79,9.01 3.84,3.18 7.34,6.42 10.5,9.69 3.28,3.39 6.66,7.33 10.08,11.76 3.3,4.28 6.68,9.09 10.1,14.38 3.21,4.95 6.9,10.97 11.03,17.94 4.16,6.98 8.49,14.54 13.01,22.65 2.95,5 5.7,9.35 8.18,13.06 2.47,3.68 4.84,6.94 7.08,9.73 1.91,2.38 3.96,4.44 6.08,6.08 2.04,1.58 4.27,2.9 6.63,3.89 2.4,1.05 5.37,1.91 8.85,2.61 3.66,0.73 7.78,1.27 12.32,1.56l7.91 0.52 0 7.51c0,6.14 -0.4,12.06 -1.17,17.69 -0.77,5.61 -1.95,10.87 -3.5,15.68l-1.84 5.7 -36.26 0.22c-9.43,0.16 -18.62,0.42 -27.56,0.76 -8.34,0.33 -16.33,0.8 -23.99,1.4 -7.23,0.58 -13.81,1.28 -19.69,2.1l-5.89 0.82 -2.8 -5.08zm4.28 -27.56l7.93 15.11c4.59,-0.55 9.53,-1.03 14.79,-1.45 7.19,-0.57 15.45,-1.04 24.71,-1.39 8.71,-0.34 18.06,-0.59 27.96,-0.76l23.78 -0.28c0.55,-2.34 0.99,-4.8 1.34,-7.34 0.36,-2.62 0.62,-5.42 0.78,-8.37l-6.57 -1.09c-4.49,-0.89 -8.58,-2.12 -12.19,-3.65 -3.69,-1.51 -7.18,-3.57 -10.46,-6.12 -3.2,-2.49 -6.17,-5.45 -8.86,-8.79 -2.38,-2.97 -5.02,-6.6 -7.88,-10.88 -2.81,-4.19 -5.76,-8.85 -8.77,-13.93l-0.13 -0.19c-4.73,-8.49 -9.01,-15.96 -12.78,-22.34 -3.75,-6.39 -7.32,-12.19 -10.68,-17.37 -3.14,-4.85 -6.27,-9.31 -9.36,-13.32 -2.98,-3.85 -5.96,-7.34 -8.9,-10.37 -2.93,-3.04 -6.12,-5.98 -9.51,-8.77 -3.46,-2.86 -7.25,-5.67 -11.31,-8.42l-15.04 -10.17 17.91 -4.19c11.45,-2.67 21.84,-6.66 31.08,-11.88 9.19,-5.19 17.31,-11.67 24.35,-19.37 13.9,-15.24 20.86,-35.28 20.86,-60.07 0,-7.63 -1,-14.86 -3,-21.66 -2,-6.85 -5.03,-13.39 -9.06,-19.61 -3.96,-6.11 -9.02,-11.67 -15.16,-16.64 -6.22,-5.04 -13.62,-9.5 -22.13,-13.35 -8.52,-3.87 -18.34,-6.76 -29.45,-8.71 -11.24,-1.96 -23.98,-2.95 -38.17,-2.95l-27.72 0.21 -51.48 1.52 -20.61 0.3 -23.02 -0.16c-15.74,-0.27 -31.48,-0.53 -47.22,-1.09l0.47 6.03 1.05 8.73c2.9,0.37 5.6,0.85 8.08,1.43 4.54,1.07 8.48,2.53 11.8,4.38 3.67,2.06 6.77,4.81 9.24,8.24 2.32,3.25 4.11,7.06 5.33,11.35 2.15,7.65 3.24,18.43 3.24,32.32l0 184.02c0,6.77 -0.28,13 -0.81,18.64 -0.53,5.66 -1.35,10.49 -2.43,14.41 -1.22,4.44 -3.01,8.29 -5.34,11.51 -2.52,3.52 -5.69,6.28 -9.43,8.24 -3.18,1.67 -7.04,3.04 -11.5,4.06 -2.48,0.57 -5.15,1.04 -7.98,1.4 -0.46,2.16 -0.84,4.53 -1.15,7.09l-0.66 7.95 7.8 -0.32 19.19 -0.43 38.53 -0.3 24.02 0c9.01,0 18.92,0.19 29.62,0.54l16.71 0.63 -0.58 -7.91 -0.92 -7.44c-6.31,-1.03 -11.58,-2.76 -15.8,-5.17 -3.44,-1.95 -6.33,-4.8 -8.61,-8.49 -2,-3.23 -3.55,-7.14 -4.63,-11.64 -1.93,-8.12 -2.91,-20.08 -2.91,-35.82l0 -68.34 8.77 0.33 13.58 0.21 17.04 -0.34 2.53 2.21c6.33,5.49 12.03,11 17.03,16.47 5.1,5.6 9.6,11.25 13.45,16.87 3.86,5.66 7.74,12.03 11.59,19.07 3.9,7.18 7.83,15.03 11.75,23.53l17.05 36.03c2.62,5.62 5.57,11.65 8.85,18.05zm-82.74 -287.31c-5.04,0 -9.88,0.31 -14.46,0.92 -2.54,0.34 -5.04,0.77 -7.5,1.3l0 120.89 2.33 0.2c2.89,0.23 5.71,0.34 8.42,0.34 6.78,0 13.28,-0.59 19.46,-1.74 6.2,-1.16 12.15,-2.91 17.8,-5.21 5.49,-2.24 10.46,-5.09 14.86,-8.5 4.41,-3.41 8.31,-7.45 11.66,-12.05 3.28,-4.51 5.76,-9.67 7.42,-15.46 1.66,-6 2.53,-12.71 2.53,-20.13 0,-9.7 -1.32,-18.29 -3.93,-25.72 -2.57,-7.31 -6.41,-13.63 -11.47,-18.98 -4.91,-5.17 -11.19,-9.09 -18.78,-11.73 -7.91,-2.75 -17.38,-4.13 -28.34,-4.13zm-16.78 -15.02c5.53,-0.73 11.14,-1.11 16.78,-1.11 12.87,0 24.25,1.71 34.1,5.14 10.19,3.54 18.7,8.91 25.52,16.09 6.66,7.03 11.67,15.24 14.97,24.63 3.24,9.23 4.87,19.52 4.87,30.83 0,8.84 -1.07,16.97 -3.17,24.35 -2.21,7.58 -5.49,14.39 -9.84,20.36 -4.29,5.89 -9.26,11.04 -14.9,15.41 -5.63,4.37 -11.96,7.99 -18.88,10.82 -6.79,2.77 -13.87,4.85 -21.18,6.22 -7.32,1.37 -14.91,2.06 -22.7,2.06 -2.99,0 -6.27,-0.14 -9.77,-0.41 -3.47,-0.27 -7.07,-0.68 -10.71,-1.2l-7.21 -1.05 0 -147.12 6.09 -1.71c5.21,-1.47 10.58,-2.59 16.03,-3.31zm401.79 167.17c3.67,-8.77 6.06,-16.09 7.12,-21.91 0.86,-4.73 0.84,-8.08 -0.03,-9.96 -0.87,-1.81 -2.52,-3.39 -4.96,-4.73 -3.1,-1.71 -7.37,-3.01 -12.73,-3.85l-5.01 -0.79 -1.63 -4.59c-0.8,-2.26 -1.53,-4.77 -2.17,-7.47 -0.66,-2.76 -1.22,-5.57 -1.66,-8.38 -0.47,-2.86 -0.83,-5.89 -1.07,-9.05 -0.25,-3.17 -0.38,-6.22 -0.38,-9.18l0 -8.8 21.59 1.6 13.17 0.45c18.02,0.24 35.86,0.25 53.88,0l12.45 -0.45 11.78 -0.8 9.23 -0.81 0 8.81 -0.31 8 -0.83 8.68c-0.37,3.04 -0.93,6.08 -1.64,9.1 -0.72,3.07 -1.58,5.91 -2.53,8.45l-1.55 4.13 -4.54 1c-3.81,0.84 -7.16,2.04 -9.96,3.58 -2.69,1.49 -4.96,3.29 -6.76,5.38 -4.43,5.12 -9.89,15.14 -16.32,29.98l-78.47 177.97c-10.47,23.35 -19.95,42.27 -28.45,56.73 -4.25,7.24 -8.48,13.72 -12.63,19.44 -4.18,5.76 -8.32,10.67 -12.37,14.71 -4.22,4.16 -8.4,7.66 -12.54,10.44 -4.32,2.91 -8.79,5.19 -13.33,6.79 -4.39,1.56 -8.83,2.71 -13.3,3.46 -4.55,0.77 -9.22,1.15 -13.92,1.15 -6.13,0 -12.1,-0.55 -17.86,-1.66 -5.69,-1.04 -11.16,-2.71 -16.31,-4.92 -5.13,-2.21 -9.62,-4.62 -13.4,-7.2 -4.02,-2.75 -7.46,-5.78 -10.23,-9.05l-1.41 -1.66 -0.37 -2.11c-0.58,-3.37 -0.94,-7.21 -1.03,-11.44 -0.09,-4.18 0.05,-8.62 0.4,-13.3 0.37,-4.92 1.01,-9.51 1.86,-13.68 0.88,-4.3 2.03,-8.3 3.43,-11.9l2.6 -6.69 16.97 3.6 11.41 1.99c3.85,0.62 7.96,1.11 12.25,1.43 4.13,0.31 8.58,0.47 13.29,0.47 5.15,0 9.88,-0.42 14.16,-1.23 4.14,-0.76 7.89,-1.95 11.23,-3.5 3.19,-1.52 6.22,-3.62 9.05,-6.28 2.99,-2.81 5.85,-6.34 8.52,-10.52l0.27 -0.37c1.32,-1.83 3.12,-4.77 5.35,-8.78l6.18 -11.7c-18.29,-38.98 -36.59,-77.9 -55.23,-116.73l-13.47 -27.49 -12.42 -24.64c-2.95,-6.12 -5.74,-11.51 -8.3,-16.09 -2.47,-4.38 -4.82,-8.13 -7.02,-11.19 -2.06,-2.87 -4.05,-5.25 -5.9,-7.09 -1.62,-1.61 -3.22,-2.86 -4.73,-3.7 -1.7,-0.94 -3.54,-1.77 -5.48,-2.44 -1.98,-0.7 -4.12,-1.28 -6.31,-1.69l-4.78 -0.91 -1.57 -4.44c-1.63,-4.63 -2.84,-10.1 -3.61,-16.35l-0.83 -8.98 -0.3 -8.75 0 -8.62 25.15 1.42 17.84 0.45c26.4,0.26 52.67,0.22 79.07,0l21.14 -0.45c6.23,-0.19 12.23,-0.47 17.93,-0.82l9 -0.57 0 8.59c0,6.11 -0.49,12.26 -1.44,18.45 -0.46,2.96 -1.03,5.82 -1.67,8.51 -0.66,2.73 -1.42,5.18 -2.23,7.31l-1.69 4.45 -4.96 0.74c-7.16,1.06 -12.65,2.49 -16.4,4.23 -2.4,1.11 -3.79,2.16 -4.11,3.09 -0.52,1.5 -0.19,4.34 0.97,8.47 1.49,5.25 4.22,11.75 8.18,19.46 3.11,5.87 6.3,12.16 9.54,18.8l10.14 21.47c3.44,7.49 6.8,15.15 10.04,22.93l1.41 3.41 25.55 -61.41zm23.78 -19.2c-1.25,6.86 -3.97,15.25 -8.1,25.12l-41.9 100.71 -7.54 -20.17c-2.91,-7.79 -5.88,-15.31 -8.88,-22.53 -3.06,-7.37 -6.35,-14.86 -9.84,-22.44l-9.99 -21.1 -9.32 -18.42c-4.55,-8.91 -7.69,-16.39 -9.41,-22.48 -2.02,-7.18 -2.24,-13.09 -0.63,-17.69 1.8,-5.17 6.06,-9.35 12.71,-12.44 4.18,-1.95 9.5,-3.55 15.94,-4.78l0.28 -1.12c0.49,-2.03 0.96,-4.46 1.39,-7.24l0.89 -7.61 -9.12 0.34 -21.46 0.45c-26.52,0.22 -52.92,0.26 -79.44,0l-25.61 -0.75 0.72 7.28c0.41,3.36 0.94,6.34 1.59,8.97l3.76 1.18c2.85,1 5.57,2.22 8.14,3.65 2.75,1.52 5.55,3.7 8.35,6.48 2.57,2.54 5.15,5.62 7.7,9.17 2.42,3.37 5.08,7.61 7.94,12.69 2.74,4.91 5.68,10.57 8.76,16.96l12.36 24.47 13.53 27.61 14.35 29.89 44.12 93.81 -1.65 3.32c-3.15,6.37 -5.89,11.62 -8.17,15.72 -2.28,4.09 -4.34,7.42 -6.14,9.96 -3.37,5.28 -7.09,9.84 -11.1,13.61 -4.18,3.93 -8.69,7.03 -13.49,9.26 -4.67,2.13 -9.8,3.76 -15.33,4.83 -5.41,1.06 -11.24,1.58 -17.46,1.58 -4.88,0 -9.76,-0.19 -14.58,-0.54 -4.68,-0.35 -9.28,-0.9 -13.77,-1.62l-14.38 -2.53 -0.62 2.75c-0.73,3.59 -1.28,7.53 -1.6,11.73 -0.34,4.45 -0.48,8.42 -0.4,11.84 0.05,2.49 0.22,4.83 0.5,6.98 1.56,1.56 3.4,3.07 5.5,4.5 3.08,2.06 6.58,3.97 10.49,5.63 3.93,1.68 8.17,2.96 12.69,3.81 4.45,0.88 9.31,1.31 14.57,1.31 3.83,0 7.52,-0.3 11.02,-0.89 3.62,-0.6 7.06,-1.48 10.32,-2.64 3.09,-1.08 6.27,-2.74 9.49,-4.9 3.4,-2.3 6.77,-5.09 10.04,-8.34 3.39,-3.42 6.98,-7.7 10.71,-12.81 3.75,-5.13 7.69,-11.18 11.77,-18.14 8.2,-13.98 17.42,-32.37 27.6,-55.1l78.46 -177.92c7.09,-16.28 13.4,-27.65 18.9,-34.01 3.16,-3.66 6.97,-6.72 11.38,-9.13 3,-1.61 6.27,-2.97 9.81,-4.04l0.71 -2.68c0.52,-2.21 0.96,-4.7 1.3,-7.44l0.64 -6.11 -15.82 0.6c-18.21,0.25 -36.24,0.24 -54.45,0l-17.24 -0.63 0.89 7.15c0.43,2.79 0.9,5.21 1.39,7.26l0.38 1.52c5.1,1.16 9.5,2.76 13.16,4.77 5.57,3.07 9.54,7.09 11.89,12.05 2.3,4.91 2.73,11.35 1.3,19.28zm80.74 175.16l0.24 -9.21 0.63 -8.57c0.3,-3.06 0.72,-5.82 1.23,-8.25 0.52,-2.47 1.23,-5 2.1,-7.5l1.87 -5.37 5.93 -0.14c6.01,-0.13 10.98,-0.88 14.83,-2.2 3.16,-1.1 5.51,-2.57 6.98,-4.37 1.7,-2.07 3.05,-5.39 4.01,-9.88 1.11,-5.14 1.67,-11.73 1.67,-19.74l0 -211.46c0,-8.75 -1.82,-14.98 -5.45,-18.68 -1.55,-1.57 -4.3,-2.94 -8.22,-4.08 -4.71,-1.37 -10.87,-2.31 -18.42,-2.77l-7.94 -0.49 0 -7.53 0.31 -8.1 0.86 -8.01c0.43,-2.96 1.12,-5.83 2.06,-8.56 0.95,-2.75 2.18,-5.48 3.67,-8.12l2.41 -4.26 5.03 0c11.56,0 23.41,-0.73 35.51,-2.19 5.97,-0.71 11.85,-1.61 17.58,-2.66 5.52,-1.01 10.88,-2.19 15.99,-3.5 4.98,-1.28 9.3,-2.58 12.94,-3.85 3.48,-1.22 6.26,-2.4 8.29,-3.49l3.47 -1.89 3.74 1.38c3.15,1.15 6.04,2.77 8.62,4.82 2.56,2.03 4.79,4.46 6.66,7.23 1.94,2.94 3.4,6.37 4.32,10.26 0.86,3.68 1.31,7.75 1.31,12.13l0 263.82c0,8.03 0.53,14.65 1.55,19.83 0.93,4.58 2.19,7.95 3.76,10.01 1.31,1.75 3.41,3.15 6.29,4.19 3.6,1.3 8.21,2.03 13.76,2.16l6.47 0.16 1.53 5.95c0.56,2.17 1.08,4.65 1.54,7.38 0.41,2.6 0.79,5.4 1.06,8.33l0.63 8.65 0.24 8.57 0 8.8 -9.23 -0.8c-3.75,-0.32 -8.37,-0.6 -13.78,-0.8l-18.62 -0.44 -42.64 -0.25 -43.4 0.25c-6.95,0.07 -13.21,0.23 -18.72,0.44 -5.32,0.2 -9.8,0.48 -13.41,0.8l-9.26 0.84 0 -8.84zm17.67 -16.27l-0.56 7.62 24.08 -0.64 43.6 -0.3 42.78 0.3 24.35 0.66 -0.56 -7.2c-0.21,-2.58 -0.54,-5.01 -0.89,-7.21l-0.06 -0.37c-4.74,-0.5 -8.94,-1.43 -12.57,-2.74 -6.01,-2.18 -10.67,-5.47 -13.97,-9.8 -3.06,-4 -5.29,-9.5 -6.68,-16.42 -1.26,-6.36 -1.9,-13.97 -1.9,-22.86l0 -263.82c0,-3.39 -0.28,-6.28 -0.83,-8.6 -0.49,-2.08 -1.19,-3.79 -2.07,-5.12 -0.99,-1.43 -2.07,-2.63 -3.23,-3.56l-0.88 -0.64 -6.64 2.6c-4.08,1.42 -8.89,2.87 -14.4,4.29 -5.39,1.38 -11.14,2.65 -17.17,3.75 -5.8,1.06 -12.04,2 -18.64,2.79 -11.18,1.34 -21.9,2.13 -32.19,2.33l-0.47 1.27c-0.65,1.91 -1.13,3.84 -1.4,5.76l-0.72 6.64c5.32,0.63 10.02,1.54 14.07,2.72 6.84,1.99 12.08,4.83 15.68,8.5 6.67,6.8 10.03,16.68 10.03,29.63l0 211.46c0,8.93 -0.69,16.6 -2.07,22.96 -1.5,7.01 -3.92,12.55 -7.19,16.55 -3.5,4.27 -8.4,7.5 -14.66,9.64 -3.98,1.33 -8.56,2.25 -13.71,2.74l-0.1 0.46c-0.46,2.21 -0.82,4.43 -1.03,6.61zm163.81 16.27l0.24 -9.21 0.63 -8.57c0.3,-3.06 0.72,-5.82 1.23,-8.25 0.52,-2.47 1.23,-5 2.1,-7.5l1.87 -5.37 5.93 -0.14c6.01,-0.13 10.98,-0.88 14.83,-2.2 3.16,-1.1 5.51,-2.57 6.98,-4.37 1.7,-2.07 3.05,-5.39 4.01,-9.88 1.11,-5.14 1.67,-11.73 1.67,-19.74l0 -208.93c0,-9.97 -1.77,-17.02 -5.28,-21.11 -1.36,-1.56 -3.98,-2.93 -7.81,-4.09 -4.87,-1.43 -11.2,-2.4 -18.97,-2.86l-7.97 -0.47 0 -7.55 0.31 -8.1 0.86 -8.01c0.43,-2.96 1.12,-5.83 2.06,-8.56 0.95,-2.75 2.18,-5.48 3.67,-8.12l2.41 -4.26 5.03 0c11.56,0 23.41,-0.73 35.51,-2.19 5.97,-0.71 11.85,-1.61 17.58,-2.66 5.52,-1.01 10.88,-2.19 15.99,-3.5 4.98,-1.28 9.3,-2.58 12.94,-3.85 3.48,-1.22 6.26,-2.4 8.29,-3.49l3.47 -1.89 3.74 1.38c3.15,1.15 6.04,2.77 8.62,4.82 2.56,2.03 4.79,4.46 6.66,7.23 1.94,2.94 3.4,6.37 4.32,10.26 0.86,3.68 1.31,7.75 1.31,12.13l0 187.78 23.24 -19.91c4.85,-4.3 8.94,-8.07 12.18,-11.29 3.19,-3.15 5.62,-5.79 7.27,-7.88 1.53,-1.93 2.65,-3.62 3.34,-5l0.29 -0.66c-1.29,-0.45 -3.3,-0.72 -5.98,-0.82l-5.5 -0.2 -2.04 -4.84c-1.21,-2.87 -2.22,-5.71 -3,-8.47 -0.78,-2.74 -1.38,-5.54 -1.79,-8.4 -0.39,-2.61 -0.69,-5.36 -0.88,-8.16l-0.3 -8.45 0 -8.37 23.99 0.79c39.33,0.65 77.5,0.65 116.78,-0.76l0 8.34 -0.3 8.47c-0.18,2.78 -0.48,5.56 -0.86,8.32 -0.38,2.74 -0.94,5.52 -1.64,8.32 -0.73,2.91 -1.57,5.61 -2.5,8.09l-1.83 4.89 -5.48 0.43c-6.16,0.48 -11.89,1.31 -17.16,2.49 -5.25,1.17 -10.01,2.65 -14.22,4.43 -4.29,1.83 -9,4.52 -14.1,8.06 -5.2,3.62 -10.96,8.26 -17.18,13.86l-28.03 24.23c4.52,4.14 9.04,8.41 13.53,12.84 6.58,6.48 13.04,13.22 19.36,20.18 6.31,6.95 12.78,14.35 19.39,22.13 6.69,7.88 13.52,16.14 20.44,24.76 3.88,4.82 7.48,8.86 10.75,12.05 3.01,2.95 5.74,5.16 8.15,6.62 2.27,1.37 5.01,2.5 8.17,3.32 3.44,0.89 7.51,1.51 12.15,1.81l7.91 0.5 0 7.52c0,2.8 -0.13,5.73 -0.37,8.71 -0.22,2.7 -0.6,5.58 -1.1,8.57 -0.5,2.98 -1.12,5.77 -1.83,8.33 -0.75,2.73 -1.63,5.34 -2.61,7.76l-2.09 5.2 -26.42 0.22 -22.8 0.76c-7.95,0.34 -15.3,0.8 -22.02,1.37 -6.43,0.55 -12.67,1.26 -18.71,2.13l-5.35 0.77 -2.99 -4.33c-3.44,-5.01 -7.23,-10.28 -11.31,-15.79l-14.01 -18.39 -15.98 -19.99 -17.18 -20.69c-5.75,-6.78 -11.55,-13.48 -17.39,-20.07l-1.99 -2.24 0 14.48c0,7.98 0.45,14.55 1.33,19.67 0.79,4.62 1.89,8.04 3.28,10.2 1.08,1.69 2.73,3.05 4.9,4.06 2.67,1.24 6.13,2.01 10.31,2.26l5.68 0.36 1.79 5.15c0.86,2.48 1.57,5.11 2.05,7.82 0.5,2.62 0.85,5.54 1.04,8.71l0.4 8.59 0.18 17.21 -9.23 -0.8c-3.76,-0.32 -8.25,-0.6 -13.38,-0.8l-17.45 -0.44 -39.94 -0.25 -42.06 0.25c-6.86,0.07 -13.06,0.23 -18.52,0.44 -5.28,0.2 -9.74,0.48 -13.35,0.8l-9.26 0.84 0 -8.84zm17.67 -16.27l-0.56 7.62 23.82 -0.64 42.26 -0.3 40.11 0.3 22.83 0.65 -0.38 -7.41c-0.14,-2.41 -0.43,-4.72 -0.83,-6.9l-0.13 -0.73c-3.9,-0.66 -7.39,-1.71 -10.45,-3.13 -5.11,-2.37 -9.1,-5.78 -11.92,-10.17 -2.52,-3.93 -4.36,-9.27 -5.52,-15.99 -1.07,-6.22 -1.61,-13.65 -1.61,-22.26l0 -263.82c0,-3.39 -0.28,-6.28 -0.83,-8.6 -0.49,-2.08 -1.19,-3.79 -2.07,-5.12 -0.99,-1.43 -2.07,-2.63 -3.23,-3.56l-0.88 -0.64 -6.64 2.6c-4.08,1.42 -8.89,2.87 -14.4,4.29 -5.39,1.38 -11.14,2.65 -17.17,3.75 -5.8,1.06 -12.04,2 -18.64,2.79 -11.18,1.34 -21.9,2.13 -32.19,2.33l-0.47 1.27c-0.65,1.91 -1.13,3.84 -1.4,5.76l-0.72 6.6c5.71,0.66 10.66,1.62 14.84,2.88 7.06,2.16 12.32,5.24 15.78,9.26 6.11,7.12 9.16,17.54 9.16,31.28l0 208.93c0,8.93 -0.69,16.6 -2.07,22.96 -1.5,7.01 -3.92,12.55 -7.19,16.55 -3.5,4.27 -8.4,7.5 -14.66,9.64 -3.98,1.33 -8.56,2.25 -13.71,2.74l-0.1 0.46c-0.46,2.21 -0.82,4.43 -1.03,6.61zm111.74 -110.93l-5.09 4.36 5.76 6.2c5.79,6.23 11.49,12.49 17.04,18.77 5.61,6.33 11.52,13.16 17.65,20.4l17.38 20.87 16.18 20.3 14.27 18.71 8.67 11.95 14.35 -1.47c7.17,-0.6 14.78,-1.08 22.82,-1.42l23.12 -0.76 14.91 -0.26 0.27 -0.96c0.62,-2.24 1.14,-4.52 1.51,-6.75 0.37,-2.26 0.69,-4.7 0.9,-7.32l0.02 -0.3c-2.55,-0.39 -4.99,-0.9 -7.29,-1.5 -4.92,-1.28 -9.2,-3.03 -12.79,-5.2 -3.46,-2.09 -7.2,-5.1 -11.19,-9 -3.76,-3.66 -7.79,-8.19 -12.07,-13.5 -6.94,-8.64 -13.67,-16.8 -20.15,-24.43 -6.55,-7.7 -12.9,-14.96 -19.02,-21.71 -6.1,-6.73 -12.37,-13.26 -18.76,-19.56 -6.27,-6.17 -12.79,-12.23 -19.54,-18.16l-6.8 -5.97 41.52 -35.89c6.53,-5.87 12.79,-10.88 18.74,-15.02 6.1,-4.24 11.83,-7.5 17.14,-9.74 5.39,-2.27 11.16,-4.11 17.26,-5.46 4.42,-0.98 9.08,-1.76 13.96,-2.32l0.45 -1.64c0.53,-2.09 0.97,-4.34 1.3,-6.69l0.68 -6.33c-35.21,1.2 -71.12,0.86 -106.32,-0.04l0.68 6.09c0.29,2.07 0.77,4.23 1.4,6.45l0.65 2.15c3.57,0.55 6.56,1.51 8.95,2.85 5.18,2.93 7.78,7.18 7.78,12.78 0,2.57 -0.76,5.35 -2.23,8.29 -1.21,2.34 -2.91,4.93 -5.1,7.71 -2.07,2.63 -4.96,5.78 -8.61,9.39 -3.55,3.52 -7.88,7.54 -12.94,12.01l-37.46 32.12zm330.63 138.32c-22.09,0 -41.76,-2.82 -58.99,-8.46 -17.5,-5.72 -32.48,-14.35 -44.85,-25.87 -12.37,-11.49 -21.65,-25.03 -27.83,-40.54 -6.11,-15.35 -9.18,-32.58 -9.18,-51.63 0,-13.67 1.57,-26.41 4.67,-38.17 3.14,-11.89 7.89,-22.79 14.21,-32.62 6.28,-9.78 13.73,-18.47 22.3,-26 8.59,-7.54 18.3,-13.95 29.11,-19.18 21.49,-10.41 45.73,-15.63 72.69,-15.63 15.17,0 29.19,1.33 42.02,4 12.98,2.69 24.78,6.78 35.38,12.23 10.57,5.44 19.91,11.95 27.94,19.46 8.05,7.54 14.83,16.13 20.3,25.73 5.45,9.56 9.53,19.83 12.23,30.79 2.68,10.93 4.04,22.55 4.04,34.8 0,13.1 -1.48,25.43 -4.41,36.97 -2.95,11.62 -7.39,22.35 -13.26,32.1 -5.97,9.85 -13.17,18.61 -21.6,26.24 -8.48,7.65 -18.19,14.21 -29.08,19.61 -10.89,5.37 -22.71,9.43 -35.37,12.13 -12.67,2.68 -26.13,4.04 -40.32,4.04zm-53.51 -23.7c15.4,5.04 33.25,7.56 53.51,7.56 13.2,0 25.44,-1.2 36.68,-3.58 11.23,-2.38 21.65,-5.96 31.21,-10.71 9.55,-4.77 17.97,-10.45 25.24,-17.01 7.29,-6.6 13.49,-14.12 18.58,-22.57 5.11,-8.53 8.98,-17.84 11.52,-27.88 2.57,-10.13 3.87,-21.22 3.87,-33.2 0,-11.11 -1.2,-21.51 -3.56,-31.15 -2.37,-9.61 -5.91,-18.55 -10.59,-26.77 -4.66,-8.17 -10.45,-15.5 -17.32,-21.93 -6.89,-6.45 -14.94,-12.05 -24.1,-16.76 -9.15,-4.71 -19.48,-8.27 -30.96,-10.65 -11.6,-2.41 -24.43,-3.62 -38.44,-3.62 -24.27,0 -45.95,4.62 -65.01,13.86 -9.47,4.58 -17.93,10.15 -25.35,16.67 -7.42,6.51 -13.87,14.04 -19.32,22.53 -5.42,8.44 -9.5,17.83 -12.23,28.14 -2.74,10.4 -4.13,21.85 -4.13,34.27 0,17.18 2.69,32.51 8.04,45.96 5.29,13.27 13.23,24.85 23.81,34.69 10.54,9.81 23.42,17.21 38.55,22.15zm60.45 -24.46c13.34,0 23.4,-6.1 30.16,-18.3 3.8,-6.86 6.68,-14.68 8.6,-23.37 1.95,-8.84 2.94,-18.7 2.94,-29.56 0,-15.7 -1.46,-29.41 -4.36,-41.12 -2.82,-11.4 -7.01,-20.93 -12.52,-28.54 -5.44,-7.51 -11.28,-13.13 -17.47,-16.79 -5.76,-3.4 -11.96,-5.12 -18.56,-5.12 -13.34,0 -23.32,5.94 -29.9,17.79 -3.71,6.7 -6.53,14.3 -8.4,22.74 -1.91,8.61 -2.87,18.17 -2.87,28.67 0,14.6 1.27,27.73 3.8,39.35 2.5,11.47 6.23,21.58 11.18,30.29 4.66,8.22 10.15,14.32 16.43,18.27 6.03,3.79 13.03,5.69 20.97,5.69zm45.1 -10.81c-9.96,17.95 -25,26.95 -45.1,26.95 -11.27,0 -21.37,-2.81 -30.29,-8.42 -8.64,-5.45 -15.98,-13.48 -21.99,-24.06 -5.72,-10.07 -10.01,-21.64 -12.84,-34.63 -2.8,-12.85 -4.2,-27.07 -4.2,-42.63 0,-11.52 1.09,-22.19 3.27,-31.97 2.21,-9.91 5.55,-18.91 10,-26.92 9.78,-17.62 24.73,-26.44 44.84,-26.44 9.74,0 18.91,2.54 27.45,7.58 8.15,4.81 15.65,11.94 22.46,21.34 6.75,9.32 11.8,20.68 15.1,34 3.22,13.01 4.84,27.94 4.84,44.78 0,11.84 -1.12,22.8 -3.34,32.84 -2.25,10.17 -5.65,19.38 -10.2,27.58zm215.01 53.89l-8.47 -19.31 -10.61 -22.82c-15.83,-33.31 -31.61,-66.61 -47.74,-99.79 -7.2,-14.74 -13.1,-26.14 -17.65,-34.13l-0.1 -0.25c-3.04,-5.79 -5.84,-10.59 -8.34,-14.36 -2.18,-3.29 -4.06,-5.61 -5.56,-6.91 -1.39,-1.21 -3.13,-2.28 -5.12,-3.16 -2.22,-0.97 -4.79,-1.75 -7.65,-2.29l-4.88 -0.94 -1.51 -4.48c-1.75,-5.2 -3.08,-10.61 -3.93,-16.16 -0.86,-5.59 -1.3,-11.37 -1.3,-17.31l0 -8.36c19.5,0.75 38.9,1.35 58.41,1.74l41.84 0c21.91,-0.39 43.71,-0.95 65.61,-1.71l0 8.33c0,2.58 -0.16,5.46 -0.47,8.63 -0.3,3.07 -0.74,6.1 -1.27,9.02 -0.54,2.97 -1.18,5.79 -1.86,8.41 -0.69,2.63 -1.45,5.04 -2.27,7.19l-1.82 4.76 -5.33 0.5c-6.54,0.6 -11.67,1.53 -15.32,2.76 -2.22,0.74 -3.45,1.32 -3.65,1.68 -0.26,0.49 -0.13,1.87 0.39,4.12 0.88,3.66 2.76,8.34 5.65,14 2.77,5.62 5.93,12.29 9.44,20.03l10.76 24.39c3.95,9.15 7.71,18.19 11.25,27.08l2.96 7.51c9.28,-22.03 18.9,-43.91 28.61,-65.78 6.18,-14.75 8.21,-24.22 6.1,-28.36 -0.79,-1.54 -2.28,-2.86 -4.44,-3.94 -2.85,-1.42 -6.84,-2.42 -11.9,-2.99l-4.9 -0.56 -1.91 -4.35c-1.01,-2.3 -1.93,-4.86 -2.73,-7.58 -0.78,-2.69 -1.46,-5.54 -2.04,-8.55 -0.57,-3.03 -1.01,-6.07 -1.3,-9.04 -0.3,-3.26 -0.47,-6.25 -0.47,-8.93l0 -8.44c15.41,0.72 30.74,1.39 46.17,1.82l28.23 0c15.75,-0.44 31.42,-1.09 47.16,-1.8l0 8.42c0,2.92 -0.13,5.98 -0.37,9.16 -0.24,3.16 -0.6,6.2 -1.06,9.07 -0.48,3.06 -1.2,6.02 -2.1,8.82 -0.92,2.86 -2.06,5.46 -3.4,7.8l-1.8 3.12 -3.66 0.85c-3.61,0.82 -6.86,2.05 -9.69,3.63 -2.72,1.51 -5.14,3.46 -7.2,5.74 -2.25,2.5 -4.71,6.15 -7.35,10.91 -2.77,5.02 -5.74,11.23 -8.84,18.62 -26.45,48.58 -51.04,109.93 -75.04,160.99l-2.69 1.29c-3,1.43 -6.41,2.67 -10.17,3.68 -3.71,0.99 -7.76,1.83 -12.09,2.45 -4.23,0.62 -8.59,1.01 -13.02,1.14 -4.26,0.13 -8.45,0.02 -12.51,-0.35l-5.15 -0.48 -1.9 -4.53zm7.07 -25.68l6.61 14.98 5.36 0c3.39,-0.1 7.08,-0.45 11.02,-1.02 3.83,-0.56 7.2,-1.23 10.05,-1.99l4.58 -1.45 72.22 -155c3.28,-7.86 6.49,-14.59 9.56,-20.14 3.23,-5.82 6.4,-10.46 9.47,-13.87 3.26,-3.62 7.1,-6.69 11.48,-9.14 3.14,-1.75 6.56,-3.2 10.26,-4.32l0.69 -1.92c0.59,-1.84 1.11,-4.02 1.5,-6.53l0.91 -7.39c-9.88,0.45 -19.75,0.73 -29.64,0.99l-14.41 0.16 -14.34 -0.16 -28.54 -0.96 0.99 6.61c0.5,2.55 1.08,4.93 1.7,7.09l0.51 1.62c4.78,0.89 8.94,2.22 12.48,3.98 5.48,2.75 9.46,6.48 11.86,11.18 4.27,8.38 2.39,22.17 -5.65,41.32 -15.54,27.48 -32.4,74.81 -45.18,105.25l-7.46 -20.2c-3.32,-9.01 -6.81,-18.06 -10.4,-27.07 -3.64,-9.14 -7.33,-18.05 -11.04,-26.66 -3.65,-8.53 -7.22,-16.59 -10.65,-24.13 -3.16,-6.95 -6.23,-13.44 -9.18,-19.4 -3.5,-6.87 -5.82,-12.72 -6.93,-17.52 -1.38,-6.17 -0.98,-11.24 1.23,-15.18 2.28,-4.04 6.59,-7.14 12.91,-9.27 3.67,-1.24 8.24,-2.22 13.7,-2.94l0.26 -0.97c0.55,-2.1 1.1,-4.54 1.6,-7.29l1 -6.54c-16,0.53 -32,0.81 -48.01,1.08l-21.53 0.16 -20.71 -0.16c-13.66,-0.26 -27.29,-0.56 -40.94,-1.06l0.77 6.61c0.49,3.23 1.16,6.36 1.99,9.36 2.26,0.63 4.37,1.38 6.32,2.23 3.59,1.58 6.76,3.55 9.42,5.86 2.58,2.24 5.42,5.68 8.46,10.25 2.69,4.05 5.71,9.24 9.02,15.51 4.71,8.24 10.77,19.93 18.13,35 16.09,33.27 31.94,66.62 47.8,99.98l10.75 23.06zm282.67 19.64c0,-6.99 0.3,-13.31 0.87,-18.91 0.58,-5.75 1.5,-10.56 2.7,-14.39l1.68 -5.34 5.82 -0.4c4.3,-0.29 8.14,-0.83 11.46,-1.59 3.08,-0.69 5.63,-1.55 7.59,-2.55 1.49,-0.78 2.77,-1.86 3.8,-3.26 1.23,-1.66 2.23,-3.82 2.94,-6.41 0.87,-3.18 1.54,-7.13 1.98,-11.79 0.44,-4.68 0.66,-10.42 0.66,-17.2l0 -183.51c0,-12.66 -0.81,-22.12 -2.4,-28.36 -1.18,-4.62 -3.29,-7.74 -6.28,-9.32 -1.98,-1.03 -4.5,-1.95 -7.49,-2.7 -3.27,-0.83 -7.13,-1.48 -11.52,-1.94l-5.36 -0.58 -1.71 -4.9c-1.59,-4.58 -2.8,-9.71 -3.57,-15.33 -0.77,-5.64 -1.17,-11.72 -1.17,-18.2l0 -8.34 24.99 0.76c52.5,0.82 104.64,1.06 157.15,0.95l41.31 -0.38c20.18,-0.34 40.34,-0.68 60.51,-1.26l1.09 20.79 1.14 14.55 1.56 15.16 2.11 15.32c1.57,10.16 3.37,18.75 5.37,25.73l1.71 5.98 -5.64 3.1c-2.88,1.57 -5.99,2.95 -9.27,4.12 -3.2,1.14 -6.6,2.11 -10.19,2.86 -3.57,0.75 -7.39,1.32 -11.44,1.68 -4.26,0.38 -8.53,0.58 -12.8,0.58l-7.31 0 -1.06 -6.91c-0.83,-5.39 -2.02,-10.55 -3.54,-15.4 -1.51,-4.83 -3.39,-9.45 -5.58,-13.78 -1.96,-3.88 -4.62,-7.42 -7.92,-10.56 -3.42,-3.26 -7.49,-6.09 -12.19,-8.47 -4.73,-2.39 -10.62,-4.23 -17.6,-5.47 -7.22,-1.29 -15.7,-1.94 -25.4,-1.94l-30.5 0 0 125.19 17.69 0c9.17,0 16.81,-0.64 22.86,-1.91 5.35,-1.11 9.3,-2.66 11.78,-4.61 2.33,-1.81 4.14,-4.53 5.4,-8.11 1.46,-4.16 2.2,-9.48 2.2,-15.94l0 -5.44 5.33 -2.03c2.99,-1.14 6.21,-2.11 9.58,-2.88 3.32,-0.76 6.77,-1.36 10.28,-1.72l10.04 -0.79 10.07 -0.29 8.97 0 -0.54 8.54c-0.54,8.63 -0.95,17.59 -1.21,26.83 -0.24,8.59 -0.36,18.67 -0.36,30.14 0,12.68 0.12,23.58 0.36,32.55 0.26,9.66 0.67,18.64 1.21,26.92l0.56 8.57 -8.99 0 -10.84 -0.22 -9.44 -0.6c-3.13,-0.28 -6.18,-0.75 -9.13,-1.33 -2.9,-0.58 -5.92,-1.38 -9.01,-2.36l-5.42 -1.72 -0.36 -5.39c-0.47,-6.98 -1.63,-12.73 -3.44,-17.18 -1.56,-3.84 -3.58,-6.68 -6.03,-8.45 -2.75,-1.96 -6.77,-3.52 -12.05,-4.61 -5.9,-1.23 -13.18,-1.85 -21.82,-1.85l-17.69 0 0 46.84c0,10.39 0.9,18.99 2.67,25.75 1.6,6.08 3.83,10.57 6.69,13.41 3.01,2.98 7.29,5.41 12.85,7.26 6.11,2.03 13.72,3.39 22.77,4l5.19 0.36 2.01 4.59c1.09,2.48 1.96,5.19 2.59,8.09 0.62,2.75 1.04,5.78 1.24,9l0.4 8.59 0.17 17.11 -9.1 -0.67c-4.82,-0.35 -10.27,-0.64 -16.26,-0.83l-21.61 -0.44 -46.37 -0.22 -50.1 0.22 -23.08 0.44c-6.46,0.19 -12.32,0.48 -17.49,0.83l-9.07 0.62 0 -8.65zm17.67 -17.41l-0.58 8.88 8.95 -0.33 23.46 -0.43 50.24 -0.3 46.51 0.3 21.99 0.43 7.79 0.3 -0.38 -7.49c-0.15,-2.34 -0.46,-4.57 -0.91,-6.61l-0.18 -0.81c-8.11,-0.87 -15.26,-2.34 -21.41,-4.39 -8.14,-2.71 -14.65,-6.51 -19.49,-11.33 -4.95,-4.94 -8.59,-11.83 -10.89,-20.62 -2.13,-8.13 -3.21,-18.03 -3.21,-29.65l0 -62.97 34.63 0c9.86,0 18.35,0.74 25.43,2.23 7.69,1.61 13.92,4.13 18.66,7.58 4.99,3.65 8.86,8.82 11.55,15.44 1.89,4.65 3.23,10.08 4.01,16.27l1.95 0.42c2.46,0.49 4.9,0.87 7.24,1.08l9.77 0.58 -0.71 -18.87c-0.29,-10.96 -0.44,-21.94 -0.44,-32.93 0,-9.84 0.15,-20.01 0.44,-30.52l0.72 -18.65 -9.41 0.74c-2.87,0.3 -5.58,0.75 -8.1,1.34l-2.12 0.53c-0.39,5.69 -1.38,10.78 -2.95,15.25 -2.29,6.47 -5.84,11.62 -10.63,15.39 -4.61,3.64 -10.95,6.31 -18.91,7.98 -7.26,1.52 -16.11,2.28 -26.5,2.28l-34.63 0 0 -157.45 47.44 0c10.56,0 20.07,0.75 28.5,2.26 8.64,1.54 16.14,3.92 22.44,7.11 6.31,3.2 11.74,6.95 16.23,11.23 4.59,4.37 8.33,9.38 11.16,14.98 2.59,5.12 4.8,10.53 6.56,16.18 1.08,3.45 2.01,6.98 2.78,10.6l4.15 -0.28c3.43,-0.31 6.57,-0.77 9.38,-1.36 2.8,-0.59 5.46,-1.34 7.95,-2.23l1.1 -0.41c-1.55,-6.34 -2.93,-13.4 -4.13,-21.15 -0.79,-5.12 -1.53,-10.4 -2.17,-15.82l-1.62 -15.72 -1.47 -20.09 -44.15 0.81 -41.51 0.38 -55.23 0.16c-36.57,-0.23 -73.24,-0.45 -109.8,-1.29 0.16,2.79 0.41,5.4 0.74,7.82 0.37,2.73 0.85,5.27 1.43,7.62 2.98,0.46 5.75,1.01 8.29,1.65 4.38,1.1 8.17,2.49 11.33,4.15 7.31,3.85 12.17,10.41 14.54,19.66 1.95,7.63 2.94,18.37 2.94,32.13l0 183.51c0,6.76 -0.27,12.99 -0.8,18.64 -0.53,5.66 -1.36,10.49 -2.44,14.41 -1.25,4.5 -3.07,8.39 -5.46,11.61 -2.6,3.52 -5.85,6.27 -9.68,8.2 -3.37,1.69 -7.26,3.04 -11.63,4.03 -2.42,0.55 -5.06,1.01 -7.9,1.37l-0.86 6.17zm407.68 28.53c-22.08,0 -41.76,-2.83 -58.99,-8.46 -17.49,-5.72 -32.46,-14.34 -44.85,-25.87 -12.37,-11.49 -21.65,-25.03 -27.83,-40.54 -6.11,-15.35 -9.18,-32.58 -9.18,-51.63 0,-13.67 1.57,-26.41 4.67,-38.17 3.14,-11.88 7.9,-22.78 14.21,-32.62 6.28,-9.78 13.73,-18.47 22.3,-26 8.59,-7.54 18.31,-13.95 29.11,-19.18 21.48,-10.41 45.73,-15.63 72.69,-15.63 15.17,0 29.2,1.33 42.02,4 12.98,2.69 24.79,6.78 35.38,12.23 10.57,5.44 19.91,11.95 27.94,19.46 8.05,7.54 14.83,16.13 20.3,25.73 5.45,9.56 9.53,19.83 12.23,30.79 2.68,10.93 4.04,22.55 4.04,34.8 0,13.1 -1.48,25.43 -4.41,36.97 -2.95,11.62 -7.39,22.35 -13.26,32.1 -5.97,9.85 -13.17,18.61 -21.6,26.24 -8.48,7.65 -18.19,14.21 -29.08,19.61 -10.89,5.37 -22.71,9.43 -35.37,12.13 -12.67,2.68 -26.13,4.04 -40.32,4.04zm-53.51 -23.7c15.41,5.04 33.26,7.56 53.51,7.56 13.2,0 25.44,-1.2 36.68,-3.58 11.22,-2.38 21.65,-5.96 31.21,-10.71 9.55,-4.77 17.97,-10.45 25.24,-17.01 7.29,-6.6 13.49,-14.12 18.58,-22.57 5.11,-8.53 8.98,-17.84 11.52,-27.88 2.57,-10.13 3.87,-21.22 3.87,-33.2 0,-11.11 -1.2,-21.51 -3.56,-31.15 -2.37,-9.61 -5.91,-18.55 -10.59,-26.77 -4.66,-8.17 -10.45,-15.5 -17.32,-21.93 -6.89,-6.45 -14.94,-12.05 -24.1,-16.76 -9.15,-4.71 -19.48,-8.27 -30.96,-10.65 -11.6,-2.41 -24.43,-3.62 -38.44,-3.62 -24.28,0 -45.96,4.63 -65.01,13.86 -9.47,4.59 -17.94,10.15 -25.35,16.67 -7.42,6.51 -13.87,14.04 -19.32,22.53 -5.41,8.44 -9.5,17.83 -12.23,28.14 -2.74,10.4 -4.13,21.85 -4.13,34.27 0,17.18 2.69,32.51 8.04,45.96 5.29,13.27 13.23,24.85 23.81,34.69 10.56,9.82 23.42,17.21 38.55,22.15zm60.45 -24.46c13.33,0 23.4,-6.1 30.16,-18.3 3.8,-6.86 6.68,-14.68 8.6,-23.37 1.95,-8.84 2.94,-18.7 2.94,-29.56 0,-15.7 -1.46,-29.41 -4.36,-41.12 -2.82,-11.4 -7.01,-20.93 -12.52,-28.54 -5.44,-7.51 -11.28,-13.13 -17.47,-16.79 -5.76,-3.4 -11.95,-5.12 -18.56,-5.12 -13.34,0 -23.32,5.94 -29.9,17.79 -3.71,6.7 -6.53,14.3 -8.4,22.74 -1.91,8.61 -2.87,18.17 -2.87,28.67 0,14.6 1.27,27.73 3.8,39.35 2.5,11.47 6.23,21.58 11.18,30.29 4.66,8.22 10.15,14.32 16.43,18.27 6.03,3.79 13.03,5.69 20.97,5.69zm45.1 -10.81c-9.96,17.95 -25,26.95 -45.1,26.95 -11.27,0 -21.37,-2.81 -30.29,-8.42 -8.64,-5.44 -15.98,-13.48 -21.99,-24.06 -5.72,-10.07 -10.01,-21.64 -12.84,-34.63 -2.8,-12.85 -4.2,-27.07 -4.2,-42.63 0,-11.52 1.09,-22.19 3.27,-31.97 2.21,-9.91 5.55,-18.91 10,-26.92 9.78,-17.62 24.73,-26.44 44.84,-26.44 9.75,0 18.91,2.54 27.45,7.58 8.15,4.81 15.65,11.94 22.46,21.34 6.75,9.32 11.8,20.68 15.1,34 3.22,13.01 4.84,27.94 4.84,44.78 0,11.84 -1.12,22.8 -3.34,32.84 -2.25,10.17 -5.65,19.38 -10.2,27.58zm224.99 57.44c-13.75,0 -26.09,-1.88 -36.97,-5.65 -11.12,-3.83 -20.67,-9.64 -28.6,-17.4 -8.01,-7.81 -13.99,-18.51 -17.89,-31.98 -3.73,-12.97 -5.61,-28.49 -5.61,-46.56l0 -59.99c0,-13.16 -1.41,-22.09 -4.21,-26.75 -0.77,-1.3 -2.63,-2.49 -5.52,-3.53 -4.04,-1.46 -9.56,-2.41 -16.52,-2.86l-7.91 -0.53 0 -7.5 0.3 -8.07 0.86 -8c0.42,-2.97 1.13,-5.84 2.07,-8.6 0.93,-2.71 2.17,-5.42 3.67,-8.09l2.33 -4.17 4.98 -0.08c8.99,-0.15 17.85,-0.71 26.49,-1.62 8.34,-0.89 16.49,-2.17 24.39,-3.82 7.97,-1.66 14.82,-3.38 20.53,-5.11 5.69,-1.75 10.37,-3.52 13.96,-5.31l3.38 -1.69 3.56 1.31c3.15,1.15 6.04,2.77 8.62,4.82 2.54,2.02 4.78,4.46 6.66,7.26 1.98,2.97 3.45,6.45 4.36,10.43 0.84,3.65 1.27,7.82 1.27,12.43l0 107.27c0,21.76 2.28,36.9 6.81,45.39 3.58,6.71 9.53,10.08 17.81,10.08 11.41,0 21.44,-5.52 30.05,-16.55 4.48,-5.74 7.89,-13.22 10.19,-22.35 2.39,-9.53 3.6,-21 3.6,-34.36l0 -32.54c0,-6.8 -0.49,-12.48 -1.47,-16.98 -0.86,-4.03 -2.08,-7.08 -3.61,-9.12 -1.15,-1.53 -3.54,-2.91 -7.14,-4.09 -4.52,-1.51 -10.64,-2.49 -18.27,-2.96l-7.94 -0.49 0 -7.54 0.24 -7.94 0.63 -7.85c0.32,-3.01 0.95,-5.92 1.87,-8.75 0.89,-2.78 2.13,-5.54 3.63,-8.22l2.33 -4.17 4.98 -0.07c19.77,-0.33 38.06,-1.82 54.78,-4.48 8.18,-1.3 15.37,-2.73 21.5,-4.3 5.77,-1.46 10.51,-3.05 14.15,-4.7l3.26 -1.49 3.39 1.24c3.19,1.16 6.1,2.79 8.68,4.85 2.51,2.03 4.74,4.45 6.62,7.24 2,2.94 3.46,6.44 4.37,10.45 0.84,3.77 1.27,7.93 1.27,12.43l0 125.06c0,14.39 1.35,23.66 4.05,27.78 0.72,1.1 2.33,2.08 4.77,2.88 3.53,1.16 8.34,1.84 14.4,1.97l7.77 0.18 0.46 7.37c0.18,2.97 0.25,6.02 0.2,9.12 -0.04,3.06 -0.22,6.04 -0.5,8.89 -0.32,3.22 -0.93,6.33 -1.8,9.3 -0.9,3.06 -2.1,6 -3.56,8.79l-2.19 4.17 -4.92 0.27c-6.19,0.32 -12.58,0.9 -19.12,1.72 -6.34,0.79 -13.12,1.89 -20.26,3.24 -6.87,1.3 -13.39,2.88 -19.53,4.72 -6.17,1.85 -12.07,4 -17.61,6.39l-3.13 1.35 -3.28 -1.16c-3.67,-1.29 -6.89,-2.97 -9.6,-4.94 -2.85,-2.08 -5.24,-4.57 -7.15,-7.48 -1.9,-2.84 -3.29,-6.45 -4.16,-10.74 -0.37,-1.84 -0.65,-3.81 -0.85,-5.9l-2.17 2.08c-4.45,3.87 -9.49,7.42 -15.03,10.59 -5.37,3.11 -11.31,5.85 -17.78,8.23 -6.49,2.39 -13.55,4.21 -21.09,5.39 -7.54,1.19 -15.51,1.79 -23.85,1.79zm-31.21 -20.77c8.93,3.09 19.35,4.64 31.21,4.64 7.66,0 14.72,-0.52 21.13,-1.53 6.4,-1 12.33,-2.52 17.73,-4.51 5.44,-2.01 10.51,-4.35 15.15,-7.02 4.51,-2.56 8.63,-5.47 12.36,-8.71 3.35,-3.03 6.42,-6.58 9.19,-10.57 2.77,-3.99 5.23,-8.49 7.34,-13.44l13.6 -17.76 2.54 22.23c-1.66,8.54 -2.5,15.87 -2.5,21.93 0,4.12 0.28,7.57 0.83,10.3 0.47,2.32 1.11,4.1 1.88,5.28 0.73,1.17 1.79,2.24 3.09,3.19l2.29 1.41c5.14,-2.09 10.5,-3.97 16.05,-5.64 6.82,-2.04 13.92,-3.77 21.25,-5.16 7.07,-1.34 14.22,-2.48 21.38,-3.37 5.12,-0.64 10.16,-1.15 15.08,-1.51l0.63 -1.87c0.61,-2.09 1.05,-4.24 1.26,-6.43 0.25,-2.54 0.41,-5.11 0.44,-7.61l0.01 -0.9c-4.36,-0.47 -8.18,-1.25 -11.46,-2.34 -6.26,-2.06 -10.83,-5.27 -13.65,-9.57 -4.41,-6.73 -6.63,-18.83 -6.63,-36.27l0 -125.06c0,-3.6 -0.28,-6.62 -0.83,-9 -0.53,-2.19 -1.22,-3.93 -2.08,-5.21 -0.94,-1.42 -2.03,-2.62 -3.22,-3.57l-1.12 -0.78c-3.77,1.46 -8.18,2.83 -13.19,4.11 -6.5,1.64 -14.21,3.19 -23.08,4.6 -15.91,2.52 -33.24,4.04 -51.93,4.55l-0.43 1.25c-0.59,1.81 -1,3.72 -1.21,5.63l-0.56 6.89c5.57,0.68 10.44,1.71 14.57,3.08 6.99,2.25 12.16,5.6 15.43,9.98 2.91,3.87 5.04,8.93 6.38,15.16 1.26,5.73 1.88,12.49 1.88,20.25l0 32.54c0,14.4 -1.39,27.12 -4.14,38.07 -2.85,11.33 -7.21,20.75 -13.03,28.22 -12.02,15.4 -26.57,23.1 -43.61,23.1 -15.19,0 -26.17,-6.31 -32.89,-18.89 -5.77,-10.81 -8.67,-28.39 -8.67,-52.71l0 -107.27c0,-3.5 -0.3,-6.52 -0.87,-9.02 -0.5,-2.19 -1.2,-3.95 -2.04,-5.21 -0.94,-1.4 -2.03,-2.6 -3.22,-3.55l-0.98 -0.7c-3.7,1.59 -7.91,3.1 -12.6,4.54 -6.44,1.96 -13.81,3.83 -22.05,5.54 -8.28,1.75 -17.02,3.11 -26.17,4.08 -7.24,0.77 -14.83,1.29 -22.74,1.54l-0.51 1.39c-0.64,1.89 -1.13,3.84 -1.41,5.8l-0.73 6.67c5.12,0.7 9.54,1.72 13.25,3.07 6.69,2.43 11.44,5.98 14.21,10.58 4.31,7.18 6.47,18.77 6.47,34.75l0 59.99c0,16.81 1.65,30.92 4.92,42.27 3.14,10.81 7.73,19.18 13.74,25.06 6.12,5.97 13.56,10.49 22.26,13.49zm545.69 -64.05c0,8.11 0.47,14.82 1.4,20.09 0.83,4.74 1.99,8.27 3.44,10.5 2.43,3.7 6.9,5.57 13.38,5.57l5.8 0 2.1 5.2c1.01,2.51 1.87,5.14 2.53,7.83 0.64,2.59 1.14,5.34 1.44,8.19l0.63 8.42 0.24 9.43 0 8.35c-19,-0.69 -37.92,-1.32 -56.94,-1.72l-17.72 -0.09 -26.29 0.22 -39.78 0.82 -18.19 1.02 0.17 -17.23 0.4 -8.4c0.2,-3.01 0.63,-5.92 1.23,-8.68 0.62,-2.87 1.47,-5.6 2.5,-8.16l2.09 -5.2 5.81 0c3.76,0 6.99,-0.6 9.66,-1.77 2.55,-1.15 4.76,-2.87 6.55,-5.15 1.9,-2.42 3.41,-6.15 4.48,-11.15 1.19,-5.55 1.8,-12.62 1.8,-21.14l0 -55.41c0,-10.14 -0.82,-18.61 -2.43,-25.34 -1.48,-6.17 -3.59,-10.89 -6.3,-14.06 -2.72,-3.12 -5.97,-5.48 -9.73,-7.02 -4,-1.62 -8.73,-2.44 -14.17,-2.44 -5.02,0 -9.85,1.34 -14.42,4.01 -5,2.91 -9.87,7.43 -14.53,13.51 -4.67,6.08 -8.22,13.71 -10.62,22.87 -2.48,9.47 -3.73,20.61 -3.73,33.37l0 33.56c0,15.52 1.83,25.61 5.48,30.25 1.47,1.87 3.44,3.31 5.87,4.26 2.78,1.09 6.33,1.65 10.6,1.65l5.95 0 2.02 5.36c0.94,2.52 1.78,5.26 2.47,8.13 0.64,2.72 1.14,5.49 1.43,8.24l0.63 8.31 0.24 9.03 0 8.41c-20.87,-0.9 -41.66,-1.39 -62.55,-1.78l-18.51 -0.09 -27.36 0.22 -40.8 0.82 -18.24 1.02 0 -8.6 0.31 -9.65c0.18,-3.1 0.48,-6.09 0.86,-8.92 0.38,-2.83 0.88,-5.52 1.47,-8.03 0.62,-2.64 1.36,-5.04 2.16,-7.15l2.02 -5.32 5.92 0c11.04,0 18.13,-2.03 21.21,-6.06 1.64,-2.17 2.96,-5.59 3.92,-10.23 1.08,-5.25 1.63,-11.88 1.63,-19.87l0 -76.76c0,-8.84 -0.71,-15.8 -2.1,-20.83 -0.5,-1.81 -1.29,-3.37 -2.35,-4.66 -1.04,-1.25 -2.47,-2.37 -4.23,-3.29 -1.99,-1.05 -4.79,-1.95 -8.34,-2.68 -3.93,-0.81 -8.61,-1.38 -13.98,-1.68l-7.97 -0.46 0 -7.57c0,-2.72 0.13,-5.49 0.38,-8.26 0.23,-2.68 0.62,-5.38 1.1,-8.09 0.51,-2.8 1.28,-5.62 2.3,-8.43 0.92,-2.65 2.18,-5.34 3.66,-7.98l2.33 -4.17 4.98 -0.08c9.03,-0.15 18.07,-0.71 27.06,-1.62 8.95,-0.91 17.68,-2.2 26.13,-3.82 8.32,-1.6 15.69,-3.33 22.08,-5.17 5.97,-1.7 10.78,-3.46 14.37,-5.25l3.38 -1.69 3.56 1.31c3.15,1.15 6.04,2.77 8.62,4.82 2.54,2.02 4.78,4.46 6.66,7.26 1.98,2.97 3.45,6.45 4.36,10.43 0.59,2.58 0.98,5.41 1.16,8.48 2.72,-2.57 5.7,-5.04 8.92,-7.39 5.33,-3.89 11.44,-7.58 18.29,-11.02 7.04,-3.53 14.64,-6.2 22.73,-7.96 8.07,-1.75 16.59,-2.65 25.5,-2.65 7.93,0 15.74,0.75 23.37,2.23 7.56,1.46 14.87,3.67 21.9,6.6 7.28,3.05 13.91,7.05 19.82,12.02 5.86,4.89 11.03,10.75 15.48,17.53 4.48,6.83 7.85,14.73 10.06,23.65 2.15,8.67 3.24,18.33 3.24,28.89l0 78.29zm-15.26 22.74c-1.12,-6.32 -1.68,-13.92 -1.68,-22.74l0 -78.29c0,-9.41 -0.92,-17.83 -2.76,-25.23 -1.78,-7.17 -4.44,-13.46 -7.96,-18.81 -3.54,-5.4 -7.66,-10.07 -12.29,-13.95 -4.56,-3.87 -9.71,-6.99 -15.39,-9.36 -5.96,-2.48 -12.16,-4.36 -18.54,-5.59 -6.32,-1.23 -13,-1.84 -19.99,-1.84 -7.8,0 -15.07,0.74 -21.74,2.19 -6.66,1.44 -12.89,3.62 -18.63,6.51 -5.96,2.99 -11.26,6.19 -15.89,9.57 -4.51,3.3 -8.35,6.74 -11.46,10.31l-0.23 0.24c-1.49,1.57 -2.88,3.22 -4.11,4.91 -1.2,1.65 -2.27,3.32 -3.13,4.99l-28.79 43.3 6.77 -37.02c3.29,-10.34 4.94,-19.74 4.94,-28.17 0,-3.5 -0.3,-6.52 -0.87,-9.02 -0.5,-2.19 -1.2,-3.95 -2.04,-5.21 -0.94,-1.4 -2.03,-2.6 -3.22,-3.55l-1 -0.71c-3.8,1.6 -8.23,3.12 -13.25,4.58 -6.49,1.89 -14.39,3.74 -23.68,5.52 -9.14,1.76 -18.37,3.13 -27.65,4.07 -7.55,0.77 -15.31,1.29 -23.26,1.54l-0.58 1.52c-0.69,1.82 -1.23,3.82 -1.61,5.92l-0.86 6.32c2.97,0.35 5.71,0.78 8.21,1.29 5.09,1.04 9.4,2.49 12.9,4.31 3.78,1.96 6.92,4.48 9.43,7.53 2.49,3.03 4.3,6.53 5.39,10.44 1.79,6.47 2.7,14.8 2.7,24.93l0 76.76c0,8.94 -0.66,16.61 -1.97,22.96 -1.43,6.94 -3.74,12.51 -6.9,16.62 -5.65,7.33 -15.15,11.5 -28.45,12.48l-0.02 0.1c-0.46,1.94 -0.86,4.17 -1.19,6.58 -0.32,2.4 -0.59,5 -0.74,7.72l-0.02 0.31c13.82,-0.53 27.79,-0.6 41.63,-0.83l27.62 -0.3 18.71 0.16c15.09,0.28 30.16,0.59 45.25,1.06l-0.57 -7.33c-0.22,-2.16 -0.6,-4.29 -1.09,-6.36l-0.31 -1.22c-3.88,-0.45 -7.45,-1.31 -10.69,-2.58 -5.3,-2.09 -9.62,-5.26 -12.95,-9.48 -5.94,-7.54 -8.92,-20.87 -8.92,-39.89l0 -33.56c0,-13.99 1.43,-26.43 4.27,-37.27 2.93,-11.16 7.4,-20.67 13.4,-28.48 5.98,-7.79 12.45,-13.71 19.35,-17.74 7.32,-4.26 15.08,-6.41 23.22,-6.41 7.73,0 14.67,1.27 20.82,3.78 6.36,2.62 11.76,6.51 16.16,11.63 4.38,5.15 7.61,12.04 9.68,20.67 1.93,8.06 2.91,17.72 2.91,28.92l0 55.41c0,9.43 -0.74,17.56 -2.2,24.36 -1.58,7.34 -4.1,13.23 -7.52,17.57 -3.53,4.49 -7.86,7.86 -12.92,10.1 -3.24,1.42 -6.71,2.39 -10.44,2.89l-0.21 0.92c-0.44,2.04 -0.76,4.2 -0.91,6.42l-0.39 7.56c22.28,-0.86 44.9,-0.88 67.22,-1.13l17.92 0.16c13.23,0.28 26.44,0.58 39.66,1.06l-0.59 -7.84c-0.21,-2.05 -0.6,-4.12 -1.1,-6.17l-0.25 -0.95c-9.54,-1.27 -16.7,-5.54 -21.45,-12.83 -2.61,-4.04 -4.55,-9.5 -5.75,-16.33zm334.45 -33.92c0,14.39 1.35,23.66 4.05,27.78 0.72,1.1 2.33,2.08 4.77,2.88 3.53,1.16 8.35,1.84 14.4,1.97l7.33 0.16 0.87 6.93c0.4,3.25 0.61,6.42 0.61,9.45 0,2.98 -0.22,6.07 -0.64,9.28 -0.42,3.2 -1.09,6.27 -2,9.16 -0.94,3.01 -2.17,5.92 -3.6,8.67l-2.19 4.17 -4.92 0.27c-6.19,0.32 -12.55,0.9 -19.05,1.72 -6.58,0.83 -13.28,1.9 -20.06,3.21 -6.52,1.25 -12.98,2.86 -19.32,4.76 -6.06,1.8 -11.93,3.95 -17.56,6.38l-3.15 1.35 -3.26 -1.16c-7.4,-2.64 -13.04,-6.71 -16.88,-12.19 -2.03,-2.86 -3.53,-6.51 -4.46,-10.87 -0.56,-2.61 -0.94,-5.47 -1.13,-8.57l-1.91 1.55c-3.19,3.32 -7.16,6.63 -11.89,9.88 -4.98,3.43 -10.69,6.8 -17.07,10.11 -6.86,3.54 -14.3,6.23 -22.26,8 -7.88,1.75 -16.23,2.64 -25.01,2.64 -16.43,0 -31.42,-2.3 -44.94,-6.9 -13.66,-4.65 -25.79,-11.65 -36.34,-20.95 -10.73,-9.48 -18.76,-21.72 -24.07,-36.7 -5.16,-14.56 -7.74,-31.67 -7.74,-51.29 0,-27.13 6.44,-51.51 19.28,-73.1 6.43,-10.81 14.19,-20.48 23.24,-28.95 9.06,-8.49 19.41,-15.81 31.01,-21.92 23.14,-12.19 50.04,-18.29 80.66,-18.29 3.53,0 7.16,0.12 10.84,0.35 3.56,0.22 6.95,0.58 10.1,1.01 3.03,0.42 6.25,0.97 9.56,1.63l0 -40.17c0,-5.29 -0.51,-9.76 -1.49,-13.38 -0.91,-3.26 -2.19,-5.85 -3.8,-7.73 -1.3,-1.52 -3.92,-2.88 -7.81,-4.05 -4.77,-1.47 -11.12,-2.44 -18.97,-2.9l-7.97 -0.47 0 -7.55c0,-2.72 0.13,-5.49 0.38,-8.26 0.23,-2.68 0.62,-5.38 1.1,-8.1 0.49,-2.71 1.19,-5.45 2.06,-8.16 0.85,-2.67 1.91,-5.3 3.14,-7.84l2.27 -4.69 5.4 0c11.91,0 23.93,-0.73 36.03,-2.19 5.97,-0.71 11.82,-1.61 17.52,-2.66 5.72,-1.05 10.98,-2.22 15.75,-3.46 4.68,-1.22 8.96,-2.55 12.78,-3.89 3.33,-1.15 6.09,-2.33 8.22,-3.49l3.47 -1.9 3.71 1.36c3.19,1.16 6.1,2.79 8.68,4.85 2.51,2.03 4.74,4.45 6.62,7.24 1.96,2.88 3.4,6.32 4.33,10.25 0.87,3.68 1.31,7.75 1.31,12.13l0 252.64zm-10.31 36.27c-4.41,-6.73 -6.63,-18.83 -6.63,-36.27l0 -252.64c0,-3.39 -0.28,-6.28 -0.83,-8.6 -0.48,-2.06 -1.19,-3.78 -2.08,-5.11 -0.94,-1.43 -2.03,-2.63 -3.22,-3.57l-0.9 -0.64 -6.52 2.57c-3.85,1.38 -8.57,2.81 -14.19,4.28 -5.55,1.45 -11.24,2.72 -17.01,3.79 -5.75,1.06 -11.97,1.99 -18.58,2.79 -11.11,1.33 -21.93,2.12 -32.42,2.33l-0.4 1.18c-0.63,1.91 -1.14,3.98 -1.54,6.14l-0.86 6.33c5.63,0.66 10.55,1.63 14.75,2.9 7.05,2.08 12.34,5.2 15.82,9.25 3.17,3.7 5.52,8.3 7.03,13.77 1.39,5.11 2.1,10.94 2.1,17.48l0 60.76 -10.62 -2.65 -9.46 -2.13 -8.8 -1.5c-2.86,-0.39 -5.83,-0.7 -8.84,-0.89 -2.88,-0.18 -6.15,-0.28 -9.72,-0.28 -27.74,0 -51.93,5.43 -72.52,16.28 -10.27,5.41 -19.39,11.85 -27.31,19.26 -7.93,7.43 -14.74,15.93 -20.4,25.43 -11.34,19.06 -17.02,40.8 -17.02,65.16 0,17.99 2.27,33.4 6.8,46.19 4.38,12.37 10.91,22.39 19.57,30.03 8.82,7.78 19,13.64 30.49,17.54 11.67,3.96 24.77,5.94 39.29,5.94 7.59,0 14.66,-0.73 21.17,-2.18 6.42,-1.43 12.45,-3.61 18.04,-6.49 6.06,-3.14 11.15,-6.12 15.21,-8.94 4.06,-2.83 7.31,-5.53 9.72,-8.11l1.16 -1.04c1.22,-0.89 2.52,-2.05 3.84,-3.37 1.31,-1.31 2.71,-2.9 4.15,-4.74 2.93,-3.7 5.88,-8.38 8.84,-14.02l19.04 -8.22 -3.27 13.6c-1,4.15 -1.76,8.08 -2.26,11.7l-0.54 5.4 -0.16 5.51c0,4.11 0.3,7.52 0.87,10.21 0.47,2.23 1.15,3.97 1.97,5.14 1.34,1.94 3.27,3.56 5.77,4.84 5.07,-2.06 10.4,-3.94 15.93,-5.61 6.55,-2 13.61,-3.73 21.12,-5.17 7.27,-1.39 14.34,-2.55 21.18,-3.4 5.1,-0.64 10.13,-1.15 15.06,-1.51l0.68 -1.97c0.68,-2.16 1.17,-4.37 1.46,-6.59 0.29,-2.21 0.44,-4.64 0.44,-7.26l-0.01 -0.96c-4.47,-0.47 -8.39,-1.26 -11.74,-2.37 -6.26,-2.06 -10.83,-5.27 -13.65,-9.57zm-171.7 -65.24c0,11.47 1.12,21.59 3.33,30.32 2.14,8.45 5.38,15.78 9.65,21.87 4.08,5.87 8.59,10.21 13.47,13.02 4.56,2.66 9.66,3.98 15.25,3.98 3.72,0 7.39,-0.56 10.96,-1.68 3.75,-1.17 7.41,-2.94 10.94,-5.25 3.46,-2.27 6.7,-5.35 9.66,-9.2 3.11,-4.06 5.94,-8.98 8.41,-14.69 2.51,-5.79 4.41,-12.59 5.68,-20.36 1.28,-7.84 1.93,-16.92 1.93,-27.17l0 -63.47c-1.65,-1.6 -3.38,-3.08 -5.16,-4.41 -2.47,-1.86 -5.08,-3.45 -7.76,-4.71 -2.5,-1.22 -5.31,-2.16 -8.38,-2.78 -3.11,-0.62 -6.55,-0.95 -10.27,-0.95 -2.98,0 -5.97,0.28 -8.95,0.79 -3.19,0.56 -6.5,1.42 -9.88,2.55 -3.08,1.02 -6.16,2.54 -9.19,4.48 -3.09,2 -6.15,4.5 -9.09,7.45 -2.86,2.86 -5.51,6.4 -7.92,10.54 -2.55,4.34 -4.8,9.31 -6.75,14.9 -1.94,5.59 -3.43,12.09 -4.43,19.46 -1,7.38 -1.5,15.83 -1.5,25.31zm-13.07 34.09c-2.57,-10.13 -3.87,-21.52 -3.87,-34.09 0,-9.84 0.57,-18.97 1.7,-27.33 1.13,-8.36 2.87,-15.87 5.17,-22.48 2.29,-6.57 4.96,-12.46 7.95,-17.6 3.08,-5.34 6.59,-9.99 10.48,-13.89 3.8,-3.81 7.77,-7.04 11.84,-9.68 4.2,-2.72 8.58,-4.83 13.12,-6.34 4.29,-1.4 8.42,-2.47 12.4,-3.18 4.2,-0.73 8.22,-1.11 11.99,-1.11 4.79,0 9.41,0.45 13.77,1.33 4.38,0.89 8.53,2.29 12.41,4.13 3.73,1.74 7.3,3.91 10.67,6.44 3.29,2.46 6.47,5.37 9.51,8.63l2.15 2.32 0 69.6c0,10.75 -0.74,20.64 -2.21,29.63 -1.48,9.07 -3.74,17.1 -6.74,24.01 -3.01,6.97 -6.5,13.02 -10.39,18.08 -4.06,5.28 -8.65,9.6 -13.7,12.92 -4.99,3.26 -10.08,5.72 -15.22,7.34 -5.31,1.67 -10.75,2.51 -16.26,2.51 -8.61,0 -16.62,-2.12 -23.96,-6.35 -7.03,-4.02 -13.31,-9.98 -18.81,-17.83 -5.34,-7.6 -9.36,-16.64 -12,-27.06zm423.77 91.83c-7.45,-2.74 -13.07,-7.46 -16.81,-14.13 -2.15,-3.85 -3.63,-8.28 -4.44,-13.29 -2.44,2.45 -5.02,4.74 -7.75,6.85 -4.03,3.23 -8.45,6.1 -13.2,8.55 -4.81,2.47 -10.05,4.6 -15.67,6.35 -11.19,3.48 -23.99,5.24 -38.37,5.24 -25.75,0 -45.99,-5.51 -60.7,-16.48 -7.68,-5.73 -13.47,-12.74 -17.32,-20.98 -3.79,-8.11 -5.71,-17.31 -5.71,-27.55 0,-8.96 1.36,-17.26 4.07,-24.82 2.75,-7.67 6.92,-14.55 12.43,-20.59 5.25,-5.73 11.27,-10.92 18.04,-15.53 6.72,-4.56 14.17,-8.58 22.3,-12 15.78,-6.64 32.65,-11.73 50.56,-15.25 9.02,-1.77 17.49,-3.32 25.39,-4.64l16.62 -2.57 -0.45 -12.26c-0.32,-5.34 -0.84,-9.85 -1.5,-13.49 -0.57,-3.16 -1.51,-6.05 -2.78,-8.6 -1.22,-2.46 -2.8,-4.68 -4.68,-6.6l-0.47 -0.53c-1.44,-1.75 -3.06,-3.28 -4.81,-4.53 -1.66,-1.18 -3.46,-2.12 -5.33,-2.77 -2.28,-0.79 -4.5,-1.39 -6.62,-1.75 -2.03,-0.35 -4.21,-0.53 -6.48,-0.53 -4.04,0 -7.54,0.52 -10.47,1.55 -2.73,0.96 -5.18,2.47 -7.29,4.48 -4.9,4.66 -8.58,10.77 -11,18.25 -2.65,8.21 -4.32,16.61 -4.98,25.15l-0.59 7.5 -7.84 0 -12.77 -0.3c-4.13,-0.17 -8.16,-0.43 -12.04,-0.79 -4.22,-0.37 -8.08,-0.94 -11.54,-1.64 -3.54,-0.73 -7.01,-1.71 -10.36,-2.9l-5.97 -2.13 0.48 -5.99c0.36,-4.66 0.59,-9.26 0.67,-13.76 0.08,-4.74 0.04,-9.73 -0.13,-14.88 -0.34,-10 -1.55,-20.09 -3.61,-30.25l-1.27 -6.23 6.1 -2.61c7.76,-3.34 16.14,-6.36 25.09,-9 8.77,-2.59 18.21,-4.87 28.24,-6.79 10.02,-1.93 19.69,-3.38 28.96,-4.32 9.54,-0.97 18.7,-1.46 27.4,-1.46 21.3,0 38.62,2.48 51.92,7.42 6.47,2.42 12.34,5.1 17.54,8.01 5.34,2.99 9.95,6.24 13.76,9.68l0.3 0.28c4.26,4.26 8.03,9.24 11.25,14.91 3.14,5.57 5.84,11.86 8.05,18.8 2.21,6.96 3.86,15.22 4.93,24.74 1.06,9.48 1.6,20.16 1.6,31.98l0 44.23c0,15.04 1.33,24.54 3.98,28.44 0.72,1.07 2.37,2.06 4.91,2.92 3.65,1.23 8.51,2.01 14.54,2.29l7.15 0.35 0.85 6.74c0.4,3.25 0.6,6.42 0.6,9.45 0,2.97 -0.21,6.06 -0.63,9.28 -0.42,3.2 -1.1,6.28 -2.01,9.17 -0.95,3.02 -2.17,5.92 -3.6,8.66l-2.19 4.17 -4.92 0.27c-6.15,0.32 -12.46,0.9 -18.89,1.72 -6.44,0.82 -13,1.9 -19.61,3.2 -6.56,1.3 -12.88,2.89 -18.92,4.73 -6.05,1.85 -11.89,4 -17.5,6.42l-3.2 1.38 -3.31 -1.22zm-1.93 -21.69c1.25,2.24 2.98,4.02 5.15,5.34 5.03,-2.05 10.24,-3.89 15.63,-5.54 6.64,-2.03 13.54,-3.76 20.64,-5.16 7.08,-1.39 14.04,-2.54 20.81,-3.4 5.03,-0.64 10.03,-1.15 14.96,-1.51l0.68 -1.96c0.68,-2.16 1.18,-4.39 1.47,-6.6 0.29,-2.2 0.43,-4.63 0.43,-7.26l-0.01 -1.11c-4.54,-0.55 -8.5,-1.41 -11.84,-2.54 -6.15,-2.1 -10.66,-5.26 -13.48,-9.41 -4.46,-6.57 -6.7,-18.96 -6.7,-37.13l0 -44.23c0,-11.53 -0.49,-21.65 -1.46,-30.29 -0.96,-8.59 -2.39,-15.86 -4.27,-21.77 -1.88,-5.9 -4.14,-11.19 -6.76,-15.79 -2.54,-4.4 -5.37,-8.19 -8.49,-11.34 -2.9,-2.59 -6.42,-5.06 -10.51,-7.35 -4.3,-2.41 -9.37,-4.7 -15.16,-6.87 -11.25,-4.18 -26.52,-6.28 -45.76,-6.28 -8.39,0 -16.94,0.45 -25.62,1.33 -8.94,0.92 -18.1,2.28 -27.44,4.07 -9.33,1.78 -18.21,3.94 -26.58,6.41 -5.97,1.76 -11.67,3.71 -17.09,5.83 1.48,8.74 2.38,17.55 2.68,26.39 0.18,5.34 0.22,10.57 0.13,15.63l-0.27 8.3 2.17 0.47c3.1,0.64 6.3,1.12 9.51,1.4l11.21 0.74 4.44 0.14c1,-7.15 2.63,-14.21 4.88,-21.16 3.27,-10.12 8.34,-18.45 15.16,-24.94 3.76,-3.58 8.23,-6.3 13.39,-8.12 4.98,-1.76 10.44,-2.64 16.35,-2.64 3.06,0 6.25,0.29 9.52,0.86 3.2,0.55 6.35,1.38 9.4,2.44 3.45,1.2 6.67,2.88 9.63,4.98 2.77,1.99 5.34,4.39 7.7,7.21 3,3.09 5.49,6.62 7.42,10.5 1.92,3.87 3.32,8.15 4.16,12.76 0.75,4.13 1.33,9.23 1.7,15.23 0.38,6.09 0.58,12.82 0.58,20.17l0 6.99 -7.31 0.99c-7.52,1 -15.35,2.18 -23.4,3.5 -8.36,1.4 -16.69,2.92 -24.91,4.53 -16.61,3.26 -32.33,8.02 -47.12,14.24 -7.16,3.01 -13.62,6.48 -19.34,10.36 -5.67,3.86 -10.72,8.21 -15.09,12.98 -4.06,4.45 -7.13,9.54 -9.16,15.2 -2.08,5.81 -3.13,12.37 -3.13,19.66 0,8.06 1.4,15.08 4.17,21 2.72,5.82 6.84,10.79 12.3,14.86 11.61,8.67 28.4,13.01 50.32,13.01 12.65,0 23.71,-1.47 33.15,-4.42 4.68,-1.45 8.99,-3.2 12.89,-5.21 3.89,-2 7.39,-4.25 10.42,-6.71l0.14 -0.13c8.57,-6.65 15.44,-15.5 20.57,-26.5l14.18 -16.85 1.82 21.67c-1.3,6.23 -1.96,12.15 -1.96,17.75 0,6.49 1.04,11.59 3.1,15.28zm-67.62 -37.08c5.49,0 11.27,-1.85 17.32,-5.56 3.04,-1.85 5.85,-4.23 8.37,-7.04 2.58,-2.87 4.93,-6.34 7.04,-10.37 2.05,-3.92 3.62,-8.46 4.68,-13.6 1.08,-5.27 1.63,-11.25 1.63,-17.88l0 -4.06c-6.5,1.28 -12.6,2.72 -18.27,4.34 -8.3,2.37 -15.67,5.09 -22.04,8.17 -5.38,2.59 -9.39,5.97 -11.97,10.09 -2.6,4.15 -3.91,9.33 -3.91,15.52 0,7.79 1.64,13.1 4.89,15.87 1.85,1.55 3.77,2.71 5.76,3.45 1.94,0.7 4.12,1.07 6.5,1.07zm26.44 7.99c-8.87,5.42 -17.7,8.15 -26.44,8.15 -4.37,0 -8.58,-0.76 -12.58,-2.22 -3.96,-1.47 -7.62,-3.63 -10.95,-6.48 -7.03,-6.03 -10.56,-15.31 -10.56,-27.83 0,-9.07 2.13,-17 6.37,-23.77 4.25,-6.79 10.55,-12.2 18.85,-16.2 7.3,-3.53 15.59,-6.61 24.82,-9.24 9.05,-2.57 19.13,-4.75 30.17,-6.51l9.86 -1.57 0 23.23c0,7.59 -0.66,14.59 -1.97,20.97 -1.35,6.56 -3.41,12.48 -6.14,17.69 -2.68,5.13 -5.82,9.69 -9.36,13.65 -3.61,4.03 -7.65,7.42 -12.07,10.13zm256.99 51.36c-13.36,0 -25.17,-1.68 -35.37,-5.02 -10.56,-3.46 -19.4,-8.73 -26.49,-15.77 -13.86,-13.78 -20.81,-36.15 -20.81,-67.09l0 -108.58c-3.25,-0.9 -6.78,-1.67 -10.59,-2.31 -6.31,-1.05 -13.25,-1.75 -20.79,-2.07l-8.11 -0.35 0 -7.67c0,-3.12 0.13,-6.2 0.37,-9.24 0.24,-2.99 0.62,-5.81 1.1,-8.41 0.54,-2.74 1.27,-5.53 2.22,-8.38 0.89,-2.77 2.07,-5.7 3.44,-8.7l2.22 -4.85 30.14 0 0 -61.39 7.21 -1.04c5.61,-0.81 11.1,-1.95 16.44,-3.38 5.55,-1.51 10.99,-3.33 16.25,-5.46 5.36,-2.15 10.27,-4.45 14.68,-6.86 4.37,-2.42 8.24,-4.92 11.56,-7.48l3.98 -3.08 4.68 1.92c3.36,1.37 6.26,3.12 8.65,5.23 2.55,2.24 4.53,4.87 5.89,7.85 2.26,4.99 3.4,13.44 3.4,25.33l0 48.36 65.65 0 0 8.06c0,3.08 -0.13,6.23 -0.37,9.41 -0.23,3 -0.6,5.99 -1.1,8.92l-1.63 8.11 -2.04 7.76 -1.72 5.76 -6.31 0.1c-11.51,0.16 -22.23,0.87 -32.11,2.1 -7.25,0.91 -14.05,2.13 -20.37,3.63l0 98.07c0,10.06 0.54,18.29 1.59,24.67 0.98,5.87 2.34,10.14 4.06,12.8 1.5,2.31 3.35,4.05 5.49,5.14 2.19,1.13 4.92,1.69 8.15,1.69 5.38,0 10.45,-0.62 15.12,-1.84 4.7,-1.22 9.24,-3.1 13.57,-5.61l6.45 -3.74 4.63 5.66c6.07,7.45 9.34,17.35 9.76,29.61l0.13 3.84 -3.1 2.51c-4.1,3.33 -9.01,6.33 -14.71,8.99 -5.52,2.58 -11.79,4.87 -18.77,6.84 -6.99,1.99 -14.04,3.49 -21.07,4.47 -7.15,0.98 -14.28,1.49 -21.37,1.49zm-29.89 -20.26c8.37,2.74 18.36,4.12 29.89,4.12 6.4,0 12.73,-0.44 18.93,-1.29 6.29,-0.88 12.54,-2.2 18.69,-3.95 6.21,-1.74 11.61,-3.7 16.19,-5.84 2.96,-1.38 5.62,-2.85 7.95,-4.4 -0.42,-3.96 -1.28,-7.46 -2.56,-10.47 -3.32,1.42 -6.75,2.6 -10.28,3.52 -6.32,1.64 -12.87,2.48 -19.56,2.48 -6.02,0 -11.41,-1.22 -16.15,-3.65 -4.78,-2.45 -8.75,-6.09 -11.85,-10.87 -2.89,-4.46 -5.03,-10.73 -6.36,-18.73 -1.24,-7.53 -1.87,-16.6 -1.87,-27.18l0 -110.2 6.06 -1.72c8.75,-2.47 18.46,-4.4 29.07,-5.72 8.55,-1.07 17.77,-1.76 27.62,-2.07l1.71 -8.38c0.39,-2.33 0.7,-4.83 0.9,-7.5l0.02 -0.2 -65.38 0 0 -64.49c0,-9.76 -0.65,-16.07 -1.93,-18.91 -0.42,-0.89 -1.04,-1.7 -1.85,-2.42 -2.84,1.93 -5.85,3.77 -9.04,5.51 -5.01,2.7 -10.55,5.3 -16.54,7.71 -6.1,2.46 -12.17,4.51 -18.17,6.14 -3.81,1.01 -7.58,1.89 -11.33,2.62l0 63.84 -35.85 0 -0.77 2.2c-0.76,2.23 -1.32,4.36 -1.7,6.36 -0.37,2.14 -0.69,4.44 -0.88,6.85l-0.04 0.51c5.23,0.42 10.1,1 14.61,1.75 7.07,1.19 13.47,2.82 19.14,4.86l5.49 1.97 0 119.93c0,26.67 5.35,45.33 16.03,55.94 5.18,5.15 11.8,9.05 19.81,11.68zm120.17 9.14l0.24 -9.17 0.63 -8.61c0.3,-3.06 0.72,-5.82 1.23,-8.25 0.52,-2.47 1.23,-5 2.1,-7.5l1.87 -5.37 5.93 -0.14c6.16,-0.13 11.25,-0.89 15.2,-2.22 3.16,-1.07 5.45,-2.49 6.81,-4.22 1.62,-2.08 2.92,-5.41 3.86,-9.95 1.08,-5.2 1.63,-11.81 1.63,-19.8l0 -81.84c0,-5.3 -0.5,-9.82 -1.47,-13.48 -0.85,-3.23 -2.09,-5.83 -3.65,-7.73 -1.25,-1.5 -3.77,-2.85 -7.51,-3.98 -4.78,-1.45 -11.09,-2.41 -18.93,-2.87l-7.94 -0.49 0 -7.54 0.31 -8.1c0.18,-2.73 0.48,-5.41 0.86,-8.01 0.42,-2.93 1.12,-5.8 2.06,-8.56 0.93,-2.71 2.17,-5.42 3.67,-8.09l2.4 -4.29 5.04 0c11.56,0 23.4,-0.73 35.5,-2.19 6,-0.71 11.88,-1.61 17.62,-2.67 5.44,-0.99 10.75,-2.16 15.92,-3.49 5.01,-1.28 9.34,-2.58 12.99,-3.85 3.51,-1.22 6.28,-2.39 8.25,-3.47l3.49 -1.91 3.75 1.38c3.15,1.15 6.04,2.77 8.62,4.82 2.54,2.02 4.78,4.46 6.66,7.26 1.94,2.91 3.4,6.34 4.32,10.24 0.86,3.68 1.31,7.74 1.31,12.12l0 136.74c0,8.03 0.53,14.65 1.55,19.83 0.93,4.61 2.2,7.97 3.76,10.04 1.32,1.74 3.41,3.16 6.21,4.19 3.46,1.28 7.92,2 13.3,2.13l5.93 0.15 1.87 5.36c1.62,4.66 2.75,10.09 3.34,16.28l0.63 8.72 0.24 8.53 0 8.8 -9.23 -0.8c-3.75,-0.32 -8.37,-0.6 -13.79,-0.8l-18.62 -0.44 -42.63 -0.25 -43.4 0.25 -18.85 0.44c-5.46,0.2 -10.1,0.48 -13.85,0.8l-9.23 0.8 0 -8.8zm17.67 -16.27l-0.56 7.64 24.62 -0.66 43.6 -0.3 42.77 0.3 24.36 0.66 -0.53 -7.17c-0.27,-2.75 -0.65,-5.28 -1.14,-7.59 -4.72,-0.5 -8.92,-1.44 -12.58,-2.79 -5.9,-2.17 -10.53,-5.46 -13.81,-9.79 -3.04,-4.02 -5.29,-9.51 -6.67,-16.4 -1.26,-6.36 -1.9,-13.97 -1.9,-22.86l0 -136.74c0,-3.39 -0.28,-6.27 -0.83,-8.59 -0.49,-2.1 -1.2,-3.82 -2.08,-5.14 -0.94,-1.4 -2.03,-2.6 -3.22,-3.55l-0.88 -0.64c-2.01,0.89 -4.22,1.77 -6.63,2.6 -4.08,1.43 -8.88,2.86 -14.37,4.28 -5.31,1.38 -11.06,2.64 -17.18,3.75 -5.8,1.07 -12.05,2 -18.68,2.8 -11.16,1.35 -21.9,2.13 -32.18,2.33l-0.47 1.27c-0.64,1.89 -1.12,3.84 -1.4,5.8l-0.72 6.58c5.67,0.66 10.62,1.63 14.81,2.91 7.07,2.16 12.32,5.3 15.68,9.35 3.04,3.69 5.31,8.29 6.75,13.76 1.33,5.03 2.01,10.83 2.01,17.39l0 81.84c0,8.94 -0.66,16.59 -1.97,22.89 -1.45,6.96 -3.78,12.5 -6.96,16.52 -3.44,4.34 -8.34,7.59 -14.69,9.74 -4.02,1.36 -8.7,2.28 -14.03,2.75l-0.09 0.45c-0.46,2.21 -0.82,4.43 -1.03,6.61zm61.79 -254.74c-14.88,0 -27.14,-3.98 -36.75,-11.9 -4.94,-4.08 -8.67,-8.81 -11.19,-14.18 -2.51,-5.36 -3.77,-11.23 -3.77,-17.56 0,-14.73 5.42,-26.31 16.23,-34.71 5.18,-4.03 10.95,-7.05 17.28,-9.04 6.23,-1.97 13.03,-2.96 20.33,-2.96 16.75,0 29.87,4.11 39.32,12.29 4.86,4.2 8.52,9.23 10.96,15.03 2.37,5.65 3.57,11.96 3.57,18.87 0,12.66 -5.38,23.29 -16.13,31.85 -5.22,4.16 -11.25,7.28 -18.02,9.32 -6.65,1.98 -13.93,2.99 -21.83,2.99zm-25.71 -24.05c6.4,5.27 14.98,7.92 25.71,7.92 6.31,0 11.9,-0.73 16.73,-2.2 4.68,-1.44 8.8,-3.55 12.28,-6.32 6.68,-5.33 10.03,-11.84 10.03,-19.51 0,-4.93 -0.78,-9.24 -2.31,-12.89 -1.47,-3.5 -3.7,-6.55 -6.66,-9.11 -6.19,-5.36 -15.52,-8.05 -27.94,-8.05 -5.5,0 -10.53,0.71 -15.03,2.13 -4.42,1.39 -8.42,3.48 -11.94,6.21 -6.61,5.13 -9.93,12.56 -9.93,22.23 0,4.15 0.75,7.83 2.23,11.01 1.49,3.19 3.78,6.06 6.83,8.58zm267.51 306.18c-22.08,0 -41.76,-2.83 -58.99,-8.46 -17.49,-5.72 -32.46,-14.34 -44.85,-25.87 -12.37,-11.49 -21.65,-25.03 -27.83,-40.54 -6.11,-15.35 -9.18,-32.58 -9.18,-51.63 0,-13.67 1.57,-26.41 4.67,-38.17 3.14,-11.88 7.9,-22.78 14.21,-32.62 6.28,-9.78 13.73,-18.47 22.3,-26 8.59,-7.54 18.31,-13.95 29.11,-19.18 21.48,-10.41 45.73,-15.63 72.69,-15.63 15.17,0 29.2,1.33 42.02,4 12.98,2.69 24.79,6.78 35.38,12.23 10.57,5.44 19.91,11.95 27.94,19.46 8.05,7.54 14.83,16.13 20.3,25.73 5.45,9.56 9.53,19.83 12.23,30.79 2.68,10.93 4.04,22.55 4.04,34.8 0,13.1 -1.48,25.43 -4.41,36.97 -2.95,11.62 -7.39,22.35 -13.26,32.1 -5.97,9.85 -13.17,18.61 -21.6,26.24 -8.48,7.65 -18.19,14.21 -29.08,19.61 -10.89,5.37 -22.71,9.43 -35.37,12.13 -12.67,2.68 -26.13,4.04 -40.32,4.04zm-53.51 -23.7c15.41,5.04 33.26,7.56 53.51,7.56 13.2,0 25.44,-1.2 36.68,-3.58 11.22,-2.38 21.65,-5.96 31.21,-10.71 9.55,-4.77 17.97,-10.45 25.24,-17.01 7.29,-6.6 13.49,-14.12 18.58,-22.57 5.11,-8.53 8.98,-17.84 11.52,-27.88 2.57,-10.13 3.87,-21.22 3.87,-33.2 0,-11.11 -1.2,-21.51 -3.56,-31.15 -2.37,-9.61 -5.91,-18.55 -10.59,-26.77 -4.66,-8.17 -10.45,-15.5 -17.32,-21.93 -6.89,-6.45 -14.94,-12.05 -24.1,-16.76 -9.15,-4.71 -19.48,-8.27 -30.96,-10.65 -11.6,-2.41 -24.43,-3.62 -38.44,-3.62 -24.28,0 -45.96,4.63 -65.01,13.86 -9.47,4.59 -17.94,10.15 -25.35,16.67 -7.42,6.51 -13.87,14.04 -19.32,22.53 -5.41,8.44 -9.5,17.83 -12.23,28.14 -2.74,10.4 -4.13,21.85 -4.13,34.27 0,17.18 2.69,32.51 8.04,45.96 5.29,13.27 13.23,24.85 23.81,34.69 10.56,9.82 23.42,17.21 38.55,22.15zm60.45 -24.46c13.33,0 23.4,-6.1 30.16,-18.3 3.8,-6.86 6.68,-14.68 8.6,-23.37 1.95,-8.84 2.94,-18.7 2.94,-29.56 0,-15.7 -1.46,-29.41 -4.36,-41.12 -2.82,-11.4 -7.01,-20.93 -12.52,-28.54 -5.44,-7.51 -11.28,-13.13 -17.47,-16.79 -5.76,-3.4 -11.95,-5.12 -18.56,-5.12 -13.34,0 -23.32,5.94 -29.9,17.79 -3.71,6.7 -6.53,14.3 -8.4,22.74 -1.91,8.61 -2.87,18.17 -2.87,28.67 0,14.6 1.27,27.73 3.8,39.35 2.5,11.47 6.23,21.58 11.18,30.29 4.66,8.22 10.15,14.32 16.43,18.27 6.03,3.79 13.03,5.69 20.97,5.69zm45.1 -10.81c-9.96,17.95 -25,26.95 -45.1,26.95 -11.27,0 -21.37,-2.81 -30.29,-8.42 -8.64,-5.44 -15.98,-13.48 -21.99,-24.06 -5.72,-10.07 -10.01,-21.64 -12.84,-34.63 -2.8,-12.85 -4.2,-27.07 -4.2,-42.63 0,-11.52 1.09,-22.19 3.27,-31.97 2.21,-9.91 5.55,-18.91 10,-26.92 9.78,-17.62 24.73,-26.44 44.84,-26.44 9.75,0 18.91,2.54 27.45,7.58 8.15,4.81 15.65,11.94 22.46,21.34 6.75,9.32 11.8,20.68 15.1,34 3.22,13.01 4.84,27.94 4.84,44.78 0,11.84 -1.12,22.8 -3.34,32.84 -2.25,10.17 -5.65,19.38 -10.2,27.58zm411.2 -27.38c0,8.11 0.47,14.82 1.4,20.09 0.83,4.74 1.99,8.27 3.44,10.5 2.43,3.7 6.9,5.57 13.38,5.57l5.8 0 2.1 5.2c1.01,2.51 1.87,5.14 2.53,7.83 0.64,2.59 1.14,5.34 1.44,8.19l0.63 8.42 0.24 9.43 0 8.35c-19,-0.69 -37.92,-1.32 -56.94,-1.72l-17.72 -0.09 -26.29 0.22 -39.78 0.82 -18.19 1.02 0.17 -17.23 0.4 -8.4c0.2,-3.01 0.63,-5.92 1.23,-8.68 0.62,-2.87 1.47,-5.6 2.5,-8.16l2.09 -5.2 5.81 0c3.76,0 6.99,-0.6 9.66,-1.77 2.55,-1.15 4.76,-2.87 6.55,-5.15 1.9,-2.42 3.41,-6.15 4.48,-11.15 1.19,-5.55 1.8,-12.62 1.8,-21.14l0 -55.41c0,-10.14 -0.82,-18.61 -2.43,-25.34 -1.48,-6.17 -3.59,-10.89 -6.3,-14.06 -2.72,-3.12 -5.97,-5.48 -9.73,-7.02 -4,-1.62 -8.73,-2.44 -14.17,-2.44 -5.02,0 -9.85,1.34 -14.42,4.01 -5,2.91 -9.87,7.43 -14.53,13.51 -4.67,6.08 -8.22,13.71 -10.62,22.87 -2.48,9.47 -3.73,20.61 -3.73,33.37l0 33.56c0,15.52 1.83,25.61 5.48,30.25 1.47,1.87 3.44,3.31 5.87,4.26 2.78,1.09 6.33,1.65 10.6,1.65l5.95 0 2.02 5.36c0.94,2.52 1.78,5.26 2.47,8.13 0.64,2.72 1.14,5.49 1.43,8.24l0.63 8.31 0.24 9.03 0 8.41c-20.87,-0.9 -41.66,-1.39 -62.55,-1.78l-18.51 -0.09 -27.36 0.22 -40.8 0.82 -18.24 1.02 0 -8.6 0.31 -9.65c0.18,-3.1 0.48,-6.09 0.86,-8.92 0.38,-2.83 0.88,-5.52 1.47,-8.03 0.62,-2.64 1.36,-5.04 2.16,-7.15l2.02 -5.32 5.92 0c11.04,0 18.13,-2.03 21.21,-6.06 1.64,-2.17 2.96,-5.59 3.92,-10.23 1.08,-5.25 1.63,-11.88 1.63,-19.87l0 -76.76c0,-8.84 -0.71,-15.8 -2.1,-20.83 -0.5,-1.81 -1.29,-3.37 -2.35,-4.66 -1.04,-1.25 -2.47,-2.37 -4.23,-3.29 -1.99,-1.05 -4.79,-1.95 -8.34,-2.68 -3.93,-0.81 -8.61,-1.38 -13.98,-1.68l-7.97 -0.46 0 -7.57c0,-2.72 0.13,-5.49 0.38,-8.26 0.23,-2.68 0.62,-5.38 1.1,-8.09 0.51,-2.8 1.28,-5.62 2.3,-8.43 0.92,-2.65 2.18,-5.34 3.66,-7.98l2.33 -4.17 4.98 -0.08c9.03,-0.15 18.07,-0.71 27.06,-1.62 8.95,-0.91 17.68,-2.2 26.13,-3.82 8.32,-1.6 15.69,-3.33 22.08,-5.17 5.97,-1.7 10.78,-3.46 14.37,-5.25l3.38 -1.69 3.56 1.31c3.15,1.15 6.04,2.77 8.62,4.82 2.54,2.02 4.78,4.46 6.66,7.26 1.98,2.97 3.45,6.45 4.36,10.43 0.59,2.58 0.98,5.41 1.16,8.48 2.72,-2.57 5.7,-5.04 8.92,-7.39 5.33,-3.89 11.44,-7.58 18.29,-11.02 7.04,-3.53 14.64,-6.2 22.73,-7.96 8.07,-1.75 16.59,-2.65 25.5,-2.65 7.93,0 15.74,0.75 23.37,2.23 7.56,1.46 14.87,3.67 21.9,6.6 7.28,3.05 13.91,7.05 19.82,12.02 5.86,4.89 11.03,10.75 15.48,17.53 4.48,6.83 7.85,14.73 10.06,23.65 2.15,8.67 3.24,18.33 3.24,28.89l0 78.29zm-15.26 22.74c-1.12,-6.32 -1.68,-13.92 -1.68,-22.74l0 -78.29c0,-9.41 -0.92,-17.83 -2.76,-25.23 -1.78,-7.17 -4.44,-13.46 -7.96,-18.81 -3.54,-5.4 -7.66,-10.07 -12.29,-13.95 -4.56,-3.87 -9.71,-6.99 -15.39,-9.36 -5.96,-2.48 -12.16,-4.36 -18.54,-5.59 -6.32,-1.23 -13,-1.84 -19.99,-1.84 -7.8,0 -15.07,0.74 -21.74,2.19 -6.66,1.44 -12.89,3.62 -18.63,6.51 -5.96,2.99 -11.26,6.19 -15.89,9.57 -4.51,3.3 -8.35,6.74 -11.46,10.31l-0.23 0.24c-1.49,1.57 -2.88,3.22 -4.11,4.91 -1.2,1.65 -2.27,3.32 -3.13,4.99l-30.67 33.42 8.65 -27.14c3.29,-10.34 4.94,-19.74 4.94,-28.17 0,-3.5 -0.3,-6.52 -0.87,-9.02 -0.5,-2.19 -1.2,-3.95 -2.04,-5.21 -0.94,-1.4 -2.03,-2.6 -3.22,-3.55l-1 -0.71c-3.8,1.6 -8.23,3.12 -13.25,4.58 -6.49,1.89 -14.39,3.74 -23.68,5.52 -9.14,1.76 -18.37,3.13 -27.65,4.07 -7.55,0.77 -15.31,1.29 -23.26,1.54l-0.58 1.52c-0.69,1.82 -1.23,3.82 -1.61,5.92l-0.86 6.32c2.97,0.35 5.71,0.78 8.21,1.29 5.09,1.04 9.4,2.49 12.9,4.31 3.78,1.96 6.92,4.48 9.43,7.53 2.49,3.03 4.3,6.53 5.39,10.44 1.79,6.47 2.7,14.8 2.7,24.93l0 76.76c0,8.94 -0.66,16.61 -1.97,22.96 -1.43,6.94 -3.74,12.51 -6.9,16.62 -5.65,7.33 -15.15,11.5 -28.45,12.48l-0.02 0.1c-0.46,1.94 -0.86,4.17 -1.19,6.58 -0.32,2.4 -0.59,5 -0.74,7.72l-0.02 0.31c13.82,-0.53 27.79,-0.6 41.63,-0.83l27.62 -0.3 18.71 0.16c15.09,0.28 30.16,0.59 45.25,1.06l-0.57 -7.33c-0.22,-2.16 -0.6,-4.29 -1.09,-6.36l-0.31 -1.22c-3.88,-0.45 -7.45,-1.31 -10.69,-2.58 -5.3,-2.09 -9.62,-5.26 -12.95,-9.48 -5.94,-7.54 -8.92,-20.87 -8.92,-39.89l0 -33.56c0,-13.99 1.43,-26.43 4.27,-37.27 2.93,-11.16 7.4,-20.67 13.4,-28.48 5.98,-7.79 12.45,-13.71 19.35,-17.74 7.32,-4.26 15.08,-6.41 23.22,-6.41 7.73,0 14.67,1.27 20.82,3.78 6.36,2.62 11.76,6.51 16.16,11.63 4.38,5.15 7.61,12.04 9.68,20.67 1.93,8.06 2.91,17.72 2.91,28.92l0 55.41c0,9.43 -0.74,17.56 -2.2,24.36 -1.58,7.34 -4.1,13.23 -7.52,17.57 -3.53,4.49 -7.86,7.86 -12.92,10.1 -3.24,1.42 -6.71,2.39 -10.44,2.89l-0.21 0.92c-0.44,2.04 -0.76,4.2 -0.91,6.42l-0.39 7.56c22.28,-0.86 44.9,-0.88 67.22,-1.13l17.92 0.16c13.23,0.28 26.44,0.58 39.66,1.06l-0.59 -7.84c-0.21,-2.05 -0.6,-4.12 -1.1,-6.17l-0.25 -0.95c-9.54,-1.27 -16.7,-5.54 -21.45,-12.83 -2.61,-4.04 -4.55,-9.5 -5.75,-16.33z"/>
</svg>
