<svg
  xmlns="http://www.w3.org/2000/svg"
  viewBox="0 0 1433 128"
  fill="none"
  stroke="#ffffff"
>
  <defs>
    <clipPath id="a" clipPathUnits="userSpaceOnUse">
      <path d="M0 96.628h1075.342V0H0z" />
    </clipPath>
  </defs>
  <g clip-path="url(#a)" transform="matrix(1.33333 0 0 -1.33333 0 128.837)">
    <path
      d="M18.9841 50.7792l6.144 15.996c.714 1.95 1.414 3.917 2.097 5.9.546 1.586 1.124 3.357 1.732 5.295.649-1.858 1.259-3.532 1.828-5.002.715-1.853 1.592-3.95 2.633-6.291l6.783-15.898zm45.938-20.97c-.975.195-1.838.552-2.584 1.073-.75.52-1.498 1.463-2.244 2.828-.749 1.366-1.707 3.317-2.878 5.852l-22.92 52.377c-.912 0-1.692-.034-2.341-.097-.651-.066-1.333-.164-2.048-.293l-20.287-51.304c-.976-2.536-1.838-4.535-2.585-5.998-.748-1.464-1.512-2.521-2.292-3.17-.78-.651-1.756-1.073-2.927-1.268-.26-.716-.438-1.48-.536-2.292-.098-.814-.147-1.609-.147-2.39.911.066 2.113.131 3.61.195 1.495.066 3.055.098 4.681.098 1.105 0 2.244-.016 3.414-.049 1.17-.032 2.307-.064 3.414-.097 1.105-.032 2.014-.081 2.731-.147 0 .91-.049 1.756-.146 2.536-.098.781-.278 1.495-.537 2.146-2.601.259-4.162 1.137-4.681 2.634-.522 1.494-.132 3.965 1.17 7.412l2.196 5.718c3.773.164 7.825.291 12.19.378 4.585.092 8.92.138 13.025.144l3.702-8.678c1.235-2.862 1.625-4.747 1.171-5.657-.456-.912-1.985-1.561-4.584-1.951-.261-.585-.44-1.284-.537-2.097-.097-.813-.146-1.675-.146-2.585.585 0 1.365.017 2.341.049.976.034 2.064.066 3.268.098 1.202.033 2.373.065 3.51.097 1.137.033 2.097.049 2.878.049 1.039 0 2.341-.016 3.902-.049 1.56-.032 3.072-.064 4.535-.097 1.463-.032 2.551-.081 3.266-.147 0 .91-.033 1.707-.096 2.39-.066.683-.229 1.447-.488 2.292zM119.7361 29.8089c-1.951 0-3.365.585-4.243 1.756-.878 1.171-1.317 3.413-1.317 6.73v16.288c0 3.966-.668 7.103-1.999 9.413-1.334 2.307-3.106 3.965-5.316 4.974-2.211 1.007-4.584 1.511-7.12 1.511-3.317 0-6.178-.748-8.583-2.243-2.406-1.496-4.193-2.991-5.364-4.486-.455-.586-.814-1.139-1.073-1.658-.26-.522-.521-1.01-.78-1.464.324 1.105.536 2.146.634 3.122.098.974.146 1.853.146 2.633 0 1.495-.228 2.568-.682 3.219-.456.649-1.01 1.104-1.658 1.365-1.498-.78-3.643-1.496-6.439-2.146-2.796-.65-5.429-1.041-7.899-1.17-.327-.586-.554-1.236-.684-1.951-.13-.716-.194-1.463-.194-2.243 2.145-.066 3.738-.358 4.778-.878 1.04-.521 1.707-1.285 2-2.292.293-1.009.439-2.357.439-4.048v-17.946c0-3.252-.472-5.479-1.415-6.681-.943-1.204-2.681-1.805-5.217-1.805-.196-.521-.341-1.187-.439-1.999-.097-.814-.146-1.707-.146-2.683.975.066 2.177.115 3.608.147 1.43.034 2.909.065 4.438.098 1.527.033 2.975.048 4.34.048 1.43 0 2.893-.015 4.39-.048 1.495-.033 2.926-.064 4.291-.098 1.365-.032 2.503-.081 3.414-.147 0 .976-.034 1.837-.097 2.585-.066.747-.229 1.447-.489 2.097-2.34 0-3.983.601-4.925 1.805-.943 1.202-1.414 3.429-1.414 6.681v9.265c0 3.837.536 6.925 1.61 9.267 1.072 2.34 2.421 4.063 4.047 5.169 1.625 1.105 3.251 1.658 4.877 1.658 2.599 0 4.681-.814 6.242-2.438 1.56-1.627 2.341-4.682 2.341-9.169v-13.557c0-3.316-.521-5.593-1.561-6.827-1.041-1.236-2.633-1.854-4.779-1.854-.261-.585-.423-1.268-.488-2.048s-.097-1.658-.097-2.634c1.039.066 2.243.115 3.608.147 1.366.034 2.813.065 4.341.098 1.527.033 2.975.048 4.341.048 2.013 0 3.998-.015 5.949-.048 1.95-.033 3.641-.113 5.071-.245 0 1.04-.033 1.918-.096 2.634-.067.715-.196 1.398-.391 2.048zM154.2156 38.6361c-1.139-2.633-2.569-4.535-4.291-5.706-1.725-1.17-3.528-1.755-5.414-1.755-1.496 0-3.04.568-4.633 1.707-1.594 1.136-2.942 2.877-4.048 5.218-1.106 2.341-1.658 5.428-1.658 9.265 0 3.902.44 7.072 1.317 9.51.878 2.439 2.032 4.324 3.462 5.657 1.43 1.332 2.91 2.259 4.439 2.78 1.526.52 2.974.781 4.34.781 2.145 0 3.933-.44 5.364-1.318.974-.597 1.915-1.317 2.829-2.14v-13.416c0-4.423-.57-7.95-1.707-10.583zm14.045-5.316c-.878.455-1.448 1.203-1.706 2.244-.261 1.039-.391 2.372-.391 3.998v51.499c0 1.3-.228 2.276-.682 2.926-.456.65-1.01 1.105-1.659 1.366-.78-.522-2.065-1.041-3.852-1.561-1.79-.521-3.643-.943-5.56-1.268-1.919-.325-3.56-.488-4.925-.488-.327-.585-.553-1.235-.683-1.95-.131-.716-.195-1.463-.195-2.243 2.145 0 3.738-.261 4.779-.781 1.04-.521 1.723-1.284 2.048-2.292.325-1.008.488-2.292.488-3.852V69.6991c-1.085.329-2.138.621-3.121.831-1.366.293-2.927.439-4.682.439-5.008 0-9.397-1.122-13.167-3.365-3.772-2.243-6.698-5.252-8.778-9.022-2.082-3.772-3.121-7.998-3.121-12.68 0-4.942.764-8.99 2.292-12.143 1.527-3.154 3.672-5.478 6.437-6.974 2.763-1.494 6.031-2.243 9.802-2.243 2.146 0 4.097.375 5.853 1.122 1.755.747 3.267 1.624 4.535 2.634 1.267 1.006 2.226 1.999 2.877 2.974.454.52 1.039 1.381 1.756 2.585.28.472.58 1.045.89 1.672-.152-.694-.289-1.297-.403-1.77-.261-1.073-.39-2.26-.39-3.56 0-2.082.244-3.462.732-4.145.487-.683 1.122-1.186 1.902-1.512 1.69.91 3.673 1.625 5.949 2.146 2.276.519 4.324.812 6.145.878.324.78.536 1.625.634 2.536.097.909.113 1.755.048 2.535-1.691 0-2.974.228-3.852.683zM198.6912 67.9457c-1.983-1.497-3.691-3.382-5.12-5.657-.456-.781-.895-1.804-1.317-3.073-.276-.826-.605-1.768-.977-2.801.31 1.474.618 2.92.928 4.313.39 1.756.586 3.641.586 5.657 0 1.496-.229 2.568-.683 3.219-.456.649-1.009 1.105-1.658 1.365-1.497-.78-3.643-1.496-6.438-2.146-2.797-.65-5.429-1.041-7.9-1.17-.326-.585-.553-1.236-.683-1.951-.131-.716-.195-1.463-.195-2.243 2.145-.065 3.738-.358 4.779-.877 1.039-.522 1.707-1.285 2-2.293.292-1.009.439-2.357.439-4.048v-17.556c0-2.277-.196-4.032-.585-5.266-.391-1.237-1.058-2.114-2-2.634-.944-.521-2.292-.846-4.048-.976-.26-.521-.424-1.17-.487-1.95-.066-.78-.098-1.692-.098-2.731 1.495.131 3.575.212 6.242.244 2.666.033 5.234.049 7.705.049 1.625 0 3.251-.016 4.877-.049 1.625-.032 3.154-.064 4.584-.098 1.43-.032 2.666-.08 3.707-.146 0 .975-.049 1.853-.146 2.633-.098.781-.244 1.463-.44 2.048-2.145.196-3.885.586-5.218 1.171-1.333.585-2.291 1.624-2.876 3.121-.586 1.495-.878 3.641-.878 6.437V48.6327c0 2.406.421 4.617 1.267 6.633.845 2.015 1.903 3.641 3.17 4.877 1.268 1.235 2.422 1.853 3.463 1.853 1.3 0 2.355-.505 3.17-1.511.812-1.01 1.283-2.976 1.414-5.901 1.17 0 2.341.097 3.511.292 1.171.195 2.112.423 2.829.683 0 1.234.014 2.585.049 4.047.032 1.464.112 2.926.244 4.39.129 1.462.259 2.746.389 3.852-2.015 1.56-4.259 2.341-6.729 2.341-2.602 0-4.894-.748-6.877-2.243zM229.8523 64.4344c1.43.976 2.927 1.462 4.487 1.462 2.731 0 4.827-1.301 6.291-3.901 1.463-2.601 2.195-6.047 2.195-10.338h-17.817c.115 3.263.557 5.884 1.333 7.851.909 2.307 2.08 3.95 3.511 4.926zm9.511-17.605c2.762.032 5.266.048 7.51.048h5.315c.845.976 1.397 2.21 1.658 3.707-.195 3.836-.96 7.282-2.292 10.339-1.334 3.055-3.333 5.493-5.999 7.314-2.667 1.821-6.178 2.732-10.533 2.732-4.292 0-8.015-1.058-11.168-3.17-3.154-2.114-5.576-4.926-7.267-8.437-1.691-3.511-2.536-7.413-2.536-11.704 0-4.227.796-8.096 2.391-11.607 1.592-3.512 3.965-6.308 7.119-8.388 3.153-2.082 7.169-3.121 12.046-3.121 3.706 0 7.038.602 9.997 1.804 2.958 1.203 5.575 3.202 7.852 5.999-.066.649-.341 1.332-.829 2.048-.488.714-.992 1.202-1.512 1.463-1.626-1.692-3.496-2.992-5.609-3.902-2.113-.911-4.242-1.365-6.387-1.365-3.706 0-6.569.927-8.584 2.78-2.016 1.853-3.448 4.258-4.291 7.217-.538 1.88-.884 3.825-1.08 5.823 1.821.082 3.721.157 5.712.225 2.893.097 5.721.161 8.487.195zM295.0056 70.0912c-1.756 0-3.431.015-5.023.049-1.595.032-3.138.08-4.633.146 0-.78.063-1.577.194-2.389.13-.814.325-1.577.586-2.292 2.665-.522 4.404-1.513 5.218-2.975.812-1.463.405-4.179-1.219-8.145l-6.73-16.971c-.157-.403-.311-.795-.465-1.19a231.96 231.96 0 01-1.925 4.75 527.0878 527.0878 0 01-3.268 7.657c-1.105 2.536-2.113 4.746-3.023 6.632-1.756 3.512-2.39 5.95-1.901 7.315.487 1.366 2.421 2.341 5.802 2.927.26.585.44 1.282.537 2.097.097.812.146 1.673.146 2.584-2.016-.066-4.308-.114-6.876-.146-2.569-.034-4.796-.049-6.681-.049-1.821 0-3.74.015-5.755.049-2.015.032-3.966.08-5.852.146 0-.846.064-1.674.195-2.487.13-.813.293-1.545.487-2.194 1.04-.195 1.984-.603 2.83-1.22.843-.618 1.755-1.675 2.73-3.17.976-1.496 2.147-3.74 3.512-6.73 1.234-2.601 2.666-5.705 4.292-9.314 1.624-3.609 3.316-7.364 5.071-11.265 1.551-3.446 3.047-6.73 4.496-9.871-.019-.042-.039-.086-.058-.127-1.789-3.868-3.073-6.421-3.852-7.656-1.236-1.951-2.683-3.365-4.341-4.243-1.658-.878-3.431-1.317-5.315-1.317-1.237 0-2.455.083-3.658.244a89.031 89.031 0 00-3.462.536c-.261-.975-.424-2.226-.489-3.755-.065-1.526.033-2.812.293-3.853.715-.649 1.707-1.267 2.975-1.853 1.267-.585 2.909-.878 4.926-.878 1.495 0 2.892.261 4.194.781 1.3.521 2.6 1.496 3.901 2.926 1.3 1.431 2.698 3.511 4.194 6.242 1.495 2.732 3.153 6.308 4.974 10.729l14.338 34.137c.976 2.341 1.82 4.161 2.535 5.463.715 1.299 1.464 2.258 2.245 2.876.78.618 1.754 1.057 2.925 1.318.326.779.52 1.575.585 2.389.065.812.098 1.576.098 2.292-1.431-.066-2.959-.114-4.584-.146-1.626-.034-3.35-.049-5.169-.049zM351.5271 60.972c-2.699-1.009-5.706-1.512-9.022-1.512-.781 0-1.529.032-2.244.097-.537.048-1.171.122-1.853.207v26.24c1.053.258 2.067.457 3.024.571 1.105.129 2.341.195 3.706.195 5.462 0 9.364-1.204 11.704-3.61 2.341-2.405 3.512-5.559 3.512-9.46 0-3.316-.797-6.015-2.39-8.095-1.594-2.082-3.74-3.626-6.437-4.633zm32.771-33.26c.033.747.049 1.576.049 2.488-2.341.129-4.374.585-6.095 1.365-1.724.78-3.333 1.999-4.829 3.657-1.496 1.659-3.088 3.755-4.779 6.292-1.496 2.34-2.779 4.323-3.852 5.949-1.074 1.624-2.097 3.007-3.073 4.145-.975 1.137-2 2.178-3.072 3.121-.808.71-1.755 1.429-2.839 2.158 2.839.73 5.36 1.77 7.521 3.158 2.633 1.69 4.664 3.787 6.095 6.291 1.43 2.503 2.146 5.413 2.146 8.729 0 3.056-.731 5.836-2.194 8.34-1.463 2.503-3.886 4.486-7.266 5.949-3.383 1.464-7.967 2.195-13.753 2.195-.976 0-2.357-.017-4.145-.049-1.789-.033-3.741-.065-5.852-.097-2.114-.034-4.113-.049-5.999-.049-1.301 0-2.747.015-4.34.049-1.594.032-3.057.064-4.389.097-1.334.032-2.39.049-3.17.049 0-.717.032-1.48.097-2.292.065-.814.196-1.577.391-2.292 1.756-.066 3.121-.358 4.097-.878.974-.521 1.657-1.399 2.047-2.634.39-1.235.585-3.023.585-5.364V38.685c0-2.277-.195-4.033-.585-5.267-.39-1.236-1.073-2.113-2.047-2.633-.976-.521-2.341-.846-4.097-.976-.195-.65-.326-1.382-.391-2.194a31.246 31.246 0 01-.097-2.488c1.625.132 3.609.212 5.95.244 2.341.034 4.421.049 6.242.049h3.657c1.463 0 3.024-.015 4.682-.049 1.658-.032 3.17-.112 4.536-.244 0 .845-.034 1.691-.099 2.536s-.194 1.561-.389 2.146c-1.626.13-2.944.439-3.951.927-1.008.487-1.707 1.381-2.096 2.682-.391 1.3-.586 3.121-.586 5.462v15.88c1.113-.043 2.229-.079 3.365-.079.98 0 2.051.016 3.205.048 1.864-1.542 3.453-2.975 4.744-4.291 1.625-1.658 3.024-3.35 4.195-5.072 1.17-1.724 2.404-3.625 3.706-5.706 1.885-3.121 3.544-5.788 4.974-7.998 1.429-2.211 3.056-4.584 4.877-7.12 2.276.39 4.876.634 7.802.732 2.927.097 5.787.146 8.583.146.26.781.406 1.544.439 2.292z"
      stroke-width="2.268"
    />
    <path
      d="M417.2166 70.0912c-1.756 0-3.431.015-5.023.049-1.594.032-3.138.08-4.633.146 0-.78.064-1.577.195-2.389.13-.814.324-1.577.585-2.292 2.666-.522 4.404-1.513 5.219-2.975.811-1.463.405-4.179-1.22-8.145l-6.729-16.971c-.157-.403-.311-.795-.466-1.19-.58 1.48-1.217 3.057-1.924 4.75a550.1757 550.1757 0 01-3.268 7.657c-1.106 2.536-2.114 4.746-3.023 6.632-1.756 3.512-2.39 5.95-1.902 7.315.488 1.366 2.421 2.341 5.803 2.927.259.585.439 1.282.536 2.097.098.812.147 1.673.147 2.584-2.017-.066-4.309-.114-6.876-.146-2.569-.034-4.796-.049-6.682-.049-1.821 0-3.74.015-5.754.049-2.016.032-3.967.08-5.852.146 0-.846.064-1.674.195-2.487.13-.813.292-1.545.487-2.194 1.04-.195 1.984-.603 2.83-1.22.843-.618 1.755-1.675 2.73-3.17.976-1.496 2.146-3.74 3.512-6.73 1.234-2.601 2.665-5.705 4.291-9.314 1.625-3.609 3.316-7.364 5.072-11.265 1.55-3.446 3.047-6.73 4.495-9.871a4.887 4.887 0 00-.057-.127c-1.79-3.868-3.073-6.421-3.853-7.656-1.236-1.951-2.683-3.365-4.341-4.243-1.658-.878-3.43-1.317-5.315-1.317-1.237 0-2.455.083-3.658.244-1.204.163-2.357.342-3.461.536-.261-.975-.425-2.226-.489-3.755-.065-1.526.033-2.812.292-3.853.715-.649 1.707-1.267 2.976-1.853 1.267-.585 2.909-.878 4.926-.878 1.494 0 2.891.261 4.193.781 1.3.521 2.6 1.496 3.901 2.926 1.3 1.431 2.698 3.511 4.195 6.242 1.495 2.732 3.153 6.308 4.974 10.729l14.337 34.137c.976 2.341 1.82 4.161 2.536 5.463.715 1.299 1.463 2.258 2.244 2.876.78.618 1.755 1.057 2.926 1.318.325.779.52 1.575.585 2.389.064.812.098 1.576.098 2.292-1.432-.066-2.96-.114-4.584-.146-1.627-.034-3.351-.049-5.17-.049zM451.0613 29.8089c-2.146.064-3.657.683-4.535 1.854-.878 1.17-1.318 3.38-1.318 6.632v52.766c0 1.3-.228 2.276-.682 2.926-.455.65-1.009 1.105-1.658 1.366-.845-.522-2.13-1.041-3.853-1.561-1.724-.521-3.559-.943-5.511-1.268-1.95-.325-3.608-.487-4.974-.487-.325-.585-.553-1.236-.683-1.951-.131-.716-.194-1.463-.194-2.243 2.145 0 3.738-.261 4.779-.781 1.039-.521 1.722-1.268 2.048-2.243.325-.975.488-2.211.488-3.706v-42.818c0-3.252-.472-5.462-1.415-6.632-.943-1.171-2.716-1.79-5.315-1.854-.195-.65-.326-1.399-.391-2.243-.064-.846-.097-1.658-.097-2.439 1.04.066 2.209.115 3.511.147 1.3.034 2.697.065 4.195.098 1.495.033 2.925.048 4.291.048 1.365 0 2.762-.015 4.194-.048 1.43-.033 2.795-.064 4.097-.098 1.299-.032 2.502-.081 3.608-.147 0 .65-.048 1.43-.147 2.341-.097.91-.243 1.691-.438 2.341zM469.0066 49.8036c.292-.284.592-.59.887-.885l-1.18-1.065zm28.48-17.264c-.911.781-1.951 1.918-3.121 3.414-3.316 4.097-6.226 7.542-8.729 10.339a204.3998 204.3998 0 01-5.407 5.809l8.381 7.651c1.625 1.495 3.088 2.649 4.39 3.463 1.3.812 2.568 1.414 3.804 1.804 1.234.39 2.502.617 3.804.682.324.649.536 1.381.633 2.195.098.812.147 1.61.147 2.39-1.692-.066-3.333-.114-4.926-.147-1.594-.033-3.008-.048-4.242-.048h-3.414c-1.236 0-2.504.015-3.804.048-1.302.033-2.601.081-3.901.147 0-.78.049-1.545.146-2.293.098-.748.277-1.511.536-2.292.91 0 1.593-.13 2.049-.39.454-.26.683-.65.683-1.17 0-.586-.424-1.463-1.269-2.633-.845-1.171-2.341-2.699-4.486-4.584l-7.12-6.429v40.566c0 1.3-.229 2.275-.683 2.926-.456.649-1.009 1.105-1.658 1.365-.846-.521-2.131-1.041-3.853-1.56-1.723-.522-3.559-.944-5.51-1.268-1.951-.326-3.609-.488-4.975-.488-.326-.585-.553-1.235-.683-1.95-.13-.717-.195-1.464-.195-2.244 2.147 0 3.738-.261 4.779-.78 1.04-.521 1.723-1.285 2.049-2.292.324-1.009.488-2.293.488-3.853v-42.623c0-3.252-.473-5.462-1.414-6.632-.944-1.171-2.716-1.789-5.316-1.854-.195-.65-.326-1.399-.391-2.243-.065-.845-.097-1.658-.097-2.438 1.039.066 2.21.114 3.512.146 1.299.034 2.681.066 4.144.098 1.464.033 2.878.049 4.243.049 2.08 0 4.129-.016 6.145-.049 2.015-.032 3.836-.113 5.462-.244 0 .649-.034 1.429-.098 2.341-.064.91-.194 1.69-.39 2.34-2.016.065-3.447.699-4.292 1.903-.845 1.202-1.267 3.396-1.267 6.583v8.84c1.605-1.677 3.26-3.491 4.974-5.475 2.665-3.089 5.185-6.161 7.559-9.217 2.373-3.057 4.275-5.691 5.706-7.9 1.43.261 2.877.439 4.34.536 1.464.098 2.941.18 4.438.244 1.495.065 3.056.098 4.682.098.194.585.341 1.268.438 2.048.098.78.147 1.658.147 2.633-1.431.13-2.634.373-3.608.732-.976.356-1.919.927-2.83 1.706zM535.9148 34.3446c-1.756-3.089-4.455-4.633-8.096-4.633-2.536 0-4.747.796-6.632 2.389-1.886 1.593-3.333 3.917-4.34 6.974-1.009 3.056-1.512 6.665-1.512 10.827 0 4.682.878 8.517 2.634 11.509 1.755 2.99 4.421 4.486 7.997 4.486 2.276 0 4.373-.764 6.291-2.292 1.918-1.528 3.446-3.772 4.585-6.729 1.136-2.96 1.706-6.454 1.706-10.486 0-4.942-.877-8.958-2.633-12.045zm3.414 33.698c-3.382 1.951-7.511 2.927-12.388 2.927-4.356 0-8.257-.993-11.704-2.976-3.447-1.983-6.161-4.73-8.144-8.241-1.984-3.512-2.975-7.544-2.975-12.095 0-4.681.927-8.746 2.78-12.191 1.853-3.447 4.487-6.13 7.901-8.047 3.414-1.918 7.428-2.877 12.046-2.877 4.615 0 8.632.99 12.045 2.974 3.414 1.983 6.062 4.746 7.949 8.291 1.886 3.543 2.829 7.559 2.829 12.046 0 4.616-.878 8.647-2.634 12.094-1.756 3.446-4.325 6.145-7.705 8.095zM590.0466 70.0912c-1.561 0-3.154.032-4.779.098-1.626.064-3.089.129-4.389.194 0-.779.097-1.577.292-2.389.195-.814.454-1.577.78-2.292 2.406-.195 3.934-1.058 4.584-2.585.65-1.528.196-4.242-1.365-8.144-1.235-2.991-2.52-6.129-3.852-9.412-1.114-2.741-2.334-5.832-3.651-9.23-.576 1.5-1.193 3.076-1.86 4.743-.976 2.438-1.936 4.844-2.877 7.218-.944 2.373-1.821 4.502-2.634 6.389-.813 1.885-1.479 3.38-1.999 4.486-1.236 2.6-1.578 4.292-1.024 5.072.551.78 2.389 1.3 5.51 1.56.196.65.357 1.381.488 2.195.13.812.195 1.61.195 2.389-1.041-.065-2.26-.113-3.657-.146-1.4-.033-2.877-.065-4.439-.097-1.56-.034-3.089-.049-4.584-.049-2.145 0-4.162.032-6.047.098-1.886.064-3.545.129-4.974.194 0-.975.049-1.789.146-2.438.098-.651.276-1.398.536-2.243.911-.131 1.642-.358 2.196-.683.55-.325 1.121-.894 1.706-1.706.586-.814 1.301-2.066 2.146-3.756.454-.975 1.186-2.552 2.195-4.73 1.007-2.179 2.161-4.699 3.461-7.559 1.3-2.862 2.585-5.755 3.854-8.68 1.268-2.927 2.438-5.643 3.511-8.145 1.073-2.504 1.933-4.471 2.585-5.901.909-.064 1.868 0 2.877.195 1.007.195 1.868.456 2.585.781l13.264 30.236c.976 2.404 1.836 4.274 2.585 5.607.747 1.333 1.512 2.325 2.292 2.976.78.649 1.69 1.104 2.731 1.365.325.585.551 1.284.683 2.097.129.813.195 1.673.195 2.584-1.17-.065-2.602-.13-4.291-.194-1.693-.066-3.351-.098-4.975-.098zM661.2458 80.8685c-.261 1.854-.488 3.755-.683 5.706-.195 1.951-.358 3.641-.487 5.072-1.106 0-2.846-.034-5.219-.098-2.375-.065-5.364-.114-8.972-.146-3.61-.034-8.015-.049-13.217-.049h-3.804c-1.56 0-3.186.015-4.877.049-1.691.032-3.301.064-4.827.098-1.529.032-2.878.08-4.048.146 0-.976.031-1.853.098-2.633.063-.781.226-1.463.487-2.049 1.756-.131 3.105-.455 4.048-.975.941-.521 1.609-1.382 1.999-2.585.391-1.204.585-2.974.585-5.315v-39.405c0-2.276-.194-4.032-.585-5.266-.39-1.237-1.073-2.114-2.048-2.634-.975-.521-2.341-.846-4.096-.976-.196-.521-.327-1.17-.39-1.95-.067-.78-.098-1.692-.098-2.731 1.43.131 3.543.212 6.34.244 2.795.033 5.429.049 7.9.049 1.624 0 3.267-.016 4.926-.049 1.657-.032 3.219-.064 4.682-.098 1.462-.031 2.682-.08 3.657-.146 0 .975-.034 1.853-.099 2.634-.064.78-.194 1.462-.389 2.047-2.146.196-3.886.586-5.218 1.171-1.334.585-2.31 1.624-2.926 3.121-.619 1.495-.926 3.641-.926 6.437v13.558h6.242c3.836 0 6.486-.585 7.949-1.755 1.463-1.171 2.324-3.383 2.585-6.633.78-.261 1.575-.423 2.39-.488.812-.065 1.706-.097 2.681-.097-.065 1.624-.114 3.462-.145 5.511-.035 2.047-.05 4.014-.05 5.901 0 1.755.015 3.575.05 5.461.031 1.886.08 3.641.145 5.268-.911 0-1.805-.066-2.681-.196-.878-.131-1.742-.326-2.585-.585-.066-3.057-.831-5.105-2.292-6.145-1.463-1.04-4.146-1.56-8.047-1.56h-6.242v28.187h8.291c4.03 0 7.134-.601 9.313-1.804 2.178-1.204 3.723-2.731 4.634-4.584.91-1.854 1.463-3.821 1.657-5.901 1.105 0 2.097.097 2.976.293.878.195 1.609.519 2.194.975-.326 1.429-.618 3.072-.878 4.925zM692.3601 34.3446c-1.756-3.089-4.455-4.633-8.096-4.633-2.535 0-4.747.796-6.633 2.389-1.886 1.593-3.332 3.917-4.339 6.974-1.009 3.056-1.512 6.665-1.512 10.827 0 4.682.878 8.517 2.633 11.509 1.757 2.99 4.422 4.486 7.998 4.486 2.276 0 4.373-.764 6.291-2.292 1.918-1.528 3.446-3.772 4.584-6.729 1.137-2.96 1.707-6.454 1.707-10.486 0-4.942-.877-8.958-2.633-12.045zm3.414 33.698c-3.383 1.951-7.511 2.927-12.388 2.927-4.356 0-8.258-.993-11.704-2.976-3.446-1.983-6.162-4.73-8.144-8.241-1.985-3.512-2.975-7.544-2.975-12.095 0-4.681.928-8.746 2.78-12.191 1.854-3.447 4.487-6.13 7.901-8.047 3.413-1.918 7.428-2.877 12.045-2.877 4.616 0 8.632.99 12.046 2.974 3.414 1.983 6.062 4.746 7.949 8.291 1.886 3.543 2.828 7.559 2.828 12.046 0 4.616-.878 8.647-2.633 12.094-1.756 3.446-4.325 6.145-7.705 8.095zM753.3191 35.5638c-.261 1.04-.391 2.373-.391 3.999v26.822c0 1.495-.228 2.568-.682 3.219-.456.649-1.009 1.105-1.658 1.365-1.497-.651-3.56-1.253-6.194-1.804-2.633-.553-5.381-.895-8.242-1.024-.39-.651-.618-1.317-.682-2-.066-.683-.098-1.414-.098-2.194 3.185-.066 5.184-.668 5.999-1.804.811-1.14 1.219-2.944 1.219-5.414v-8.778c0-5.593-1.042-9.721-3.122-12.387-2.081-2.667-4.649-3.999-7.705-3.999-2.797 0-4.747 1.105-5.852 3.316-1.106 2.21-1.657 5.494-1.657 9.851v21.653c0 1.495-.23 2.568-.684 3.219-.455.649-1.009 1.105-1.657 1.365-1.497-.78-3.529-1.496-6.097-2.146-2.569-.65-5.056-1.041-7.461-1.17-.326-.651-.536-1.317-.634-2-.097-.682-.146-1.414-.146-2.194 2.926-.065 4.714-.667 5.364-1.804.65-1.139.976-2.944.976-5.414v-13.752c0-6.569 1.251-11.119 3.756-13.655 2.501-2.536 5.997-3.804 10.484-3.804 2.731 0 5.072.406 7.021 1.219 1.952.813 3.74 2 5.366 3.56.78.715 1.463 1.496 2.048 2.341.496.715.877 1.46 1.187 2.224-.045-.354-.084-.691-.114-1.004-.131-1.334-.195-2.39-.195-3.17 0-2.082.244-3.463.732-4.146.487-.682 1.121-1.186 1.901-1.511 1.691.909 3.673 1.624 5.949 2.146 2.276.519 4.325.812 6.145.877.325.78.52 1.625.586 2.536.064.91.098 1.755.098 2.536-1.757 0-3.058.227-3.902.682-.846.455-1.399 1.203-1.658 2.244zM814.5701 29.8089c-1.951 0-3.366.585-4.244 1.756-.877 1.171-1.316 3.413-1.316 6.73v16.288c0 3.966-.668 7.103-2.001 9.413-1.332 2.307-3.104 3.965-5.315 4.974-2.21 1.007-4.584 1.511-7.119 1.511-3.317 0-6.179-.748-8.583-2.243-2.406-1.496-4.194-2.991-5.364-4.486-.456-.586-.815-1.139-1.074-1.658-.26-.522-.521-1.01-.78-1.464.324 1.105.536 2.146.634 3.122.097.974.146 1.853.146 2.633 0 1.495-.229 2.568-.683 3.219-.455.649-1.009 1.104-1.657 1.365-1.498-.78-3.643-1.496-6.438-2.146-2.797-.65-5.43-1.041-7.9-1.17-.327-.586-.554-1.236-.683-1.951-.132-.716-.195-1.463-.195-2.243 2.146-.066 3.738-.358 4.779-.878 1.039-.521 1.707-1.285 1.999-2.292.293-1.009.44-2.357.44-4.048v-17.946c0-3.252-.473-5.479-1.415-6.681-.943-1.204-2.682-1.805-5.218-1.805-.195-.521-.342-1.187-.439-1.999-.097-.814-.146-1.707-.146-2.683.975.066 2.177.115 3.609.147 1.43.034 2.908.065 4.438.098 1.526.033 2.974.048 4.339.048 1.43 0 2.894-.015 4.39-.048 1.495-.033 2.926-.064 4.291-.098 1.365-.032 2.503-.081 3.414-.147 0 .976-.033 1.837-.097 2.585-.066.747-.229 1.447-.489 2.097-2.34 0-3.983.601-4.925 1.805-.943 1.202-1.414 3.429-1.414 6.681v9.265c0 3.837.537 6.925 1.61 9.267 1.073 2.34 2.422 4.063 4.048 5.169 1.624 1.105 3.25 1.658 4.876 1.658 2.6 0 4.681-.814 6.243-2.438 1.56-1.627 2.341-4.682 2.341-9.169v-13.557c0-3.316-.522-5.593-1.562-6.827-1.04-1.236-2.633-1.854-4.779-1.854-.261-.585-.424-1.268-.488-2.048-.065-.78-.096-1.658-.096-2.634 1.038.066 2.243.115 3.608.147 1.365.034 2.812.065 4.34.098 1.527.033 2.975.048 4.34.048 2.015 0 4-.015 5.951-.048 1.949-.033 3.64-.113 5.071-.245 0 1.04-.033 1.918-.097 2.634-.066.715-.196 1.398-.39 2.048zM849.0496 38.6361c-1.138-2.633-2.569-4.535-4.292-5.706-1.724-1.17-3.528-1.755-5.413-1.755-1.497 0-3.04.568-4.633 1.707-1.594 1.136-2.942 2.877-4.047 5.218-1.107 2.341-1.659 5.428-1.659 9.265 0 3.902.44 7.072 1.317 9.51.878 2.439 2.032 4.324 3.462 5.657 1.43 1.332 2.911 2.259 4.439 2.78 1.527.52 2.974.781 4.34.781 2.146 0 3.933-.44 5.365-1.318.973-.597 1.914-1.317 2.828-2.141v-13.415c0-4.423-.57-7.95-1.707-10.583zm14.045-5.316c-.877.455-1.448 1.203-1.707 2.244-.261 1.039-.39 2.372-.39 3.998v51.499c0 1.3-.229 2.276-.683 2.926-.455.65-1.009 1.105-1.658 1.366-.781-.522-2.065-1.041-3.853-1.561-1.789-.521-3.642-.943-5.56-1.268-1.918-.325-3.559-.488-4.925-.488-.326-.585-.553-1.235-.682-1.95-.132-.716-.195-1.463-.195-2.243 2.146 0 3.738-.261 4.779-.781 1.039-.521 1.722-1.284 2.049-2.292.323-1.008.487-2.292.487-3.852V69.6991c-1.085.329-2.138.621-3.122.831-1.365.293-2.925.439-4.682.439-5.007 0-9.396-1.122-13.166-3.365-3.772-2.243-6.699-5.252-8.779-9.022-2.081-3.772-3.121-7.998-3.121-12.68 0-4.942.764-8.99 2.293-12.143 1.526-3.154 3.673-5.478 6.437-6.974 2.762-1.494 6.031-2.243 9.802-2.243 2.146 0 4.097.375 5.853 1.122 1.755.747 3.266 1.624 4.535 2.634 1.267 1.006 2.226 1.999 2.877 2.974.454.52 1.04 1.381 1.756 2.585.28.472.58 1.044.89 1.671-.152-.694-.289-1.296-.403-1.769-.261-1.073-.39-2.26-.39-3.56 0-2.082.243-3.462.732-4.145.487-.683 1.121-1.186 1.901-1.512 1.691.91 3.673 1.625 5.95 2.146 2.276.519 4.324.812 6.145.878.324.78.537 1.625.634 2.536.097.909.113 1.755.048 2.535-1.692 0-2.974.228-3.852.683zM896.6941 44.1468c0-3.121-.487-5.642-1.462-7.559-.976-1.919-2.18-3.35-3.609-4.291-1.431-.943-2.863-1.415-4.292-1.415-1.431 0-2.699.52-3.803 1.561-1.107 1.039-1.659 2.697-1.659 4.975 0 1.95.439 3.511 1.317 4.681.878 1.17 2.048 2.112 3.511 2.828 1.463.715 3.072 1.268 4.828 1.658 1.756.391 3.478.715 5.169.976zm12.485-10.68c-.845.488-1.415 1.283-1.707 2.389-.293 1.105-.439 2.601-.439 4.487v10.046c0 4.422-.292 7.916-.878 10.486-.585 2.567-1.69 4.632-3.315 6.192-1.042 1.171-2.504 2.113-4.389 2.829-1.887.715-4.228 1.073-7.023 1.073-2.668 0-5.559-.375-8.681-1.121-3.121-.748-6.047-1.805-8.779-3.17.391-1.561.601-3.35.634-5.365.033-2.016-.016-3.869-.145-5.559.715-.261 1.658-.456 2.828-.586 1.17-.13 2.21-.195 3.121-.195.13 1.496.454 3.105.975 4.829.521 1.721 1.366 3.218 2.537 4.486 1.17 1.268 2.795 1.902 4.876 1.902 1.171 0 2.244-.229 3.218-.683.976-.455 1.854-1.138 2.634-2.048.586-.65 1.025-1.414 1.317-2.292.293-.878.487-2.033.585-3.462.098-1.432.146-3.382.146-5.852-1.82-.261-3.853-.603-6.096-1.025-2.243-.423-4.503-.992-6.778-1.707-2.276-.716-4.374-1.674-6.291-2.877-1.918-1.204-3.48-2.699-4.682-4.487-1.204-1.789-1.804-3.95-1.804-6.485 0-3.317 1.121-5.901 3.365-7.755 2.243-1.853 5.445-2.78 9.607-2.78 2.405 0 4.487.31 6.242.927s3.218 1.415 4.389 2.39c1.106.975 2.031 2.08 2.779 3.316.331.546.606 1.091.841 1.638-.017-.141-.044-.276-.059-.419-.098-.878-.148-1.643-.148-2.292 0-1.755.228-3.072.684-3.95.454-.878 1.073-1.479 1.853-1.804 1.69.909 3.609 1.624 5.755 2.146 2.145.519 4.128.812 5.949.877.325.78.537 1.625.634 2.536.098.91.113 1.755.048 2.536-1.69.064-2.959.342-3.803.829zM939.2683 30.8334c-1.008-.358-2.162-.537-3.463-.537-1.17 0-2.162.326-2.974.976-.814.649-1.431 1.673-1.853 3.072-.424 1.398-.634 3.234-.634 5.511v23.116c1.561.324 3.299.617 5.218.878 1.917.258 4.048.39 6.389.39.324.78.551 1.593.682 2.438.13.844.195 1.658.195 2.439h-12.484v11.411c0 2.146-.132 3.512-.39 4.097-.261.585-.749 1.007-1.463 1.268-1.041-.912-2.327-1.756-3.853-2.536-1.528-.78-3.072-1.334-4.634-1.658v-12.582h-6.144c-.326-.846-.553-1.626-.682-2.341-.132-.716-.196-1.529-.196-2.439 1.561-.065 2.878-.211 3.95-.439 1.073-.228 2.098-.504 3.072-.829v-25.164c0-4.747.993-8.161 2.976-10.241 1.983-2.082 4.989-3.121 9.021-3.121 2.211 0 4.421.407 6.633 1.219 2.209.812 3.868 1.804 4.975 2.975-.131 1.43-.619 2.665-1.463 3.706-.911-.716-1.87-1.253-2.878-1.609zM957.2634 81.0155c1.885 0 3.462.6 4.73 1.804 1.268 1.203 1.903 2.617 1.903 4.243 0 1.885-.586 3.413-1.757 4.584-1.17 1.17-2.765 1.756-4.778 1.756-1.756 0-3.285-.586-4.585-1.756-1.301-1.171-1.95-2.731-1.95-4.682 0-1.692.6-3.106 1.803-4.242 1.203-1.139 2.747-1.707 4.634-1.707zM969.1619 29.8089c-2.146.064-3.656.683-4.534 1.854-.879 1.17-1.318 3.38-1.318 6.632v28.383c0 1.299-.228 2.275-.682 2.926-.455.649-1.01 1.104-1.658 1.365-.846-.521-2.147-1.041-3.902-1.561-1.756-.52-3.608-.943-5.559-1.267-1.951-.327-3.577-.488-4.876-.488-.327-.586-.572-1.236-.732-1.951-.164-.716-.244-1.463-.244-2.243 2.209 0 3.836-.261 4.876-.78 1.04-.522 1.707-1.285 1.999-2.292.294-1.01.44-2.292.44-3.853v-18.239c0-3.252-.456-5.462-1.366-6.632-.911-1.171-2.667-1.79-5.267-1.854-.195-.65-.341-1.399-.438-2.243-.097-.846-.147-1.658-.147-2.439 1.039.066 2.227.115 3.56.147 1.331.034 2.731.065 4.194.098s2.91.048 4.341.048c1.366 0 2.762-.015 4.194-.048 1.429-.033 2.795-.064 4.097-.098 1.298-.032 2.469-.081 3.51-.147 0 .65-.034 1.43-.097 2.341-.066.91-.195 1.691-.391 2.341zM1004.1775 34.3446c-1.756-3.089-4.455-4.633-8.096-4.633-2.535 0-4.747.796-6.633 2.389-1.886 1.593-3.332 3.917-4.339 6.974-1.009 3.056-1.512 6.665-1.512 10.827 0 4.682.878 8.517 2.633 11.509 1.757 2.99 4.421 4.486 7.998 4.486 2.276 0 4.373-.764 6.291-2.292 1.918-1.528 3.446-3.772 4.584-6.729 1.137-2.96 1.707-6.454 1.707-10.486 0-4.942-.878-8.958-2.633-12.045zm3.414 33.698c-3.383 1.951-7.511 2.927-12.388 2.927-4.356 0-8.258-.993-11.704-2.976-3.446-1.983-6.162-4.73-8.144-8.241-1.985-3.512-2.975-7.544-2.975-12.095 0-4.681.927-8.746 2.78-12.191 1.854-3.447 4.487-6.13 7.901-8.047 3.413-1.918 7.428-2.877 12.045-2.877 4.616 0 8.632.99 12.046 2.974 3.414 1.983 6.061 4.746 7.948 8.291 1.886 3.543 2.829 7.559 2.829 12.046 0 4.616-.878 8.647-2.633 12.094-1.756 3.446-4.326 6.145-7.705 8.095zM1074.1101 27.7611c-.065.715-.195 1.397-.39 2.048-1.951 0-3.366.585-4.244 1.756-.877 1.171-1.315 3.413-1.315 6.73v16.288c0 3.966-.668 7.103-2.001 9.412-1.332 2.308-3.105 3.966-5.316 4.975-2.21 1.007-4.584 1.511-7.119 1.511-3.316 0-6.178-.748-8.583-2.243-2.406-1.497-4.194-2.992-5.364-4.486-.456-.586-.814-1.139-1.073-1.658-.261-.522-.522-1.01-.781-1.464.325 1.105.537 2.146.634 3.122.097.974.147 1.853.147 2.633 0 1.495-.23 2.567-.684 3.219-.455.649-1.009 1.104-1.657 1.365-1.497-.78-3.643-1.497-6.438-2.146-2.796-.65-5.429-1.041-7.9-1.17-.326-.586-.554-1.236-.683-1.951-.131-.716-.195-1.463-.195-2.243 2.147-.066 3.738-.359 4.779-.878 1.039-.521 1.707-1.285 1.999-2.292.293-1.009.44-2.358.44-4.048V38.2951c0-3.252-.473-5.479-1.414-6.681-.944-1.204-2.683-1.805-5.219-1.805-.194-.521-.342-1.187-.438-1.999-.098-.814-.147-1.707-.147-2.683.976.066 2.178.115 3.609.147 1.43.033 2.909.065 4.438.097 1.526.034 2.975.049 4.34.049 1.429 0 2.893-.015 4.389-.049 1.496-.032 2.926-.064 4.291-.097 1.366-.032 2.503-.081 3.415-.147 0 .976-.034 1.837-.098 2.585-.066.747-.229 1.446-.487 2.097-2.341 0-3.985.601-4.926 1.805-.944 1.202-1.414 3.429-1.414 6.681v9.265c0 3.837.536 6.925 1.609 9.266s2.422 4.063 4.048 5.169c1.624 1.105 3.25 1.659 4.876 1.659 2.601 0 4.682-.814 6.243-2.438 1.561-1.627 2.341-4.682 2.341-9.169v-13.557c0-3.316-.522-5.593-1.562-6.828-1.04-1.235-2.632-1.853-4.779-1.853-.261-.585-.424-1.268-.487-2.048-.066-.78-.097-1.658-.097-2.634 1.038.066 2.243.115 3.609.147 1.365.033 2.811.065 4.339.097 1.528.034 2.975.049 4.34.049 2.016 0 4-.015 5.951-.049 1.95-.032 3.64-.112 5.072-.244 0 1.04-.034 1.918-.098 2.634z"
      stroke-width="2.268"
    />
  </g>
</svg>
