<svg
    v-else-if="name === 'diamond'"
    xmlns="http://www.w3.org/2000/svg"
    viewBox="0 0 2370.66 2031.98"
    fill="#000"
  >
  <defs>
  </defs>
    <path
      d="M1320.72 1728.67l.75.75c-.05-.05-.99-.5-.75-.75zM656.29 831.06c8.39-1.96 172.79-97.74 204.19-116.75l74.62-43.22c6.26-3.79 12.51-8.65 19.56-10.53l94.59 512.18c9.17 53.36 93.06 498.19 93.46 515.81-2.82-3.24-1.16-.78-4.15-5.88-1.31-2.23-2.45-4.8-3.39-6.64-2.76-5.35-4.69-8.02-7.38-12.68-5.37-9.31-9.94-18.01-15.3-27.32l-335.08-590.12c-35.29-63.14-85.26-145.55-117.2-206.24-.26-.49-.63-1.12-.88-1.62-.26-.51-.6-1.18-.84-1.67l-2.2-5.32zm666.94 895.1c0-21.2 4.96-47.59 7.31-67.91L1445 719.65c3.18-22.94 6.82-47.57 8.61-69.12 13.28 7.03 33.8 14 48 19.71 16.77 6.74 31.55 12.11 48.71 18.97l271.16 107.45c9.39 3.78 15.86 7.02 25.78 9.33-.72 8.61-25.14 48.93-31.16 59.1-11.79 19.93-21.18 37.37-32.97 57.3-6.17 10.43-10.53 18.98-16.24 28.89l-81.84 143.82c-10.99 19.67-21.38 38.24-32.88 57.38-43.45 72.27-88.13 155.6-130.99 230.05-21.87 37.99-44.02 75.67-65.83 114.7l-98.46 172.33c-6.14 10.38-10.92 19.02-16.09 29.04-3.82 7.39-11.77 23.31-17.57 27.56zm391.14-1078.13zm-478.89 992.89h-2.51c0-11.73-3.04-20.58-4.68-30.43-39.63-237.76-93.26-488.75-132.89-727.12-7-42.09-16.02-83.17-22.9-125.02-3.5-21.31-7.27-41.36-11.48-63.74l-11.08-64.13h308.39c-4.24 18.22-5.5 41.17-8.28 61.91l-53.93 442.52c-10.56 84.85-20.98 167.89-30.77 252.56l-22.81 187.8c-2.34 19.04-7.06 44.57-7.06 65.65zm-341-1060.59zm363.56-328.46c1.16 13.88 16.12 52.85 20.96 69.3 7.29 24.75 13.97 47 21.97 70.8l44.83 140.72h-265.78l153.44-247.74c3.81-6.04 6.61-10.84 10.31-17.26 4.32-7.48 5.69-13.53 14.27-15.82zM894.48 580.33l102.8-102.8-38.62 64.18c-4.71 6.43-21.85 15.81-29.93 20.21-9.94 5.41-24.81 16.21-34.25 18.41zm102.8-102.8zm717.09 170.5l-121.43-46.56c-41.09-16.55-78.97-31.79-119.98-48.01-20.93-8.29-19.78 2.1-33.86-48.88-13.33-48.26-52.13-155.71-60.71-192.53l335.98 335.98zM540.95 813.51c0 21.8 26.65 60.85 37.74 80.1 14.31 24.82 28.17 50.11 42.63 75.22l579.12 1020.53c19.07 33.91 64.99 33.76 85.11 2.51 7.47-11.61 14.71-25.47 21.78-38.4 41.7-76.32 89.86-155.97 132.97-233.09l65.48-115.05c8.06-13.41 15.45-26.79 22.92-39.76 30.12-52.31 58.3-103.94 89.33-156.39l65.41-115.12c7.23-14.26 14.74-25.92 22.63-40.04l243.21-426.24c35.87-64.12 21.03-62.97-58.77-142.77l-522.77-522.77-43.88-43.88c-13.84-13.84-27.27-34.47-53.28-34.47-28.35 0-39.64 20.91-54.53 35.72L577.94 757.72c-13.45 13.45-36.99 31.4-36.99 55.79zM1724.4 307.03c.94 11.34 43.6 70.38 50.14 82.75 10.7-2.5 99.37-62.07 115.37-72.69l340.96-223.18c-17.74-26.5-34.91-53.73-52.65-80.23l-57.19 35.58c-54.13 34.71-117.49 78.94-169.92 110.9-28.63 17.46-216.79 144.22-226.71 146.87zM79.61 1274.85c6.36 27.31 21.94 68.53 27.58 92.77 11.14-.25 342.91-101.53 369.47-109.42 18.86-5.6 35.4-11.55 54.26-15.94-6.36-27.31-21.93-68.54-27.57-92.78-12.16.28-87.38 25.17-105.31 30.09l-105.84 32.07c-51.47 14.23-167.41 52.68-212.59 63.21zM16.93 883.71l433.76 32.6c0-13.83 7.92-92.94 4.89-95.89-3.99-3.88-270.76-21.05-298.61-24.09l-135.03-7.9c0 34.49-5.01 61.07-5.01 95.28zM1990.17 565.28c.3 13.21 20.67 76.37 25.07 95.28l338.49-95.28c-1.07-12.87-8.76-34.15-11.99-45.67-4.43-15.76-9.55-31.94-13.08-47.09l-294.23 81.86c-12.56 3.63-31.24 10.61-44.26 10.9zM438.27 1475.79c.33 19.53 25.8 72.4 27.47 92.41l223.03-73.07c-.26-19.37-25.79-72.3-27.46-92.41l-223.04 73.07zM2002.71 1021.61h160.46v-90.26c0-5.78-1.74-7.52-7.52-7.52h-152.94v97.78z"
    />
  </svg>
